<?xml version="1.0" standalone="no"?>
<!DOCTYPE svg PUBLIC "-//W3C//DTD SVG 1.1//EN" "http://www.w3.org/Graphics/SVG/1.1/DTD/svg11.dtd" >
<svg xmlns="http://www.w3.org/2000/svg" xmlns:xlink="http://www.w3.org/1999/xlink" version="1.1">
<metadata>
Created by FontForge 20170731 at Fri Apr 22 15:41:29 2016
 By Aleksey,,,
Copyright (c) 2016 by Zetafonts. All rights reserved.
</metadata>
<defs>
<font id="BubbleboddyNeueTrial-ExtraBold" horiz-adv-x="1132" >
  <font-face 
    font-family="Bubbleboddy Neue Trial"
    font-weight="800"
    font-stretch="normal"
    units-per-em="2000"
    panose-1="0 0 0 0 0 0 0 0 0 0"
    ascent="1600"
    descent="-400"
    x-height="968"
    cap-height="1306"
    bbox="-179 -678 13621 1867.15"
    underline-thickness="100"
    underline-position="-300"
    unicode-range="U+000D-2265"
  />
<missing-glyph horiz-adv-x="468" 
 />
    <glyph glyph-name=".notdef" horiz-adv-x="468" 
 />
    <glyph glyph-name=".null" horiz-adv-x="0" 
 />
    <glyph glyph-name="nonmarkingreturn" unicode="&#xd;" horiz-adv-x="468" 
 />
    <glyph glyph-name="NULL" horiz-adv-x="0" 
 />
    <glyph glyph-name="NULL" horiz-adv-x="0" 
 />
    <glyph glyph-name="space" unicode=" " horiz-adv-x="468" 
 />
    <glyph glyph-name="exclam" unicode="!" horiz-adv-x="600" 
d="M300 256q-41 0 -76.5 15.5t-62 42.5t-42 62.5t-15.5 75.5v737q0 40 15 76t41.5 62.5t62.5 42t77 15.5t77 -15.5t62.5 -42t41.5 -62.5t15 -76v-737q0 -40 -15.5 -75.5t-42 -62.5t-62.5 -42.5t-76 -15.5zM496 -20q0 -41 -15.5 -76t-42 -60.5t-62.5 -40.5t-76 -15
q-41 0 -77 15t-62.5 40.5t-41.5 60.5t-15 76t15 76.5t41.5 61t62.5 40t77 14.5q40 0 76 -14.5t62.5 -40t42 -61t15.5 -76.5z" />
    <glyph glyph-name="quotedbl" unicode="&#x22;" horiz-adv-x="1005" 
d="M270 1305q37 0 72.5 -13.5t63.5 -37t45 -54.5t17 -67l-22 -163q-6 -39 -19 -74.5t-34 -62t-51.5 -42.5t-71.5 -16q-43 0 -73 16.5t-50 43.5t-32 62t-19 73l-24 159q0 39 16.5 71.5t44 55.5t63.5 36t74 13zM749 1305q37 0 72.5 -13.5t63.5 -37t45 -54.5t17 -67l-23 -163
q-6 -39 -18.5 -74.5t-33.5 -62t-51 -42.5t-72 -16q-43 0 -73 14.5t-50.5 41t-32.5 62t-19 77.5l-20 156q0 38 15.5 71t42 57t62 37.5t75.5 13.5z" />
    <glyph glyph-name="numbersign" unicode="#" horiz-adv-x="1502" 
d="M423 1170q10 40 34 71.5t56.5 51t71 26t78.5 -3.5q40 -12 71 -36t50 -56.5t25 -71.5t-4 -80l-211 -944q-11 -40 -35 -70.5t-56.5 -49.5t-71.5 -25t-79 3q-39 11 -70 35.5t-50 56.5t-25 70.5t4 78.5zM925 1183q12 39 36.5 69t57.5 47t71.5 21.5t77.5 -7.5t69 -37t47.5 -58
t21.5 -71.5t-8 -77.5l-208 -951q-12 -39 -37.5 -68.5t-58.5 -46.5t-71.5 -21.5t-77.5 6.5q-40 12 -69.5 37t-47 58t-22 71.5t7.5 77.5zM1281 1074q41 0 76.5 -15t62 -41.5t42 -62t15.5 -76.5t-15.5 -77t-42 -62.5t-62 -42t-76.5 -15.5h-941q-42 0 -78 15.5t-62 42t-41 62.5
t-15 77t15 76.5t41 62t62 41.5t78 15h941zM1187 623q41 0 77 -15t62.5 -41.5t42 -62t15.5 -76.5t-15.5 -77t-42 -62.5t-62.5 -42t-77 -15.5h-941q-41 0 -77 15.5t-62.5 42t-41.5 62.5t-15 77t15 76.5t41.5 62t62.5 41.5t77 15h941z" />
    <glyph glyph-name="dollar" unicode="$" horiz-adv-x="1059" 
d="M380 1096v155q0 42 15.5 78.5t42.5 64t63 43t77 15.5q51 0 88.5 -18.5t62.5 -50.5t37.5 -74.5t12.5 -90.5v-130zM776 134v-100q0 -41 -15.5 -76.5t-42 -62t-62.5 -41.5t-76 -15q-41 0 -76 15t-61 41.5t-41 62t-15 76.5v108zM822 790q-20 0 -39 2.5t-38.5 11t-40 24
t-42.5 41.5q-13 15 -22.5 31t-20 29t-24 21.5t-33.5 8.5q-26 0 -43 -12.5t-17 -31.5q0 -11 4.5 -25t26.5 -27q118 -68 212.5 -128t160 -119t100.5 -121.5t35 -134.5q0 -70 -22.5 -127.5t-59 -102t-84 -77t-97.5 -54t-99.5 -31.5t-89.5 -10q-130 0 -222 30t-150 76.5
t-84.5 102.5t-26.5 107q0 30 12.5 62t35.5 56q24 26 59 41.5t83 15.5q42 0 82.5 -18.5t75.5 -62.5q23 -29 48.5 -35.5t47.5 -6.5q26 0 48 10.5t22 33.5t-21.5 42t-57 37.5t-80.5 38t-92 43.5t-92 53t-80.5 67t-57 86.5t-21.5 110.5q0 88 30 165t89 134.5t146.5 90.5
t201.5 33q46 0 105.5 -14t117.5 -41.5t107.5 -67.5t75.5 -92q10 -20 15.5 -42t5.5 -47q0 -87 -52 -132t-138 -45z" />
    <glyph glyph-name="percent" unicode="%" horiz-adv-x="1583" 
d="M40 1006q0 59 22 111t60 90.5t89.5 61t110.5 22.5t111 -22.5t91 -61t61.5 -90.5t22.5 -111t-22.5 -111t-61.5 -90t-91 -60t-111 -22t-110.5 22t-89.5 60t-60 90t-22 111zM277 1006q0 -29 10 -41.5t33 -12.5q26 0 37.5 12.5t11.5 41.5q0 54 -49 54q-43 0 -43 -54z
M913 1287q42 7 79.5 -3.5t66 -31.5t47.5 -50.5t24 -60.5q3 -19 2 -37t-5 -36q-29 -88 -51.5 -155t-40.5 -121l-33 -99t-29.5 -87.5t-29.5 -87t-33.5 -98.5t-41 -121t-51.5 -155q-19 -65 -60 -108.5t-101 -52.5q-40 -6 -79 3t-71 29.5t-54 51.5t-28 68q-6 31 6 66
q29 88 51 155t40.5 121t33.5 98.5t29.5 87t29.5 87.5t33.5 99t41.5 121t52 155q8 32 25 60t39 49q21 20 49 33.5t59 19.5zM950 285q0 59 22 111t60 90.5t89.5 61t110.5 22.5t111 -22.5t91 -61t61.5 -90.5t22.5 -111t-22.5 -111t-61.5 -90t-91 -60t-111 -22t-110.5 22
t-89.5 60t-60 90t-22 111zM1187 285q0 -29 10 -41.5t33 -12.5q26 0 37.5 12.5t11.5 41.5q0 54 -49 54q-43 0 -43 -54z" />
    <glyph glyph-name="ampersand" unicode="&#x26;" horiz-adv-x="1221" 
d="M1013 104q-21 -57 -70.5 -90.5t-112.5 -33.5h-240q-100 0 -187 24.5t-154.5 73.5t-112.5 123.5t-60 174.5q-3 17 -3.5 34t-0.5 34q0 88 29 159t80 126q-41 85 -41 181q0 36 6 71q12 69 47 128t86.5 102.5t116.5 68.5t138 25q75 0 107.5 -44t32.5 -116q0 -38 -11 -74
t-37 -65q-23 -25 -44.5 -33t-38.5 -13t-27 -14t-10 -36q0 -33 28 -33h14t21 0.5t20.5 0.5h12.5l9 -364h-77q-29 0 -49.5 -20t-20.5 -50t20.5 -51t49.5 -21h101v5zM602 878q105 0 209 0.5t209 0.5q38 0 71.5 -14t58 -38.5t39 -58t14.5 -72.5q0 -38 -14.5 -71t-39 -57.5
t-58 -39t-71.5 -14.5h-409q-39 0 -79 14.5t-72.5 39t-52.5 57.5t-20 71q0 39 19 72.5t49.5 57.5t69 38t77.5 14zM635 858q0 40 15 76t41 62.5t62 42t77 15.5t76.5 -15.5t62 -42t42 -62.5t15.5 -76v-682q0 -41 -15.5 -77t-42 -62.5t-62 -41.5t-76.5 -15t-77 15t-62 41.5
t-41 62.5t-15 77v682z" />
    <glyph glyph-name="quotesingle" unicode="'" horiz-adv-x="522" 
d="M260 1305q41 0 77 -15.5t62.5 -41.5t41.5 -62t15 -76v-140q0 -41 -15 -76.5t-41.5 -61.5t-62.5 -41.5t-77 -15.5t-77 15.5t-62.5 41.5t-41.5 61.5t-15 76.5v140q0 40 15 76t41.5 62t62.5 41.5t77 15.5z" />
    <glyph glyph-name="parenleft" unicode="(" horiz-adv-x="747" 
d="M714 -145q0 -41 -15.5 -75t-42 -58t-62 -37.5t-76.5 -13.5q-86 0 -161 33t-131.5 89.5t-89 132t-32.5 161.5v808q2 84 35.5 158t89.5 129.5t130.5 87.5t158.5 32q54 0 98 -22q45 -23 71.5 -65t26.5 -96q0 -41 -15.5 -78.5t-42 -67t-62 -47t-76.5 -17.5q-22 0 -22 -23
v-799q0 -22 22 -22q40 0 75.5 -17.5t62.5 -47t42.5 -67.5t15.5 -78z" />
    <glyph glyph-name="parenright" unicode=")" horiz-adv-x="743" 
d="M30 -138q0 27 8.5 58.5t29.5 61t56.5 52.5t89.5 32q1 0 7 1.5t12.5 4.5t11.5 7.5t5 10.5v799q0 11 -6.5 17t-17.5 6q-40 0 -75.5 17.5t-62.5 47t-42.5 67t-15.5 78.5q0 55 27 96t71 65q47 22 98 22q84 0 158.5 -32t130.5 -87.5t89.5 -129.5t35.5 -158v-808
q0 -86 -32.5 -161.5t-88.5 -132t-131.5 -89.5t-161.5 -33q-39 0 -74.5 14t-62.5 39t-43 59.5t-16 75.5z" />
    <glyph glyph-name="asterisk" unicode="*" horiz-adv-x="896" 
d="M134 1009l-15 11q-29 20 -46.5 47.5t-23 59t1.5 64t27 61.5q18 25 41.5 41.5t50.5 24t55 5.5t55 -14q17 46 56.5 75t91.5 29t92 -29.5t57 -75.5q26 9 53.5 9.5t53.5 -8t48.5 -25t38.5 -40.5q20 -30 26 -63t-0.5 -64.5t-24.5 -59.5t-47 -47l-7 -5l27 -19q28 -20 46 -47.5
t24 -59t0 -64t-26 -61.5q-18 -26 -42.5 -42.5t-52 -24t-56.5 -5.5t-56 14q-6 -27 -20 -49t-34.5 -38.5t-46 -25.5t-53.5 -9q-59 0 -101 35.5t-53 90.5q-29 -15 -59.5 -18t-59 4.5t-53.5 26t-43 45.5q-20 29 -26 61.5t0.5 63.5t24 58.5t46.5 46.5z" />
    <glyph glyph-name="plus" unicode="+" horiz-adv-x="950" 
d="M599 273q0 -27 -9.5 -50t-27 -40t-40.5 -27t-50 -10q-26 0 -49 10t-40 27t-27 40t-10 50v508q0 26 10 49t27 40t40 26.5t49 9.5q27 0 50 -9.5t40.5 -26.5t27 -40t9.5 -49v-508zM727 651q27 0 50 -9.5t40 -27t27 -40.5t10 -50q0 -26 -10 -49t-27 -40t-40 -27t-50 -10h-508
q-26 0 -49 10t-40 27t-26.5 40t-9.5 49q0 27 9.5 50t26.5 40.5t40 27t49 9.5h508z" />
    <glyph glyph-name="comma" unicode="," horiz-adv-x="595" 
d="M298 362q35 0 70 -13t63 -37.5t45.5 -60t17.5 -79.5q0 -62 -25.5 -121t-66.5 -105.5t-92 -75.5t-102 -32q-41 0 -62.5 35.5t-31.5 88.5q-10 51 -11 108.5t-1 101.5q0 40 15 75t41.5 60.5t62.5 40t77 14.5z" />
    <glyph glyph-name="hyphen" unicode="-" horiz-adv-x="947" 
d="M727 570q27 0 50 -9.5t40 -27t27 -40.5t10 -50q0 -26 -10 -49t-27 -40t-40 -27t-50 -10h-508q-26 0 -49 10t-40 27t-26.5 40t-9.5 49q0 27 9.5 50t26.5 40.5t40 27t49 9.5h508z" />
    <glyph glyph-name="period" unicode="." horiz-adv-x="508" 
d="M58 172q0 40 15 75t41.5 60.5t62.5 40t77 14.5q40 0 76 -14.5t62.5 -40t42 -60.5t15.5 -75q0 -41 -15.5 -76.5t-42 -61t-62.5 -40t-76 -14.5q-41 0 -77 14.5t-62.5 40t-41.5 61t-15 76.5z" />
    <glyph glyph-name="slash" unicode="/" horiz-adv-x="1190" 
d="M953 1285q43 0 78.5 -16t60.5 -41.5t38.5 -57.5t13.5 -64q0 -19 -4 -36.5t-10 -34.5q-173 -330 -343.5 -655.5t-342.5 -655.5q-30 -61 -77 -97t-109 -36q-43 0 -87 21.5t-75 56.5t-41 80.5t15 92.5q172 328 343.5 655.5t344.5 656.5q14 29 34.5 53.5t45.5 41.5
q53 36 115 36z" />
    <glyph glyph-name="zero" unicode="0" horiz-adv-x="3492" 
d="M2558 600q6 -5 9.5 -10.5t6.5 -13.5q6 -12 6 -30q0 -13 -6 -28q-3 -6 -6.5 -12t-9.5 -12q-5 -5 -10.5 -9t-13.5 -7q-12 -6 -28 -6q-9 0 -15.5 1.5t-14.5 4.5q-6 3 -12 7t-12 9q-5 6 -9 12t-7 12q-6 15 -6 28q0 18 6 30q3 8 7 13.5t9 10.5q6 6 12 9.5t12 6.5q8 3 14.5 4.5
t15.5 1.5q16 0 28 -6q8 -3 13.5 -6.5t10.5 -9.5zM716 576q-2 -2 -3.5 -4.5t-4.5 -5.5q-2 -2 -10 -6q-4 -2 -12 -2h-44v62h44q4 0 12 -4q7 0 10 -6q3 -2 4.5 -4t3.5 -4q0 -3 1 -6.5t1 -8.5q0 -2 -1 -5t-1 -6zM1086 600q11 -11 16 -24q6 -12 6 -30q0 -13 -6 -28q-3 -6 -7 -12
t-9 -12q-6 -5 -12 -9t-12 -7q-15 -6 -30 -6t-28 6q-13 5 -24 16q-6 6 -9.5 12t-6.5 12q-6 15 -6 28q0 18 6 30q3 8 6.5 13.5t9.5 10.5q5 6 10.5 9.5t13.5 6.5q13 6 28 6t30 -6q6 -3 12 -6.5t12 -9.5zM1462 616q0 -10 2 -12l36 -84h-78l36 84q2 2 2 4t1 4t1 4zM390 610
q4 -4 8 -12q2 -4 2 -14v-7t-2 -7q-4 -8 -8 -10q-4 -5 -10 -8q-5 -2 -8 -3t-6 -1h-44v72h44q3 0 6 -1t8 -3q3 0 5.5 -2t4.5 -4zM3278 1084v-766h-3148v766h1194q0 79 30 150q31 71 82 122q53 50 122 80t146 30q85 0 152 -32q69 -33 120 -84q50 -53 80 -122t30 -144h1192z
M1380 1216q-12 -32 -19 -65t-7 -69q0 -69 28 -134q14 -32 32 -60t42 -52q45 -48 110 -76q63 -30 138 -30q71 0 136 28q63 27 112 76q24 23 42.5 50.5t33.5 59.5q26 64 26 138q0 33 -4.5 63t-15.5 57q-9 26 -23.5 51.5t-32.5 48.5q-18 21 -38 39t-44 35q-24 14 -49 25t-51 19
q-21 8 -43.5 11t-48.5 3q-74 0 -140 -30q-32 -14 -59 -33t-51 -43t-42 -52t-32 -60zM424 560q2 6 3 12t1 12q0 8 -1 14t-3 12q-3 5 -6 9t-8 9t-9.5 8.5t-10.5 5.5q-12 6 -24 6h-72v-200h28v74h44q6 0 12 1t12 3q12 6 20 14t14 20zM572 648h-124v-200h124v26h-96v60h78v28
h-78v58h96v28zM768 448l-64 86q5 2 9 3t7 5q8 3 14 12q5 6 8 16q2 5 2 9v8q0 8 -0.5 13.5t-3.5 11.5q-2 5 -5.5 9t-6.5 9q-9 9 -18 12q-12 6 -24 6h-72v-200h28v82h30l52 -70q3 -7 10 -10q2 -2 6.5 -2h9.5h18zM902 482q6 12 6 24q0 28 -22 44q-2 2 -4 3t-4 3q-3 2 -5 2t-5 2
q-2 2 -4 2t-6 2q-2 0 -10 4q-5 2 -9 3t-7 3q-5 2 -7 3t-5 3q-4 4 -6 7q-1 3 -1 11q0 6 1 10q2 2 3.5 4t4.5 4q2 0 10 4q4 2 12 2q3 0 5.5 -1t4.5 -1q3 -2 6.5 -3t5.5 -3q8 -4 12 -4q8 0 14 6l6 4q-2 3 -4.5 5t-5.5 5t-6 5t-6 5q-3 2 -7 3t-9 3q-8 4 -16 4q-6 0 -11 -1
t-11 -3t-10.5 -4.5t-9.5 -5.5q-3 -3 -6 -7t-6 -9q-6 -9 -6 -22q0 -8 1.5 -12.5t4.5 -9.5q3 -10 12 -16q7 -7 18 -10q5 -3 9.5 -5t10.5 -5q3 -2 6 -2.5t8 -1.5q3 -2 6.5 -3t5.5 -3q3 -3 5.5 -5t4.5 -5t3 -6t1 -8q0 -6 -4 -14q-3 -7 -10 -10q-2 -3 -5.5 -4.5t-6.5 -3.5
q-5 0 -8 -1t-8 -1q-3 0 -7 1t-7 1q-8 4 -11 8l-3 2q-6 6 -16 6q-7 0 -10 -4l-8 -2q2 -2 2 -3t2 -1q0 -2 1 -3t1 -3q4 -4 5 -6q4 -5 7 -5q9 -10 19.5 -13.5t24.5 -3.5q8 0 14 0.5t14 3.5q11 3 20 13q11 9 16 19zM1132 520q2 8 2 13.5v12.5v15t-2 13q-3 8 -5 14t-7 12
q-3 5 -7 10t-7 10q-6 5 -11 8t-11 8q-6 3 -12 5.5t-12 4.5q-8 2 -14 3t-14 1q-6 0 -13 -1t-13 -3q-8 -2 -14 -4.5t-12 -5.5q-5 -5 -10 -8t-10 -8t-9 -10t-7 -10q-3 -6 -5.5 -12t-4.5 -14q-2 -6 -3 -13t-1 -15q0 -9 1.5 -19t6.5 -19q5 -11 10.5 -18.5t11.5 -15.5
q8 -6 15.5 -11.5t16.5 -8.5q19 -8 40 -8h14t14 2q6 3 12 5t12 7q10 5 22 14q3 5 7 10.5t7 11.5q5 6 7 12t5 12zM1342 648h-28v-156q0 5 -1 8t-3 6l-98 134q-4 4 -8 6q-3 0 -6 1t-6 1h-20v-200h28v168v-4q2 -2 2 -3v-1q0 -2 1 -3q0 -1 1 -1l114 -156h24v200zM1562 448
l-86 200h-28l-88 -200h16q8 0 11 2q7 5 9 10l14 32h102l14 -32q4 -8 8 -10q2 -2 5.5 -2h6.5h16zM1696 474h-86v174h-28v-200h114v26zM1972 648h-28v-122q0 -6 -1 -11t-3 -11q-3 -5 -5 -9t-7 -7q-3 -5 -7 -7t-8 -5q-7 -2 -12 -3t-11 -1q-5 0 -10 1t-10 3q-5 3 -9 5t-7 7
q-9 6 -12 16q-2 6 -3 11t-1 11v122h-28v-122q0 -6 0.5 -11.5t2.5 -10.5q1 -6 3 -10.5t4 -9.5q3 -5 6 -9t8 -7q3 -3 7 -6t9 -6t10 -4.5t10 -3.5t10 -3t10 -1q6 0 12 1t11 3q12 3 19 8q5 3 8 6t8 6q3 3 6 7t6 9q5 7 8 20q2 5 3 10.5t1 11.5v122zM2126 482q3 6 3.5 12t0.5 12
q0 30 -20 44q-4 2 -8 6q-3 2 -5 2t-5 2q-4 2 -5.5 2t-4.5 2q-3 0 -5 1t-5 3q-5 2 -9 3t-7 3q-9 3 -12 6q-6 3 -6 7q-2 3 -2 11q0 6 2 10q2 2 3.5 4t4.5 4q2 0 10 4q4 2 12 2q3 0 5 -1t5 -1l12 -6q8 -4 12 -4q6 0 12 6l8 4q-2 3 -4.5 5t-5.5 5t-6 5t-6 5q-3 2 -7 3t-9 3t-8 3
t-8 1q-6 0 -11.5 -1t-10.5 -3q-6 -2 -10.5 -4.5t-9.5 -5.5q-3 -3 -6.5 -7t-5.5 -9q-6 -9 -6 -22q0 -8 1.5 -12.5t3.5 -9.5q5 -11 13 -16q7 -7 16 -10q6 -3 11 -5t11 -5q3 -2 6 -2.5t8 -1.5l12 -6q3 -3 5.5 -5t4.5 -5t3 -6t1 -8q0 -6 -4 -14q-3 -7 -10 -10q-5 -5 -14 -8
q-3 0 -7 -1t-7 -1q-5 0 -8 1t-6 1q-10 3 -12 8l-2 2q-6 6 -16 6q-8 0 -10 -4l-8 -2q0 -2 1 -3q0 -1 1 -1q2 -2 2 -3t2 -3q4 -4 4 -6q4 -5 8 -5q9 -10 19.5 -13.5t24.5 -3.5q8 0 14 0.5t11 3.5q15 3 23 13q11 9 16 19zM2290 648h-124v-200h124v26h-98v60h78v28h-78v58h98v28z
M2604 520q2 8 3 13.5t1 12.5q0 8 -1 15t-3 13q-2 8 -4.5 14t-5.5 12q-3 5 -7 10t-9 10t-10 8t-10 8q-6 3 -12 5.5t-14 4.5q-6 2 -13 3t-13 1q-8 0 -14.5 -1t-13.5 -3q-6 -2 -12 -4.5t-12 -5.5q-6 -5 -11 -8t-11 -8q-5 -5 -8 -10t-8 -10q-3 -6 -5 -12t-5 -14q-2 -6 -2 -13
v-15q0 -9 1.5 -19t6.5 -19q3 -11 8.5 -18.5t11.5 -15.5q8 -6 16.5 -11.5t17.5 -8.5q16 -8 40 -8h13t13 2q8 3 14 5t12 7l10 6t10 8q10 10 16 22q3 6 5.5 12t4.5 12zM2814 648h-28v-156q0 5 -1 8t-3 6l-98 134q-4 4 -8 6q-2 0 -4.5 1t-7.5 1h-20v-200h28v168q2 -2 2 -3v-1
q0 -4 2 -4q0 -4 2 -4l114 -156h22v200zM2978 474h-88v174h-26v-200h114v26zM3136 648h-18q-10 0 -14 -4q-3 -2 -5.5 -5t-4.5 -5l-48 -64q-1 0 -2 -1v-1q0 -1 -0.5 -1.5t-0.5 -1.5l-1 -1v4v1l-2 1l-46 64q-3 2 -5.5 5t-4.5 5q-5 2 -8 3t-8 1h-18l72 -98l1 -1q0 -1 0.5 -1.5
t0.5 -1.5q2 -2 2 -3t2 -1v-5v-5v-84h28v84q0 2 1 3t1 2v2q0 1 2 3v1q0 1 2 3q0 4 4 4zM1590 787q-27 11 -51 26t-47 33h424q-23 -18 -47 -33t-51 -26q-26 -10 -55 -15.5t-59 -5.5q-31 0 -59.5 5.5t-54.5 15.5zM1528 880l412 416q78 -102 78 -214q0 -29 -4 -55.5t-14 -52.5
q-9 -26 -22 -48.5t-30 -45.5h-420zM1468 870q-20 23 -34.5 47t-23.5 51q-11 26 -15.5 55t-4.5 59q0 57 18 108q8 26 21 48.5t31 45.5h418zM1818 1378q54 -24 96 -60h-422q21 20 45.5 34.5t49.5 25.5q53 20 117 20q30 0 59 -4.5t55 -15.5zM136 116q-7 10 -10 21q-2 7 -3 13
t-1 12t1 12t3 12t4.5 12t5.5 12q3 5 6 9t8 9q8 8 20 14q11 7 22 10q6 2 12 3t12 1q11 0 20 -2.5t18 -5.5q8 -5 15 -9.5t13 -10.5q0 -2 -1 -2t-3 -2l-2 -2q-2 -2 -3 -2h-1h-6h-4t-4 2q-5 3 -9.5 5.5t-10.5 4.5q-5 2 -10.5 2h-11.5q-8 0 -15 -1t-14 -3q-12 -7 -21 -16
q-6 -5 -9.5 -10.5t-6.5 -13.5q-6 -12 -6 -28v-9t2 -9q2 -10 8 -18q3 -5 6 -8t6 -8q6 -6 14 -10q5 -3 9 -4.5t9 -3.5t9.5 -2h10.5h12t12 2t11 4.5l11 5.5v38h-14q-2 0 -4 1t-4 1q-2 2 -3 2t-3 2q0 2 -1 3t-1 3q-2 2 -2 6v2h50v-70q-3 -5 -6 -7t-8 -5q-3 -2 -6 -3t-8 -1
q-5 -2 -9 -3t-9 -1h-20h-12t-12 2q-11 3 -22 10q-12 6 -20 14t-14 20zM348 232v-58h72v-20h-72v-62h90v-20h-110v182h110v-22h-90zM518 72v160h-58v22h138v-22h-58v-160h-22zM732 232v-62h76v-20h-76v-78h-20v182h110v-22h-90zM878 254v-112q0 -6 0.5 -10.5t3.5 -9.5
q2 -6 4.5 -9.5t5.5 -8.5q5 -3 8.5 -5.5t9.5 -4.5q5 -3 9.5 -3.5t10.5 -0.5t10.5 0.5t9.5 3.5q11 4 16 10q5 5 7 8.5t5 9.5q2 5 3 9.5t1 10.5v112h20v-112q0 -16 -6 -28q-3 -8 -6 -13.5t-8 -10.5q-6 -5 -12 -9t-12 -7q-6 -2 -13 -3t-15 -1t-15 1t-13 3q-13 5 -24 16
q-5 5 -9 10.5t-6 13.5q-4 6 -4.5 13t-0.5 15v112h20zM1062 254v-162h80v-20h-102v182h22zM1186 254v-162h80v-20h-100v182h20zM1432 72l-78 182h10q3 0 5 -1t5 -3q2 -2 4 -3.5t2 -4.5l60 -136q0 -2 1 -3t1 -3v-6v6q2 2 2 6q8 17 15 34t15 34q8 18 15 34.5t15 33.5q2 4 6 8
q8 4 10 4h12q-11 -23 -21 -46t-19 -46q-11 -23 -20 -45t-20 -45h-20zM1568 232v-58h72v-20h-72v-62h90v-20h-112v182h112v-22h-90zM1794 156q-5 -2 -8 -3t-8 -3l58 -78h-12q-8 0 -11 2q-6 2 -9 8l-52 68h-30v-78h-22v182h66q5 0 10 -1t10 -3q5 -3 9 -6t7 -6t6 -7t6 -9
q2 -5 3 -10t1 -10t-1 -9t-3 -9q-2 -10 -8 -16zM1766 170q8 0 12 2q3 2 5 3t5 3q2 3 3 5t3 4q2 4 3 7t1 8q0 4 -4 12q-2 3 -3 5t-3 5q-3 2 -5 3t-5 3q-4 2 -12 2h-44v-62h44zM1932 98q7 3 10 10q4 10 4 14q0 9 -4 15q-3 6 -8 9q-4 4 -12 8q-4 0 -14 4q-6 2 -10.5 4t-9.5 4
q-9 3 -16 10q-3 2 -5.5 5.5t-3.5 5.5q-2 5 -3.5 10t-1.5 11q0 11 6 20q3 8 12 14q7 7 16 10q5 2 10.5 3t10.5 1q2 0 6 -1t7 -1q5 -2 8 -3t6 -3q3 -3 5.5 -4.5t4.5 -3.5l8 -8l-4 -4q-4 -4 -10 -4q-8 0 -10 2t-3 2t-3 2q-2 0 -2 1t-2 1t-3 1t-3 1h-5h-8t-7 -2q-3 0 -5 -1
t-5 -3q-2 -3 -4 -5t-2 -5q-4 -4 -4 -10q0 -8 2 -10q2 -4 6 -8q5 -4 12 -6q3 -2 7 -3t9 -3q3 -2 5 -2t5 -2q4 0 8 -4q3 0 5 -1t5 -3q2 0 6 -4l8 -8t7 -8q1 -7 2 -11.5t1 -12.5q0 -6 -1 -11t-2 -11q-4 -5 -7 -9.5t-8 -6.5q-7 -7 -20 -10q-5 -3 -10.5 -3.5t-11.5 -0.5
q-26 0 -40 14q-2 2 -5 4.5t-5 5.5q-4 4 -4 8l4 2l1 1q1 0 1.5 0.5t1.5 0.5h4q8 0 12 -4q3 -5 7 -6.5t7 -3.5q5 -2 8 -2h8h6t8 2q6 0 12 6zM2028 254v-182h-22v182h22zM2098 96q-6 6 -11.5 13.5t-8.5 16.5q-5 8 -6.5 17.5t-1.5 18.5q0 6 1 12t3 12t3.5 12t4.5 12q4 5 7.5 9
t8.5 9t9 8t9 6q10 7 21 10q7 2 13 3t14 1q6 0 12 -1t11 -3q12 -3 23 -10q12 -6 20 -14q5 -5 8 -9t6 -9q3 -6 5.5 -12t4.5 -12t2 -12v-12q0 -20 -6 -36q-8 -17 -20 -30q-16 -14 -30 -20q-20 -6 -36 -6q-22 0 -38 6t-28 20zM2096 190q-6 -12 -6 -28q0 -5 1 -9t3 -9
q2 -6 3 -9.5t3 -8.5q3 -5 6 -8t6 -8q6 -6 14 -10q7 -5 18 -8q5 -2 9.5 -2h10.5h9t9 2q4 2 8.5 3.5t9.5 4.5q5 2 8 4.5t6 5.5q5 5 7 8t5 8q6 8 8 18q2 5 2 9v9q0 16 -6 28q-3 8 -6.5 13.5t-9.5 10.5q-10 10 -22 16q-6 2 -13 3t-15 1t-15 -1t-15 -3q-12 -6 -22 -16
q-5 -5 -9 -10.5t-7 -13.5zM2310 72h-20v182h14q13 0 16 -8l94 -132q2 -1 2 -2.5t2 -3.5v-4v150h22v-182h-20l-106 150l-2 2v2q0 2 -2 4v-158zM2592 232v-62h76v-20h-76v-78h-20v182h112v-22h-92zM2810 168q-3 -6 -12 -12q-3 -2 -7.5 -3t-8.5 -3l60 -78h-12q-10 0 -14 2
q-2 2 -4 3.5t-4 4.5l-50 68h-32v-78h-20v182h64q6 0 10.5 -1t9.5 -3q6 -3 9.5 -6t6.5 -6q9 -6 12 -16q2 -5 3 -10t1 -10v-9t-2 -9q-3 -9 -10 -16zM2782 172q8 4 10 6q6 6 6 9q2 4 3 7t1 8q0 4 -4 12q0 4 -6 10q-2 2 -10 6q-4 2 -12 2h-44v-62h44q8 0 12 2zM3020 96
q-16 -14 -30 -20q-18 -6 -38 -6q-18 0 -36 6q-15 6 -29 20q-13 11 -19 30q-5 8 -6.5 17.5t-1.5 18.5q0 6 1 12t3 12t3.5 12t6.5 12q2 5 5.5 9t7.5 9t9 8l10 6l11 5.5t11 4.5t12 3t12 1q8 0 14 -1t12 -3q11 -3 22 -10q12 -6 20 -14q5 -5 8 -9t6 -9l4 -12l4 -12q3 -6 3.5 -12
t0.5 -12q0 -9 -2 -18.5t-7 -17.5q-4 -17 -17 -30zM2952 90h10.5t9.5 2t9 3.5t9 4.5q5 2 8 4.5t6 5.5q5 5 7 8t5 8q6 8 8 18q2 5 2 9v9q0 16 -6 28q-3 8 -6.5 13.5t-9.5 10.5q-10 10 -22 16q-8 2 -15 3t-15 1q-6 0 -13 -1t-15 -3q-12 -6 -22 -16q-5 -5 -9 -10.5t-7 -13.5
q-6 -12 -6 -28q0 -5 1 -9t1 -9q2 -6 4 -9.5t4 -8.5q3 -5 6 -8t6 -8q6 -6 14 -10q5 -3 9 -4.5t9 -3.5t9 -2h9zM3252 250q4 4 8 4h18v-182h-20v150h-2v-4v-2q0 -1 -1 -2h-1q-5 -11 -9 -21t-7 -19q-5 -11 -9 -19t-7 -18q-5 -8 -9 -16.5t-7 -16.5q-3 -9 -7 -16.5t-7 -15.5h-22
q-8 17 -15 34.5t-15 35.5q-9 18 -16.5 36t-15.5 36q-2 0 -2 4v4v-150h-20v182h16q4 0 8 -4q6 -3 6 -8l64 -140v-4q2 -2 2 -3v-1v4.5t2 5.5t2 5t1 5l59 128q0 5 6 8zM130 0h210v-24v-14q-2 -3 -3 -6t-3 -6l-142 -188q2 0 4 2q2 0 4 2h4h136v-50h-218v16q0 4 1 7.5t1 6.5
q2 3 2 6t2 6l6 12q4 3 8 10l126 170h-138v50zM376 0h182v-50h-130v-66h104v-50h-104v-68h130v-50h-182v284zM786 -50h-84v-234h-52v234h-82v50h218v-50zM914 0l122 -284h-32q-11 0 -20 6q-5 3 -8 7l-6 8l-16 39h-128l-18 -39q0 -3 -4 -7q-2 -3 -4 -4.5t-4 -3.5q-3 -2 -5 -3
t-5 -1q-3 -2 -5.5 -2h-4.5h-34l124 284h48zM932 -172l-38 86q-2 3 -2 5.5t-2 4.5v8q0 -4 -2 -8q0 -2 -1 -4.5t-1 -5.5l-38 -86h84zM1048 0h182v-50h-130v-72h108v-50h-108v-112h-52v284zM1516 -70q5 -8 8.5 -16.5t5.5 -17.5q6 -18 6 -38t-6 -38q-2 -9 -5.5 -18t-8.5 -18
q-9 -15 -22 -28q-6 -6 -13.5 -11.5t-16.5 -10.5q-8 -6 -16.5 -9.5t-17.5 -6.5q-9 -2 -18 -3t-20 -1q-15 0 -29.5 2.5t-26.5 7.5q-14 6 -25.5 13.5t-20.5 18.5q-21 21 -32 46q-6 14 -8 27t-2 29q0 9 0.5 19t3.5 19t6 17.5t8 16.5q5 9 10.5 15.5t13.5 14.5q13 13 28 22
q9 4 17 8.5t17 7.5q11 2 20 3t20 1t20 -1t18 -3q9 -3 17.5 -7.5t16.5 -8.5q9 -5 16.5 -10.5t13.5 -11.5q6 -8 11.5 -14.5t10.5 -15.5zM1478 -178q6 18 6 36t-6 36q-5 9 -9.5 15.5t-10.5 14.5q-8 6 -15.5 10t-14.5 8q-16 8 -36 8q-23 0 -36 -8q-9 -4 -16.5 -8t-13.5 -10
q-6 -8 -10.5 -14.5t-9.5 -15.5q-3 -9 -5.5 -18t-2.5 -18t2.5 -18t5.5 -18q10 -20 20 -30q6 -6 13.5 -10.5t16.5 -9.5q15 -6 36 -6q18 0 36 6q7 5 14.5 9.5t15.5 10.5q6 6 10.5 13.5t9.5 16.5zM1772 0h52v-284h-48l-134 190q-4 4 -4 6q-2 4 -6 8q0 2 -4 6q0 2 -1 3t-1 3v-216
h-52v284h46q8 0 16 -4t10 -9q15 -20 30 -41l30 -42t29.5 -41.5t28.5 -40.5q6 -6 6 -12q2 -3 2 -5.5v-4.5v200zM1848 0h218v-50h-82v-234h-52v234h-84v50zM2246 -146q9 -9 12 -22q6 -12 6 -28q0 -11 -2.5 -19.5t-5.5 -16.5q-5 -9 -10.5 -16.5t-11.5 -14.5q-15 -11 -34 -17
q-20 -6 -36 -6q-22 0 -40 6q-9 5 -16.5 9.5t-15.5 12.5q-5 5 -8 9t-6 9q-5 8 -8 16q2 0 6 4q4 0 8 4q2 0 4 1t4 1t4 0.5t4 0.5q6 0 12 -3q5 0 8 -1t6 -3q7 -7 16 -10q5 -2 10.5 -3t11.5 -1h7t9 2q3 2 7 3t7 3q9 6 12 13q6 7 6 17q0 5 -1 8t-3 6q-3 3 -6 5.5t-6 4.5
q-8 5 -16 8q-8 1 -18 8q-8 2 -15 4.5t-15 5.5t-14 7t-12 9q-10 10 -16 22q-8 13 -8 32q0 10 2.5 18t5.5 16q10 16 20 24q6 4 13 8.5t14 7.5q8 2 16.5 3t16.5 1q6 0 12 -1t12 -3q13 -3 22 -11q6 -2 10.5 -6t9.5 -9q5 -3 8 -7t6 -9l-10 -8l-6 -4t-8 -4t-8 -2.5t-6 -0.5h-4h-4
q-3 2 -5 2.5t-5 2.5q-2 2 -4.5 2t-3.5 2q-2 0 -3.5 1t-4.5 1q-2 2 -8 2h-6t-8 -2q-6 0 -10 -4q-3 -2 -6 -4.5t-4 -3.5q-2 -4 -2 -12t2 -10q1 -3 4 -5t6 -5q3 -2 7 -3t9 -3t10.5 -4t13.5 -4l8 -4q9 -3 15.5 -6t14.5 -8q14 -7 22 -18zM2332 -234q5 -3 5 -10q2 -2 3.5 -5.5
t1.5 -6.5q0 -5 -5 -12q0 -5 -5 -10q-2 -2 -10 -6q-4 -2 -12 -2t-12 2q-8 4 -11 6q-2 3 -3.5 5t-3.5 5q0 3 -1 6t-1 6t1 6.5t1 5.5q4 8 7 10q4 6 11 6q8 4 12 4t12 -4q7 0 10 -6zM2440 -76q-8 -8 -12.5 -14.5t-7.5 -15.5q-8 -16 -8 -36t8 -36q6 -19 20 -30q6 -6 13.5 -10.5
t16.5 -9.5q15 -6 34 -6q8 0 15 1t13 3q14 3 26 12q2 2 4 2t4 2q3 1 5.5 1h4.5q8 0 16 -3q8 -4 12 -8l12 -10q-6 -6 -12 -11.5t-12 -10.5t-13 -9t-13 -7q-8 -5 -15 -6.5t-15 -3.5q-8 -3 -15.5 -3.5t-16.5 -0.5q-14 0 -28 2.5t-28 7.5q-25 11 -46 32q-9 11 -16.5 21.5
t-13.5 24.5q-12 27 -12 56q0 20 6 38q2 9 5.5 17.5t8.5 16.5q5 9 10.5 15.5t11.5 14.5q8 6 14.5 11.5t15.5 10.5q8 4 16.5 8.5t17.5 7.5q11 2 20 3t18 1t16.5 -0.5t15.5 -3.5q13 -3 30 -11q12 -5 26 -15q6 -5 12 -10.5t12 -11.5l-12 -13q-4 -3 -12 -7q-5 -2 -16 -2
q-9 0 -18 6q-6 2 -12 5.5t-14 6.5q-6 2 -13 3t-15 1q-9 0 -17.5 -1.5t-16.5 -6.5q-9 -4 -16.5 -8t-13.5 -10zM2904 -70q5 -8 8.5 -16.5t5.5 -17.5q6 -18 6 -38t-6 -38q-2 -9 -5.5 -18t-8.5 -18q-9 -15 -22 -28q-8 -6 -14.5 -11.5t-15.5 -10.5q-8 -6 -16.5 -9.5t-17.5 -6.5
q-9 -2 -19 -3t-19 -1q-15 0 -29.5 2.5t-28.5 7.5q-12 6 -23.5 13.5t-20.5 18.5q-21 21 -32 46q-7 14 -9.5 27t-2.5 29q0 20 6 38q3 9 6 17.5t8 16.5q5 9 10.5 15.5t13.5 14.5q13 13 28 22q9 4 17 8.5t17 7.5q11 2 20 3t20 1q9 0 19 -1t19 -3q9 -3 17.5 -7.5t16.5 -8.5
q9 -5 15.5 -10.5t14.5 -11.5q6 -8 11.5 -14.5t10.5 -15.5zM2866 -178q6 18 6 36t-6 36q-5 9 -9.5 15.5t-10.5 14.5q-8 6 -15 10t-15 8q-16 8 -36 8q-23 0 -36 -8q-9 -4 -16.5 -8t-13.5 -10q-6 -8 -11.5 -14.5t-8.5 -15.5q-5 -9 -6.5 -18t-1.5 -18t1.5 -18t6.5 -18
q3 -9 8.5 -16.5t11.5 -13.5t13.5 -10.5t16.5 -9.5q15 -6 36 -6q18 0 36 6q8 5 15 9.5t15 10.5q6 6 10.5 13.5t9.5 16.5zM3216 -2q2 0 4.5 1t5.5 1h52v-284h-52v208q-2 -3 -3 -6t-1 -8q-2 -5 -3 -8t-3 -6l-36 -90q-9 -23 -18 -45t-20 -45h-46l-74 180q-2 3 -3 6t-3 8
q0 4 -4 12v-206h-52v284h52q3 0 6 -1t6 -1q2 -2 4 -2t4 -2q3 -2 4.5 -4.5t3.5 -3.5q2 -2 3 -4t3 -4q9 -23 17 -44t17 -42q9 -23 17.5 -44t16.5 -42q2 -2 2 -6q0 -2 1 -3t1 -3v-7v-1l2 1v7q0 4 2 6v6l10 20l60 152q0 5 6 8q3 5 8 8q2 2 5 2t5 2z" />
    <glyph glyph-name="one" unicode="1" horiz-adv-x="3492" 
d="M2558 600q6 -5 9.5 -10.5t6.5 -13.5q6 -12 6 -30q0 -13 -6 -28q-3 -6 -6.5 -12t-9.5 -12q-5 -5 -10.5 -9t-13.5 -7q-12 -6 -28 -6q-9 0 -15.5 1.5t-14.5 4.5q-6 3 -12 7t-12 9q-5 6 -9 12t-7 12q-6 15 -6 28q0 18 6 30q3 8 7 13.5t9 10.5q6 6 12 9.5t12 6.5q8 3 14.5 4.5
t15.5 1.5q16 0 28 -6q8 -3 13.5 -6.5t10.5 -9.5zM716 576q-2 -2 -3.5 -4.5t-4.5 -5.5q-2 -2 -10 -6q-4 -2 -12 -2h-44v62h44q4 0 12 -4q7 0 10 -6q3 -2 4.5 -4t3.5 -4q0 -3 1 -6.5t1 -8.5q0 -2 -1 -5t-1 -6zM1086 600q11 -11 16 -24q6 -12 6 -30q0 -13 -6 -28q-3 -6 -7 -12
t-9 -12q-6 -5 -12 -9t-12 -7q-15 -6 -30 -6t-28 6q-13 5 -24 16q-6 6 -9.5 12t-6.5 12q-6 15 -6 28q0 18 6 30q3 8 6.5 13.5t9.5 10.5q5 6 10.5 9.5t13.5 6.5q13 6 28 6t30 -6q6 -3 12 -6.5t12 -9.5zM1462 616q0 -10 2 -12l36 -84h-78l36 84q2 2 2 4t1 4t1 4zM390 610
q4 -4 8 -12q2 -4 2 -14v-7t-2 -7q-4 -8 -8 -10q-4 -5 -10 -8q-5 -2 -8 -3t-6 -1h-44v72h44q3 0 6 -1t8 -3q3 0 5.5 -2t4.5 -4zM3278 1084v-766h-3148v766h1194q0 79 30 150q31 71 82 122q53 50 122 80t146 30q85 0 152 -32q69 -33 120 -84q50 -53 80 -122t30 -144h1192z
M1380 1216q-12 -32 -19 -65t-7 -69q0 -69 28 -134q14 -32 32 -60t42 -52q45 -48 110 -76q63 -30 138 -30q71 0 136 28q63 27 112 76q24 23 42.5 50.5t33.5 59.5q26 64 26 138q0 33 -4.5 63t-15.5 57q-9 26 -23.5 51.5t-32.5 48.5q-18 21 -38 39t-44 35q-24 14 -49 25t-51 19
q-21 8 -43.5 11t-48.5 3q-74 0 -140 -30q-32 -14 -59 -33t-51 -43t-42 -52t-32 -60zM424 560q2 6 3 12t1 12q0 8 -1 14t-3 12q-3 5 -6 9t-8 9t-9.5 8.5t-10.5 5.5q-12 6 -24 6h-72v-200h28v74h44q6 0 12 1t12 3q12 6 20 14t14 20zM572 648h-124v-200h124v26h-96v60h78v28
h-78v58h96v28zM768 448l-64 86q5 2 9 3t7 5q8 3 14 12q5 6 8 16q2 5 2 9v8q0 8 -0.5 13.5t-3.5 11.5q-2 5 -5.5 9t-6.5 9q-9 9 -18 12q-12 6 -24 6h-72v-200h28v82h30l52 -70q3 -7 10 -10q2 -2 6.5 -2h9.5h18zM902 482q6 12 6 24q0 28 -22 44q-2 2 -4 3t-4 3q-3 2 -5 2t-5 2
q-2 2 -4 2t-6 2q-2 0 -10 4q-5 2 -9 3t-7 3q-5 2 -7 3t-5 3q-4 4 -6 7q-1 3 -1 11q0 6 1 10q2 2 3.5 4t4.5 4q2 0 10 4q4 2 12 2q3 0 5.5 -1t4.5 -1q3 -2 6.5 -3t5.5 -3q8 -4 12 -4q8 0 14 6l6 4q-2 3 -4.5 5t-5.5 5t-6 5t-6 5q-3 2 -7 3t-9 3q-8 4 -16 4q-6 0 -11 -1
t-11 -3t-10.5 -4.5t-9.5 -5.5q-3 -3 -6 -7t-6 -9q-6 -9 -6 -22q0 -8 1.5 -12.5t4.5 -9.5q3 -10 12 -16q7 -7 18 -10q5 -3 9.5 -5t10.5 -5q3 -2 6 -2.5t8 -1.5q3 -2 6.5 -3t5.5 -3q3 -3 5.5 -5t4.5 -5t3 -6t1 -8q0 -6 -4 -14q-3 -7 -10 -10q-2 -3 -5.5 -4.5t-6.5 -3.5
q-5 0 -8 -1t-8 -1q-3 0 -7 1t-7 1q-8 4 -11 8l-3 2q-6 6 -16 6q-7 0 -10 -4l-8 -2q2 -2 2 -3t2 -1q0 -2 1 -3t1 -3q4 -4 5 -6q4 -5 7 -5q9 -10 19.5 -13.5t24.5 -3.5q8 0 14 0.5t14 3.5q11 3 20 13q11 9 16 19zM1132 520q2 8 2 13.5v12.5v15t-2 13q-3 8 -5 14t-7 12
q-3 5 -7 10t-7 10q-6 5 -11 8t-11 8q-6 3 -12 5.5t-12 4.5q-8 2 -14 3t-14 1q-6 0 -13 -1t-13 -3q-8 -2 -14 -4.5t-12 -5.5q-5 -5 -10 -8t-10 -8t-9 -10t-7 -10q-3 -6 -5.5 -12t-4.5 -14q-2 -6 -3 -13t-1 -15q0 -9 1.5 -19t6.5 -19q5 -11 10.5 -18.5t11.5 -15.5
q8 -6 15.5 -11.5t16.5 -8.5q19 -8 40 -8h14t14 2q6 3 12 5t12 7q10 5 22 14q3 5 7 10.5t7 11.5q5 6 7 12t5 12zM1342 648h-28v-156q0 5 -1 8t-3 6l-98 134q-4 4 -8 6q-3 0 -6 1t-6 1h-20v-200h28v168v-4q2 -2 2 -3v-1q0 -2 1 -3q0 -1 1 -1l114 -156h24v200zM1562 448
l-86 200h-28l-88 -200h16q8 0 11 2q7 5 9 10l14 32h102l14 -32q4 -8 8 -10q2 -2 5.5 -2h6.5h16zM1696 474h-86v174h-28v-200h114v26zM1972 648h-28v-122q0 -6 -1 -11t-3 -11q-3 -5 -5 -9t-7 -7q-3 -5 -7 -7t-8 -5q-7 -2 -12 -3t-11 -1q-5 0 -10 1t-10 3q-5 3 -9 5t-7 7
q-9 6 -12 16q-2 6 -3 11t-1 11v122h-28v-122q0 -6 0.5 -11.5t2.5 -10.5q1 -6 3 -10.5t4 -9.5q3 -5 6 -9t8 -7q3 -3 7 -6t9 -6t10 -4.5t10 -3.5t10 -3t10 -1q6 0 12 1t11 3q12 3 19 8q5 3 8 6t8 6q3 3 6 7t6 9q5 7 8 20q2 5 3 10.5t1 11.5v122zM2126 482q3 6 3.5 12t0.5 12
q0 30 -20 44q-4 2 -8 6q-3 2 -5 2t-5 2q-4 2 -5.5 2t-4.5 2q-3 0 -5 1t-5 3q-5 2 -9 3t-7 3q-9 3 -12 6q-6 3 -6 7q-2 3 -2 11q0 6 2 10q2 2 3.5 4t4.5 4q2 0 10 4q4 2 12 2q3 0 5 -1t5 -1l12 -6q8 -4 12 -4q6 0 12 6l8 4q-2 3 -4.5 5t-5.5 5t-6 5t-6 5q-3 2 -7 3t-9 3t-8 3
t-8 1q-6 0 -11.5 -1t-10.5 -3q-6 -2 -10.5 -4.5t-9.5 -5.5q-3 -3 -6.5 -7t-5.5 -9q-6 -9 -6 -22q0 -8 1.5 -12.5t3.5 -9.5q5 -11 13 -16q7 -7 16 -10q6 -3 11 -5t11 -5q3 -2 6 -2.5t8 -1.5l12 -6q3 -3 5.5 -5t4.5 -5t3 -6t1 -8q0 -6 -4 -14q-3 -7 -10 -10q-5 -5 -14 -8
q-3 0 -7 -1t-7 -1q-5 0 -8 1t-6 1q-10 3 -12 8l-2 2q-6 6 -16 6q-8 0 -10 -4l-8 -2q0 -2 1 -3q0 -1 1 -1q2 -2 2 -3t2 -3q4 -4 4 -6q4 -5 8 -5q9 -10 19.5 -13.5t24.5 -3.5q8 0 14 0.5t11 3.5q15 3 23 13q11 9 16 19zM2290 648h-124v-200h124v26h-98v60h78v28h-78v58h98v28z
M2604 520q2 8 3 13.5t1 12.5q0 8 -1 15t-3 13q-2 8 -4.5 14t-5.5 12q-3 5 -7 10t-9 10t-10 8t-10 8q-6 3 -12 5.5t-14 4.5q-6 2 -13 3t-13 1q-8 0 -14.5 -1t-13.5 -3q-6 -2 -12 -4.5t-12 -5.5q-6 -5 -11 -8t-11 -8q-5 -5 -8 -10t-8 -10q-3 -6 -5 -12t-5 -14q-2 -6 -2 -13
v-15q0 -9 1.5 -19t6.5 -19q3 -11 8.5 -18.5t11.5 -15.5q8 -6 16.5 -11.5t17.5 -8.5q16 -8 40 -8h13t13 2q8 3 14 5t12 7l10 6t10 8q10 10 16 22q3 6 5.5 12t4.5 12zM2814 648h-28v-156q0 5 -1 8t-3 6l-98 134q-4 4 -8 6q-2 0 -4.5 1t-7.5 1h-20v-200h28v168q2 -2 2 -3v-1
q0 -4 2 -4q0 -4 2 -4l114 -156h22v200zM2978 474h-88v174h-26v-200h114v26zM3136 648h-18q-10 0 -14 -4q-3 -2 -5.5 -5t-4.5 -5l-48 -64q-1 0 -2 -1v-1q0 -1 -0.5 -1.5t-0.5 -1.5l-1 -1v4v1l-2 1l-46 64q-3 2 -5.5 5t-4.5 5q-5 2 -8 3t-8 1h-18l72 -98l1 -1q0 -1 0.5 -1.5
t0.5 -1.5q2 -2 2 -3t2 -1v-5v-5v-84h28v84q0 2 1 3t1 2v2q0 1 2 3v1q0 1 2 3q0 4 4 4zM1590 787q-27 11 -51 26t-47 33h424q-23 -18 -47 -33t-51 -26q-26 -10 -55 -15.5t-59 -5.5q-31 0 -59.5 5.5t-54.5 15.5zM1528 880l412 416q78 -102 78 -214q0 -29 -4 -55.5t-14 -52.5
q-9 -26 -22 -48.5t-30 -45.5h-420zM1468 870q-20 23 -34.5 47t-23.5 51q-11 26 -15.5 55t-4.5 59q0 57 18 108q8 26 21 48.5t31 45.5h418zM1818 1378q54 -24 96 -60h-422q21 20 45.5 34.5t49.5 25.5q53 20 117 20q30 0 59 -4.5t55 -15.5zM136 116q-7 10 -10 21q-2 7 -3 13
t-1 12t1 12t3 12t4.5 12t5.5 12q3 5 6 9t8 9q8 8 20 14q11 7 22 10q6 2 12 3t12 1q11 0 20 -2.5t18 -5.5q8 -5 15 -9.5t13 -10.5q0 -2 -1 -2t-3 -2l-2 -2q-2 -2 -3 -2h-1h-6h-4t-4 2q-5 3 -9.5 5.5t-10.5 4.5q-5 2 -10.5 2h-11.5q-8 0 -15 -1t-14 -3q-12 -7 -21 -16
q-6 -5 -9.5 -10.5t-6.5 -13.5q-6 -12 -6 -28v-9t2 -9q2 -10 8 -18q3 -5 6 -8t6 -8q6 -6 14 -10q5 -3 9 -4.5t9 -3.5t9.5 -2h10.5h12t12 2t11 4.5l11 5.5v38h-14q-2 0 -4 1t-4 1q-2 2 -3 2t-3 2q0 2 -1 3t-1 3q-2 2 -2 6v2h50v-70q-3 -5 -6 -7t-8 -5q-3 -2 -6 -3t-8 -1
q-5 -2 -9 -3t-9 -1h-20h-12t-12 2q-11 3 -22 10q-12 6 -20 14t-14 20zM348 232v-58h72v-20h-72v-62h90v-20h-110v182h110v-22h-90zM518 72v160h-58v22h138v-22h-58v-160h-22zM732 232v-62h76v-20h-76v-78h-20v182h110v-22h-90zM878 254v-112q0 -6 0.5 -10.5t3.5 -9.5
q2 -6 4.5 -9.5t5.5 -8.5q5 -3 8.5 -5.5t9.5 -4.5q5 -3 9.5 -3.5t10.5 -0.5t10.5 0.5t9.5 3.5q11 4 16 10q5 5 7 8.5t5 9.5q2 5 3 9.5t1 10.5v112h20v-112q0 -16 -6 -28q-3 -8 -6 -13.5t-8 -10.5q-6 -5 -12 -9t-12 -7q-6 -2 -13 -3t-15 -1t-15 1t-13 3q-13 5 -24 16
q-5 5 -9 10.5t-6 13.5q-4 6 -4.5 13t-0.5 15v112h20zM1062 254v-162h80v-20h-102v182h22zM1186 254v-162h80v-20h-100v182h20zM1432 72l-78 182h10q3 0 5 -1t5 -3q2 -2 4 -3.5t2 -4.5l60 -136q0 -2 1 -3t1 -3v-6v6q2 2 2 6q8 17 15 34t15 34q8 18 15 34.5t15 33.5q2 4 6 8
q8 4 10 4h12q-11 -23 -21 -46t-19 -46q-11 -23 -20 -45t-20 -45h-20zM1568 232v-58h72v-20h-72v-62h90v-20h-112v182h112v-22h-90zM1794 156q-5 -2 -8 -3t-8 -3l58 -78h-12q-8 0 -11 2q-6 2 -9 8l-52 68h-30v-78h-22v182h66q5 0 10 -1t10 -3q5 -3 9 -6t7 -6t6 -7t6 -9
q2 -5 3 -10t1 -10t-1 -9t-3 -9q-2 -10 -8 -16zM1766 170q8 0 12 2q3 2 5 3t5 3q2 3 3 5t3 4q2 4 3 7t1 8q0 4 -4 12q-2 3 -3 5t-3 5q-3 2 -5 3t-5 3q-4 2 -12 2h-44v-62h44zM1932 98q7 3 10 10q4 10 4 14q0 9 -4 15q-3 6 -8 9q-4 4 -12 8q-4 0 -14 4q-6 2 -10.5 4t-9.5 4
q-9 3 -16 10q-3 2 -5.5 5.5t-3.5 5.5q-2 5 -3.5 10t-1.5 11q0 11 6 20q3 8 12 14q7 7 16 10q5 2 10.5 3t10.5 1q2 0 6 -1t7 -1q5 -2 8 -3t6 -3q3 -3 5.5 -4.5t4.5 -3.5l8 -8l-4 -4q-4 -4 -10 -4q-8 0 -10 2t-3 2t-3 2q-2 0 -2 1t-2 1t-3 1t-3 1h-5h-8t-7 -2q-3 0 -5 -1
t-5 -3q-2 -3 -4 -5t-2 -5q-4 -4 -4 -10q0 -8 2 -10q2 -4 6 -8q5 -4 12 -6q3 -2 7 -3t9 -3q3 -2 5 -2t5 -2q4 0 8 -4q3 0 5 -1t5 -3q2 0 6 -4l8 -8t7 -8q1 -7 2 -11.5t1 -12.5q0 -6 -1 -11t-2 -11q-4 -5 -7 -9.5t-8 -6.5q-7 -7 -20 -10q-5 -3 -10.5 -3.5t-11.5 -0.5
q-26 0 -40 14q-2 2 -5 4.5t-5 5.5q-4 4 -4 8l4 2l1 1q1 0 1.5 0.5t1.5 0.5h4q8 0 12 -4q3 -5 7 -6.5t7 -3.5q5 -2 8 -2h8h6t8 2q6 0 12 6zM2028 254v-182h-22v182h22zM2098 96q-6 6 -11.5 13.5t-8.5 16.5q-5 8 -6.5 17.5t-1.5 18.5q0 6 1 12t3 12t3.5 12t4.5 12q4 5 7.5 9
t8.5 9t9 8t9 6q10 7 21 10q7 2 13 3t14 1q6 0 12 -1t11 -3q12 -3 23 -10q12 -6 20 -14q5 -5 8 -9t6 -9q3 -6 5.5 -12t4.5 -12t2 -12v-12q0 -20 -6 -36q-8 -17 -20 -30q-16 -14 -30 -20q-20 -6 -36 -6q-22 0 -38 6t-28 20zM2096 190q-6 -12 -6 -28q0 -5 1 -9t3 -9
q2 -6 3 -9.5t3 -8.5q3 -5 6 -8t6 -8q6 -6 14 -10q7 -5 18 -8q5 -2 9.5 -2h10.5h9t9 2q4 2 8.5 3.5t9.5 4.5q5 2 8 4.5t6 5.5q5 5 7 8t5 8q6 8 8 18q2 5 2 9v9q0 16 -6 28q-3 8 -6.5 13.5t-9.5 10.5q-10 10 -22 16q-6 2 -13 3t-15 1t-15 -1t-15 -3q-12 -6 -22 -16
q-5 -5 -9 -10.5t-7 -13.5zM2310 72h-20v182h14q13 0 16 -8l94 -132q2 -1 2 -2.5t2 -3.5v-4v150h22v-182h-20l-106 150l-2 2v2q0 2 -2 4v-158zM2592 232v-62h76v-20h-76v-78h-20v182h112v-22h-92zM2810 168q-3 -6 -12 -12q-3 -2 -7.5 -3t-8.5 -3l60 -78h-12q-10 0 -14 2
q-2 2 -4 3.5t-4 4.5l-50 68h-32v-78h-20v182h64q6 0 10.5 -1t9.5 -3q6 -3 9.5 -6t6.5 -6q9 -6 12 -16q2 -5 3 -10t1 -10v-9t-2 -9q-3 -9 -10 -16zM2782 172q8 4 10 6q6 6 6 9q2 4 3 7t1 8q0 4 -4 12q0 4 -6 10q-2 2 -10 6q-4 2 -12 2h-44v-62h44q8 0 12 2zM3020 96
q-16 -14 -30 -20q-18 -6 -38 -6q-18 0 -36 6q-15 6 -29 20q-13 11 -19 30q-5 8 -6.5 17.5t-1.5 18.5q0 6 1 12t3 12t3.5 12t6.5 12q2 5 5.5 9t7.5 9t9 8l10 6l11 5.5t11 4.5t12 3t12 1q8 0 14 -1t12 -3q11 -3 22 -10q12 -6 20 -14q5 -5 8 -9t6 -9l4 -12l4 -12q3 -6 3.5 -12
t0.5 -12q0 -9 -2 -18.5t-7 -17.5q-4 -17 -17 -30zM2952 90h10.5t9.5 2t9 3.5t9 4.5q5 2 8 4.5t6 5.5q5 5 7 8t5 8q6 8 8 18q2 5 2 9v9q0 16 -6 28q-3 8 -6.5 13.5t-9.5 10.5q-10 10 -22 16q-8 2 -15 3t-15 1q-6 0 -13 -1t-15 -3q-12 -6 -22 -16q-5 -5 -9 -10.5t-7 -13.5
q-6 -12 -6 -28q0 -5 1 -9t1 -9q2 -6 4 -9.5t4 -8.5q3 -5 6 -8t6 -8q6 -6 14 -10q5 -3 9 -4.5t9 -3.5t9 -2h9zM3252 250q4 4 8 4h18v-182h-20v150h-2v-4v-2q0 -1 -1 -2h-1q-5 -11 -9 -21t-7 -19q-5 -11 -9 -19t-7 -18q-5 -8 -9 -16.5t-7 -16.5q-3 -9 -7 -16.5t-7 -15.5h-22
q-8 17 -15 34.5t-15 35.5q-9 18 -16.5 36t-15.5 36q-2 0 -2 4v4v-150h-20v182h16q4 0 8 -4q6 -3 6 -8l64 -140v-4q2 -2 2 -3v-1v4.5t2 5.5t2 5t1 5l59 128q0 5 6 8zM130 0h210v-24v-14q-2 -3 -3 -6t-3 -6l-142 -188q2 0 4 2q2 0 4 2h4h136v-50h-218v16q0 4 1 7.5t1 6.5
q2 3 2 6t2 6l6 12q4 3 8 10l126 170h-138v50zM376 0h182v-50h-130v-66h104v-50h-104v-68h130v-50h-182v284zM786 -50h-84v-234h-52v234h-82v50h218v-50zM914 0l122 -284h-32q-11 0 -20 6q-5 3 -8 7l-6 8l-16 39h-128l-18 -39q0 -3 -4 -7q-2 -3 -4 -4.5t-4 -3.5q-3 -2 -5 -3
t-5 -1q-3 -2 -5.5 -2h-4.5h-34l124 284h48zM932 -172l-38 86q-2 3 -2 5.5t-2 4.5v8q0 -4 -2 -8q0 -2 -1 -4.5t-1 -5.5l-38 -86h84zM1048 0h182v-50h-130v-72h108v-50h-108v-112h-52v284zM1516 -70q5 -8 8.5 -16.5t5.5 -17.5q6 -18 6 -38t-6 -38q-2 -9 -5.5 -18t-8.5 -18
q-9 -15 -22 -28q-6 -6 -13.5 -11.5t-16.5 -10.5q-8 -6 -16.5 -9.5t-17.5 -6.5q-9 -2 -18 -3t-20 -1q-15 0 -29.5 2.5t-26.5 7.5q-14 6 -25.5 13.5t-20.5 18.5q-21 21 -32 46q-6 14 -8 27t-2 29q0 9 0.5 19t3.5 19t6 17.5t8 16.5q5 9 10.5 15.5t13.5 14.5q13 13 28 22
q9 4 17 8.5t17 7.5q11 2 20 3t20 1t20 -1t18 -3q9 -3 17.5 -7.5t16.5 -8.5q9 -5 16.5 -10.5t13.5 -11.5q6 -8 11.5 -14.5t10.5 -15.5zM1478 -178q6 18 6 36t-6 36q-5 9 -9.5 15.5t-10.5 14.5q-8 6 -15.5 10t-14.5 8q-16 8 -36 8q-23 0 -36 -8q-9 -4 -16.5 -8t-13.5 -10
q-6 -8 -10.5 -14.5t-9.5 -15.5q-3 -9 -5.5 -18t-2.5 -18t2.5 -18t5.5 -18q10 -20 20 -30q6 -6 13.5 -10.5t16.5 -9.5q15 -6 36 -6q18 0 36 6q7 5 14.5 9.5t15.5 10.5q6 6 10.5 13.5t9.5 16.5zM1772 0h52v-284h-48l-134 190q-4 4 -4 6q-2 4 -6 8q0 2 -4 6q0 2 -1 3t-1 3v-216
h-52v284h46q8 0 16 -4t10 -9q15 -20 30 -41l30 -42t29.5 -41.5t28.5 -40.5q6 -6 6 -12q2 -3 2 -5.5v-4.5v200zM1848 0h218v-50h-82v-234h-52v234h-84v50zM2246 -146q9 -9 12 -22q6 -12 6 -28q0 -11 -2.5 -19.5t-5.5 -16.5q-5 -9 -10.5 -16.5t-11.5 -14.5q-15 -11 -34 -17
q-20 -6 -36 -6q-22 0 -40 6q-9 5 -16.5 9.5t-15.5 12.5q-5 5 -8 9t-6 9q-5 8 -8 16q2 0 6 4q4 0 8 4q2 0 4 1t4 1t4 0.5t4 0.5q6 0 12 -3q5 0 8 -1t6 -3q7 -7 16 -10q5 -2 10.5 -3t11.5 -1h7t9 2q3 2 7 3t7 3q9 6 12 13q6 7 6 17q0 5 -1 8t-3 6q-3 3 -6 5.5t-6 4.5
q-8 5 -16 8q-8 1 -18 8q-8 2 -15 4.5t-15 5.5t-14 7t-12 9q-10 10 -16 22q-8 13 -8 32q0 10 2.5 18t5.5 16q10 16 20 24q6 4 13 8.5t14 7.5q8 2 16.5 3t16.5 1q6 0 12 -1t12 -3q13 -3 22 -11q6 -2 10.5 -6t9.5 -9q5 -3 8 -7t6 -9l-10 -8l-6 -4t-8 -4t-8 -2.5t-6 -0.5h-4h-4
q-3 2 -5 2.5t-5 2.5q-2 2 -4.5 2t-3.5 2q-2 0 -3.5 1t-4.5 1q-2 2 -8 2h-6t-8 -2q-6 0 -10 -4q-3 -2 -6 -4.5t-4 -3.5q-2 -4 -2 -12t2 -10q1 -3 4 -5t6 -5q3 -2 7 -3t9 -3t10.5 -4t13.5 -4l8 -4q9 -3 15.5 -6t14.5 -8q14 -7 22 -18zM2332 -234q5 -3 5 -10q2 -2 3.5 -5.5
t1.5 -6.5q0 -5 -5 -12q0 -5 -5 -10q-2 -2 -10 -6q-4 -2 -12 -2t-12 2q-8 4 -11 6q-2 3 -3.5 5t-3.5 5q0 3 -1 6t-1 6t1 6.5t1 5.5q4 8 7 10q4 6 11 6q8 4 12 4t12 -4q7 0 10 -6zM2440 -76q-8 -8 -12.5 -14.5t-7.5 -15.5q-8 -16 -8 -36t8 -36q6 -19 20 -30q6 -6 13.5 -10.5
t16.5 -9.5q15 -6 34 -6q8 0 15 1t13 3q14 3 26 12q2 2 4 2t4 2q3 1 5.5 1h4.5q8 0 16 -3q8 -4 12 -8l12 -10q-6 -6 -12 -11.5t-12 -10.5t-13 -9t-13 -7q-8 -5 -15 -6.5t-15 -3.5q-8 -3 -15.5 -3.5t-16.5 -0.5q-14 0 -28 2.5t-28 7.5q-25 11 -46 32q-9 11 -16.5 21.5
t-13.5 24.5q-12 27 -12 56q0 20 6 38q2 9 5.5 17.5t8.5 16.5q5 9 10.5 15.5t11.5 14.5q8 6 14.5 11.5t15.5 10.5q8 4 16.5 8.5t17.5 7.5q11 2 20 3t18 1t16.5 -0.5t15.5 -3.5q13 -3 30 -11q12 -5 26 -15q6 -5 12 -10.5t12 -11.5l-12 -13q-4 -3 -12 -7q-5 -2 -16 -2
q-9 0 -18 6q-6 2 -12 5.5t-14 6.5q-6 2 -13 3t-15 1q-9 0 -17.5 -1.5t-16.5 -6.5q-9 -4 -16.5 -8t-13.5 -10zM2904 -70q5 -8 8.5 -16.5t5.5 -17.5q6 -18 6 -38t-6 -38q-2 -9 -5.5 -18t-8.5 -18q-9 -15 -22 -28q-8 -6 -14.5 -11.5t-15.5 -10.5q-8 -6 -16.5 -9.5t-17.5 -6.5
q-9 -2 -19 -3t-19 -1q-15 0 -29.5 2.5t-28.5 7.5q-12 6 -23.5 13.5t-20.5 18.5q-21 21 -32 46q-7 14 -9.5 27t-2.5 29q0 20 6 38q3 9 6 17.5t8 16.5q5 9 10.5 15.5t13.5 14.5q13 13 28 22q9 4 17 8.5t17 7.5q11 2 20 3t20 1q9 0 19 -1t19 -3q9 -3 17.5 -7.5t16.5 -8.5
q9 -5 15.5 -10.5t14.5 -11.5q6 -8 11.5 -14.5t10.5 -15.5zM2866 -178q6 18 6 36t-6 36q-5 9 -9.5 15.5t-10.5 14.5q-8 6 -15 10t-15 8q-16 8 -36 8q-23 0 -36 -8q-9 -4 -16.5 -8t-13.5 -10q-6 -8 -11.5 -14.5t-8.5 -15.5q-5 -9 -6.5 -18t-1.5 -18t1.5 -18t6.5 -18
q3 -9 8.5 -16.5t11.5 -13.5t13.5 -10.5t16.5 -9.5q15 -6 36 -6q18 0 36 6q8 5 15 9.5t15 10.5q6 6 10.5 13.5t9.5 16.5zM3216 -2q2 0 4.5 1t5.5 1h52v-284h-52v208q-2 -3 -3 -6t-1 -8q-2 -5 -3 -8t-3 -6l-36 -90q-9 -23 -18 -45t-20 -45h-46l-74 180q-2 3 -3 6t-3 8
q0 4 -4 12v-206h-52v284h52q3 0 6 -1t6 -1q2 -2 4 -2t4 -2q3 -2 4.5 -4.5t3.5 -3.5q2 -2 3 -4t3 -4q9 -23 17 -44t17 -42q9 -23 17.5 -44t16.5 -42q2 -2 2 -6q0 -2 1 -3t1 -3v-7v-1l2 1v7q0 4 2 6v6l10 20l60 152q0 5 6 8q3 5 8 8q2 2 5 2t5 2z" />
    <glyph glyph-name="two" unicode="2" horiz-adv-x="3492" 
d="M2558 600q6 -5 9.5 -10.5t6.5 -13.5q6 -12 6 -30q0 -13 -6 -28q-3 -6 -6.5 -12t-9.5 -12q-5 -5 -10.5 -9t-13.5 -7q-12 -6 -28 -6q-9 0 -15.5 1.5t-14.5 4.5q-6 3 -12 7t-12 9q-5 6 -9 12t-7 12q-6 15 -6 28q0 18 6 30q3 8 7 13.5t9 10.5q6 6 12 9.5t12 6.5q8 3 14.5 4.5
t15.5 1.5q16 0 28 -6q8 -3 13.5 -6.5t10.5 -9.5zM716 576q-2 -2 -3.5 -4.5t-4.5 -5.5q-2 -2 -10 -6q-4 -2 -12 -2h-44v62h44q4 0 12 -4q7 0 10 -6q3 -2 4.5 -4t3.5 -4q0 -3 1 -6.5t1 -8.5q0 -2 -1 -5t-1 -6zM1086 600q11 -11 16 -24q6 -12 6 -30q0 -13 -6 -28q-3 -6 -7 -12
t-9 -12q-6 -5 -12 -9t-12 -7q-15 -6 -30 -6t-28 6q-13 5 -24 16q-6 6 -9.5 12t-6.5 12q-6 15 -6 28q0 18 6 30q3 8 6.5 13.5t9.5 10.5q5 6 10.5 9.5t13.5 6.5q13 6 28 6t30 -6q6 -3 12 -6.5t12 -9.5zM1462 616q0 -10 2 -12l36 -84h-78l36 84q2 2 2 4t1 4t1 4zM390 610
q4 -4 8 -12q2 -4 2 -14v-7t-2 -7q-4 -8 -8 -10q-4 -5 -10 -8q-5 -2 -8 -3t-6 -1h-44v72h44q3 0 6 -1t8 -3q3 0 5.5 -2t4.5 -4zM3278 1084v-766h-3148v766h1194q0 79 30 150q31 71 82 122q53 50 122 80t146 30q85 0 152 -32q69 -33 120 -84q50 -53 80 -122t30 -144h1192z
M1380 1216q-12 -32 -19 -65t-7 -69q0 -69 28 -134q14 -32 32 -60t42 -52q45 -48 110 -76q63 -30 138 -30q71 0 136 28q63 27 112 76q24 23 42.5 50.5t33.5 59.5q26 64 26 138q0 33 -4.5 63t-15.5 57q-9 26 -23.5 51.5t-32.5 48.5q-18 21 -38 39t-44 35q-24 14 -49 25t-51 19
q-21 8 -43.5 11t-48.5 3q-74 0 -140 -30q-32 -14 -59 -33t-51 -43t-42 -52t-32 -60zM424 560q2 6 3 12t1 12q0 8 -1 14t-3 12q-3 5 -6 9t-8 9t-9.5 8.5t-10.5 5.5q-12 6 -24 6h-72v-200h28v74h44q6 0 12 1t12 3q12 6 20 14t14 20zM572 648h-124v-200h124v26h-96v60h78v28
h-78v58h96v28zM768 448l-64 86q5 2 9 3t7 5q8 3 14 12q5 6 8 16q2 5 2 9v8q0 8 -0.5 13.5t-3.5 11.5q-2 5 -5.5 9t-6.5 9q-9 9 -18 12q-12 6 -24 6h-72v-200h28v82h30l52 -70q3 -7 10 -10q2 -2 6.5 -2h9.5h18zM902 482q6 12 6 24q0 28 -22 44q-2 2 -4 3t-4 3q-3 2 -5 2t-5 2
q-2 2 -4 2t-6 2q-2 0 -10 4q-5 2 -9 3t-7 3q-5 2 -7 3t-5 3q-4 4 -6 7q-1 3 -1 11q0 6 1 10q2 2 3.5 4t4.5 4q2 0 10 4q4 2 12 2q3 0 5.5 -1t4.5 -1q3 -2 6.5 -3t5.5 -3q8 -4 12 -4q8 0 14 6l6 4q-2 3 -4.5 5t-5.5 5t-6 5t-6 5q-3 2 -7 3t-9 3q-8 4 -16 4q-6 0 -11 -1
t-11 -3t-10.5 -4.5t-9.5 -5.5q-3 -3 -6 -7t-6 -9q-6 -9 -6 -22q0 -8 1.5 -12.5t4.5 -9.5q3 -10 12 -16q7 -7 18 -10q5 -3 9.5 -5t10.5 -5q3 -2 6 -2.5t8 -1.5q3 -2 6.5 -3t5.5 -3q3 -3 5.5 -5t4.5 -5t3 -6t1 -8q0 -6 -4 -14q-3 -7 -10 -10q-2 -3 -5.5 -4.5t-6.5 -3.5
q-5 0 -8 -1t-8 -1q-3 0 -7 1t-7 1q-8 4 -11 8l-3 2q-6 6 -16 6q-7 0 -10 -4l-8 -2q2 -2 2 -3t2 -1q0 -2 1 -3t1 -3q4 -4 5 -6q4 -5 7 -5q9 -10 19.5 -13.5t24.5 -3.5q8 0 14 0.5t14 3.5q11 3 20 13q11 9 16 19zM1132 520q2 8 2 13.5v12.5v15t-2 13q-3 8 -5 14t-7 12
q-3 5 -7 10t-7 10q-6 5 -11 8t-11 8q-6 3 -12 5.5t-12 4.5q-8 2 -14 3t-14 1q-6 0 -13 -1t-13 -3q-8 -2 -14 -4.5t-12 -5.5q-5 -5 -10 -8t-10 -8t-9 -10t-7 -10q-3 -6 -5.5 -12t-4.5 -14q-2 -6 -3 -13t-1 -15q0 -9 1.5 -19t6.5 -19q5 -11 10.5 -18.5t11.5 -15.5
q8 -6 15.5 -11.5t16.5 -8.5q19 -8 40 -8h14t14 2q6 3 12 5t12 7q10 5 22 14q3 5 7 10.5t7 11.5q5 6 7 12t5 12zM1342 648h-28v-156q0 5 -1 8t-3 6l-98 134q-4 4 -8 6q-3 0 -6 1t-6 1h-20v-200h28v168v-4q2 -2 2 -3v-1q0 -2 1 -3q0 -1 1 -1l114 -156h24v200zM1562 448
l-86 200h-28l-88 -200h16q8 0 11 2q7 5 9 10l14 32h102l14 -32q4 -8 8 -10q2 -2 5.5 -2h6.5h16zM1696 474h-86v174h-28v-200h114v26zM1972 648h-28v-122q0 -6 -1 -11t-3 -11q-3 -5 -5 -9t-7 -7q-3 -5 -7 -7t-8 -5q-7 -2 -12 -3t-11 -1q-5 0 -10 1t-10 3q-5 3 -9 5t-7 7
q-9 6 -12 16q-2 6 -3 11t-1 11v122h-28v-122q0 -6 0.5 -11.5t2.5 -10.5q1 -6 3 -10.5t4 -9.5q3 -5 6 -9t8 -7q3 -3 7 -6t9 -6t10 -4.5t10 -3.5t10 -3t10 -1q6 0 12 1t11 3q12 3 19 8q5 3 8 6t8 6q3 3 6 7t6 9q5 7 8 20q2 5 3 10.5t1 11.5v122zM2126 482q3 6 3.5 12t0.5 12
q0 30 -20 44q-4 2 -8 6q-3 2 -5 2t-5 2q-4 2 -5.5 2t-4.5 2q-3 0 -5 1t-5 3q-5 2 -9 3t-7 3q-9 3 -12 6q-6 3 -6 7q-2 3 -2 11q0 6 2 10q2 2 3.5 4t4.5 4q2 0 10 4q4 2 12 2q3 0 5 -1t5 -1l12 -6q8 -4 12 -4q6 0 12 6l8 4q-2 3 -4.5 5t-5.5 5t-6 5t-6 5q-3 2 -7 3t-9 3t-8 3
t-8 1q-6 0 -11.5 -1t-10.5 -3q-6 -2 -10.5 -4.5t-9.5 -5.5q-3 -3 -6.5 -7t-5.5 -9q-6 -9 -6 -22q0 -8 1.5 -12.5t3.5 -9.5q5 -11 13 -16q7 -7 16 -10q6 -3 11 -5t11 -5q3 -2 6 -2.5t8 -1.5l12 -6q3 -3 5.5 -5t4.5 -5t3 -6t1 -8q0 -6 -4 -14q-3 -7 -10 -10q-5 -5 -14 -8
q-3 0 -7 -1t-7 -1q-5 0 -8 1t-6 1q-10 3 -12 8l-2 2q-6 6 -16 6q-8 0 -10 -4l-8 -2q0 -2 1 -3q0 -1 1 -1q2 -2 2 -3t2 -3q4 -4 4 -6q4 -5 8 -5q9 -10 19.5 -13.5t24.5 -3.5q8 0 14 0.5t11 3.5q15 3 23 13q11 9 16 19zM2290 648h-124v-200h124v26h-98v60h78v28h-78v58h98v28z
M2604 520q2 8 3 13.5t1 12.5q0 8 -1 15t-3 13q-2 8 -4.5 14t-5.5 12q-3 5 -7 10t-9 10t-10 8t-10 8q-6 3 -12 5.5t-14 4.5q-6 2 -13 3t-13 1q-8 0 -14.5 -1t-13.5 -3q-6 -2 -12 -4.5t-12 -5.5q-6 -5 -11 -8t-11 -8q-5 -5 -8 -10t-8 -10q-3 -6 -5 -12t-5 -14q-2 -6 -2 -13
v-15q0 -9 1.5 -19t6.5 -19q3 -11 8.5 -18.5t11.5 -15.5q8 -6 16.5 -11.5t17.5 -8.5q16 -8 40 -8h13t13 2q8 3 14 5t12 7l10 6t10 8q10 10 16 22q3 6 5.5 12t4.5 12zM2814 648h-28v-156q0 5 -1 8t-3 6l-98 134q-4 4 -8 6q-2 0 -4.5 1t-7.5 1h-20v-200h28v168q2 -2 2 -3v-1
q0 -4 2 -4q0 -4 2 -4l114 -156h22v200zM2978 474h-88v174h-26v-200h114v26zM3136 648h-18q-10 0 -14 -4q-3 -2 -5.5 -5t-4.5 -5l-48 -64q-1 0 -2 -1v-1q0 -1 -0.5 -1.5t-0.5 -1.5l-1 -1v4v1l-2 1l-46 64q-3 2 -5.5 5t-4.5 5q-5 2 -8 3t-8 1h-18l72 -98l1 -1q0 -1 0.5 -1.5
t0.5 -1.5q2 -2 2 -3t2 -1v-5v-5v-84h28v84q0 2 1 3t1 2v2q0 1 2 3v1q0 1 2 3q0 4 4 4zM1590 787q-27 11 -51 26t-47 33h424q-23 -18 -47 -33t-51 -26q-26 -10 -55 -15.5t-59 -5.5q-31 0 -59.5 5.5t-54.5 15.5zM1528 880l412 416q78 -102 78 -214q0 -29 -4 -55.5t-14 -52.5
q-9 -26 -22 -48.5t-30 -45.5h-420zM1468 870q-20 23 -34.5 47t-23.5 51q-11 26 -15.5 55t-4.5 59q0 57 18 108q8 26 21 48.5t31 45.5h418zM1818 1378q54 -24 96 -60h-422q21 20 45.5 34.5t49.5 25.5q53 20 117 20q30 0 59 -4.5t55 -15.5zM136 116q-7 10 -10 21q-2 7 -3 13
t-1 12t1 12t3 12t4.5 12t5.5 12q3 5 6 9t8 9q8 8 20 14q11 7 22 10q6 2 12 3t12 1q11 0 20 -2.5t18 -5.5q8 -5 15 -9.5t13 -10.5q0 -2 -1 -2t-3 -2l-2 -2q-2 -2 -3 -2h-1h-6h-4t-4 2q-5 3 -9.5 5.5t-10.5 4.5q-5 2 -10.5 2h-11.5q-8 0 -15 -1t-14 -3q-12 -7 -21 -16
q-6 -5 -9.5 -10.5t-6.5 -13.5q-6 -12 -6 -28v-9t2 -9q2 -10 8 -18q3 -5 6 -8t6 -8q6 -6 14 -10q5 -3 9 -4.5t9 -3.5t9.5 -2h10.5h12t12 2t11 4.5l11 5.5v38h-14q-2 0 -4 1t-4 1q-2 2 -3 2t-3 2q0 2 -1 3t-1 3q-2 2 -2 6v2h50v-70q-3 -5 -6 -7t-8 -5q-3 -2 -6 -3t-8 -1
q-5 -2 -9 -3t-9 -1h-20h-12t-12 2q-11 3 -22 10q-12 6 -20 14t-14 20zM348 232v-58h72v-20h-72v-62h90v-20h-110v182h110v-22h-90zM518 72v160h-58v22h138v-22h-58v-160h-22zM732 232v-62h76v-20h-76v-78h-20v182h110v-22h-90zM878 254v-112q0 -6 0.5 -10.5t3.5 -9.5
q2 -6 4.5 -9.5t5.5 -8.5q5 -3 8.5 -5.5t9.5 -4.5q5 -3 9.5 -3.5t10.5 -0.5t10.5 0.5t9.5 3.5q11 4 16 10q5 5 7 8.5t5 9.5q2 5 3 9.5t1 10.5v112h20v-112q0 -16 -6 -28q-3 -8 -6 -13.5t-8 -10.5q-6 -5 -12 -9t-12 -7q-6 -2 -13 -3t-15 -1t-15 1t-13 3q-13 5 -24 16
q-5 5 -9 10.5t-6 13.5q-4 6 -4.5 13t-0.5 15v112h20zM1062 254v-162h80v-20h-102v182h22zM1186 254v-162h80v-20h-100v182h20zM1432 72l-78 182h10q3 0 5 -1t5 -3q2 -2 4 -3.5t2 -4.5l60 -136q0 -2 1 -3t1 -3v-6v6q2 2 2 6q8 17 15 34t15 34q8 18 15 34.5t15 33.5q2 4 6 8
q8 4 10 4h12q-11 -23 -21 -46t-19 -46q-11 -23 -20 -45t-20 -45h-20zM1568 232v-58h72v-20h-72v-62h90v-20h-112v182h112v-22h-90zM1794 156q-5 -2 -8 -3t-8 -3l58 -78h-12q-8 0 -11 2q-6 2 -9 8l-52 68h-30v-78h-22v182h66q5 0 10 -1t10 -3q5 -3 9 -6t7 -6t6 -7t6 -9
q2 -5 3 -10t1 -10t-1 -9t-3 -9q-2 -10 -8 -16zM1766 170q8 0 12 2q3 2 5 3t5 3q2 3 3 5t3 4q2 4 3 7t1 8q0 4 -4 12q-2 3 -3 5t-3 5q-3 2 -5 3t-5 3q-4 2 -12 2h-44v-62h44zM1932 98q7 3 10 10q4 10 4 14q0 9 -4 15q-3 6 -8 9q-4 4 -12 8q-4 0 -14 4q-6 2 -10.5 4t-9.5 4
q-9 3 -16 10q-3 2 -5.5 5.5t-3.5 5.5q-2 5 -3.5 10t-1.5 11q0 11 6 20q3 8 12 14q7 7 16 10q5 2 10.5 3t10.5 1q2 0 6 -1t7 -1q5 -2 8 -3t6 -3q3 -3 5.5 -4.5t4.5 -3.5l8 -8l-4 -4q-4 -4 -10 -4q-8 0 -10 2t-3 2t-3 2q-2 0 -2 1t-2 1t-3 1t-3 1h-5h-8t-7 -2q-3 0 -5 -1
t-5 -3q-2 -3 -4 -5t-2 -5q-4 -4 -4 -10q0 -8 2 -10q2 -4 6 -8q5 -4 12 -6q3 -2 7 -3t9 -3q3 -2 5 -2t5 -2q4 0 8 -4q3 0 5 -1t5 -3q2 0 6 -4l8 -8t7 -8q1 -7 2 -11.5t1 -12.5q0 -6 -1 -11t-2 -11q-4 -5 -7 -9.5t-8 -6.5q-7 -7 -20 -10q-5 -3 -10.5 -3.5t-11.5 -0.5
q-26 0 -40 14q-2 2 -5 4.5t-5 5.5q-4 4 -4 8l4 2l1 1q1 0 1.5 0.5t1.5 0.5h4q8 0 12 -4q3 -5 7 -6.5t7 -3.5q5 -2 8 -2h8h6t8 2q6 0 12 6zM2028 254v-182h-22v182h22zM2098 96q-6 6 -11.5 13.5t-8.5 16.5q-5 8 -6.5 17.5t-1.5 18.5q0 6 1 12t3 12t3.5 12t4.5 12q4 5 7.5 9
t8.5 9t9 8t9 6q10 7 21 10q7 2 13 3t14 1q6 0 12 -1t11 -3q12 -3 23 -10q12 -6 20 -14q5 -5 8 -9t6 -9q3 -6 5.5 -12t4.5 -12t2 -12v-12q0 -20 -6 -36q-8 -17 -20 -30q-16 -14 -30 -20q-20 -6 -36 -6q-22 0 -38 6t-28 20zM2096 190q-6 -12 -6 -28q0 -5 1 -9t3 -9
q2 -6 3 -9.5t3 -8.5q3 -5 6 -8t6 -8q6 -6 14 -10q7 -5 18 -8q5 -2 9.5 -2h10.5h9t9 2q4 2 8.5 3.5t9.5 4.5q5 2 8 4.5t6 5.5q5 5 7 8t5 8q6 8 8 18q2 5 2 9v9q0 16 -6 28q-3 8 -6.5 13.5t-9.5 10.5q-10 10 -22 16q-6 2 -13 3t-15 1t-15 -1t-15 -3q-12 -6 -22 -16
q-5 -5 -9 -10.5t-7 -13.5zM2310 72h-20v182h14q13 0 16 -8l94 -132q2 -1 2 -2.5t2 -3.5v-4v150h22v-182h-20l-106 150l-2 2v2q0 2 -2 4v-158zM2592 232v-62h76v-20h-76v-78h-20v182h112v-22h-92zM2810 168q-3 -6 -12 -12q-3 -2 -7.5 -3t-8.5 -3l60 -78h-12q-10 0 -14 2
q-2 2 -4 3.5t-4 4.5l-50 68h-32v-78h-20v182h64q6 0 10.5 -1t9.5 -3q6 -3 9.5 -6t6.5 -6q9 -6 12 -16q2 -5 3 -10t1 -10v-9t-2 -9q-3 -9 -10 -16zM2782 172q8 4 10 6q6 6 6 9q2 4 3 7t1 8q0 4 -4 12q0 4 -6 10q-2 2 -10 6q-4 2 -12 2h-44v-62h44q8 0 12 2zM3020 96
q-16 -14 -30 -20q-18 -6 -38 -6q-18 0 -36 6q-15 6 -29 20q-13 11 -19 30q-5 8 -6.5 17.5t-1.5 18.5q0 6 1 12t3 12t3.5 12t6.5 12q2 5 5.5 9t7.5 9t9 8l10 6l11 5.5t11 4.5t12 3t12 1q8 0 14 -1t12 -3q11 -3 22 -10q12 -6 20 -14q5 -5 8 -9t6 -9l4 -12l4 -12q3 -6 3.5 -12
t0.5 -12q0 -9 -2 -18.5t-7 -17.5q-4 -17 -17 -30zM2952 90h10.5t9.5 2t9 3.5t9 4.5q5 2 8 4.5t6 5.5q5 5 7 8t5 8q6 8 8 18q2 5 2 9v9q0 16 -6 28q-3 8 -6.5 13.5t-9.5 10.5q-10 10 -22 16q-8 2 -15 3t-15 1q-6 0 -13 -1t-15 -3q-12 -6 -22 -16q-5 -5 -9 -10.5t-7 -13.5
q-6 -12 -6 -28q0 -5 1 -9t1 -9q2 -6 4 -9.5t4 -8.5q3 -5 6 -8t6 -8q6 -6 14 -10q5 -3 9 -4.5t9 -3.5t9 -2h9zM3252 250q4 4 8 4h18v-182h-20v150h-2v-4v-2q0 -1 -1 -2h-1q-5 -11 -9 -21t-7 -19q-5 -11 -9 -19t-7 -18q-5 -8 -9 -16.5t-7 -16.5q-3 -9 -7 -16.5t-7 -15.5h-22
q-8 17 -15 34.5t-15 35.5q-9 18 -16.5 36t-15.5 36q-2 0 -2 4v4v-150h-20v182h16q4 0 8 -4q6 -3 6 -8l64 -140v-4q2 -2 2 -3v-1v4.5t2 5.5t2 5t1 5l59 128q0 5 6 8zM130 0h210v-24v-14q-2 -3 -3 -6t-3 -6l-142 -188q2 0 4 2q2 0 4 2h4h136v-50h-218v16q0 4 1 7.5t1 6.5
q2 3 2 6t2 6l6 12q4 3 8 10l126 170h-138v50zM376 0h182v-50h-130v-66h104v-50h-104v-68h130v-50h-182v284zM786 -50h-84v-234h-52v234h-82v50h218v-50zM914 0l122 -284h-32q-11 0 -20 6q-5 3 -8 7l-6 8l-16 39h-128l-18 -39q0 -3 -4 -7q-2 -3 -4 -4.5t-4 -3.5q-3 -2 -5 -3
t-5 -1q-3 -2 -5.5 -2h-4.5h-34l124 284h48zM932 -172l-38 86q-2 3 -2 5.5t-2 4.5v8q0 -4 -2 -8q0 -2 -1 -4.5t-1 -5.5l-38 -86h84zM1048 0h182v-50h-130v-72h108v-50h-108v-112h-52v284zM1516 -70q5 -8 8.5 -16.5t5.5 -17.5q6 -18 6 -38t-6 -38q-2 -9 -5.5 -18t-8.5 -18
q-9 -15 -22 -28q-6 -6 -13.5 -11.5t-16.5 -10.5q-8 -6 -16.5 -9.5t-17.5 -6.5q-9 -2 -18 -3t-20 -1q-15 0 -29.5 2.5t-26.5 7.5q-14 6 -25.5 13.5t-20.5 18.5q-21 21 -32 46q-6 14 -8 27t-2 29q0 9 0.5 19t3.5 19t6 17.5t8 16.5q5 9 10.5 15.5t13.5 14.5q13 13 28 22
q9 4 17 8.5t17 7.5q11 2 20 3t20 1t20 -1t18 -3q9 -3 17.5 -7.5t16.5 -8.5q9 -5 16.5 -10.5t13.5 -11.5q6 -8 11.5 -14.5t10.5 -15.5zM1478 -178q6 18 6 36t-6 36q-5 9 -9.5 15.5t-10.5 14.5q-8 6 -15.5 10t-14.5 8q-16 8 -36 8q-23 0 -36 -8q-9 -4 -16.5 -8t-13.5 -10
q-6 -8 -10.5 -14.5t-9.5 -15.5q-3 -9 -5.5 -18t-2.5 -18t2.5 -18t5.5 -18q10 -20 20 -30q6 -6 13.5 -10.5t16.5 -9.5q15 -6 36 -6q18 0 36 6q7 5 14.5 9.5t15.5 10.5q6 6 10.5 13.5t9.5 16.5zM1772 0h52v-284h-48l-134 190q-4 4 -4 6q-2 4 -6 8q0 2 -4 6q0 2 -1 3t-1 3v-216
h-52v284h46q8 0 16 -4t10 -9q15 -20 30 -41l30 -42t29.5 -41.5t28.5 -40.5q6 -6 6 -12q2 -3 2 -5.5v-4.5v200zM1848 0h218v-50h-82v-234h-52v234h-84v50zM2246 -146q9 -9 12 -22q6 -12 6 -28q0 -11 -2.5 -19.5t-5.5 -16.5q-5 -9 -10.5 -16.5t-11.5 -14.5q-15 -11 -34 -17
q-20 -6 -36 -6q-22 0 -40 6q-9 5 -16.5 9.5t-15.5 12.5q-5 5 -8 9t-6 9q-5 8 -8 16q2 0 6 4q4 0 8 4q2 0 4 1t4 1t4 0.5t4 0.5q6 0 12 -3q5 0 8 -1t6 -3q7 -7 16 -10q5 -2 10.5 -3t11.5 -1h7t9 2q3 2 7 3t7 3q9 6 12 13q6 7 6 17q0 5 -1 8t-3 6q-3 3 -6 5.5t-6 4.5
q-8 5 -16 8q-8 1 -18 8q-8 2 -15 4.5t-15 5.5t-14 7t-12 9q-10 10 -16 22q-8 13 -8 32q0 10 2.5 18t5.5 16q10 16 20 24q6 4 13 8.5t14 7.5q8 2 16.5 3t16.5 1q6 0 12 -1t12 -3q13 -3 22 -11q6 -2 10.5 -6t9.5 -9q5 -3 8 -7t6 -9l-10 -8l-6 -4t-8 -4t-8 -2.5t-6 -0.5h-4h-4
q-3 2 -5 2.5t-5 2.5q-2 2 -4.5 2t-3.5 2q-2 0 -3.5 1t-4.5 1q-2 2 -8 2h-6t-8 -2q-6 0 -10 -4q-3 -2 -6 -4.5t-4 -3.5q-2 -4 -2 -12t2 -10q1 -3 4 -5t6 -5q3 -2 7 -3t9 -3t10.5 -4t13.5 -4l8 -4q9 -3 15.5 -6t14.5 -8q14 -7 22 -18zM2332 -234q5 -3 5 -10q2 -2 3.5 -5.5
t1.5 -6.5q0 -5 -5 -12q0 -5 -5 -10q-2 -2 -10 -6q-4 -2 -12 -2t-12 2q-8 4 -11 6q-2 3 -3.5 5t-3.5 5q0 3 -1 6t-1 6t1 6.5t1 5.5q4 8 7 10q4 6 11 6q8 4 12 4t12 -4q7 0 10 -6zM2440 -76q-8 -8 -12.5 -14.5t-7.5 -15.5q-8 -16 -8 -36t8 -36q6 -19 20 -30q6 -6 13.5 -10.5
t16.5 -9.5q15 -6 34 -6q8 0 15 1t13 3q14 3 26 12q2 2 4 2t4 2q3 1 5.5 1h4.5q8 0 16 -3q8 -4 12 -8l12 -10q-6 -6 -12 -11.5t-12 -10.5t-13 -9t-13 -7q-8 -5 -15 -6.5t-15 -3.5q-8 -3 -15.5 -3.5t-16.5 -0.5q-14 0 -28 2.5t-28 7.5q-25 11 -46 32q-9 11 -16.5 21.5
t-13.5 24.5q-12 27 -12 56q0 20 6 38q2 9 5.5 17.5t8.5 16.5q5 9 10.5 15.5t11.5 14.5q8 6 14.5 11.5t15.5 10.5q8 4 16.5 8.5t17.5 7.5q11 2 20 3t18 1t16.5 -0.5t15.5 -3.5q13 -3 30 -11q12 -5 26 -15q6 -5 12 -10.5t12 -11.5l-12 -13q-4 -3 -12 -7q-5 -2 -16 -2
q-9 0 -18 6q-6 2 -12 5.5t-14 6.5q-6 2 -13 3t-15 1q-9 0 -17.5 -1.5t-16.5 -6.5q-9 -4 -16.5 -8t-13.5 -10zM2904 -70q5 -8 8.5 -16.5t5.5 -17.5q6 -18 6 -38t-6 -38q-2 -9 -5.5 -18t-8.5 -18q-9 -15 -22 -28q-8 -6 -14.5 -11.5t-15.5 -10.5q-8 -6 -16.5 -9.5t-17.5 -6.5
q-9 -2 -19 -3t-19 -1q-15 0 -29.5 2.5t-28.5 7.5q-12 6 -23.5 13.5t-20.5 18.5q-21 21 -32 46q-7 14 -9.5 27t-2.5 29q0 20 6 38q3 9 6 17.5t8 16.5q5 9 10.5 15.5t13.5 14.5q13 13 28 22q9 4 17 8.5t17 7.5q11 2 20 3t20 1q9 0 19 -1t19 -3q9 -3 17.5 -7.5t16.5 -8.5
q9 -5 15.5 -10.5t14.5 -11.5q6 -8 11.5 -14.5t10.5 -15.5zM2866 -178q6 18 6 36t-6 36q-5 9 -9.5 15.5t-10.5 14.5q-8 6 -15 10t-15 8q-16 8 -36 8q-23 0 -36 -8q-9 -4 -16.5 -8t-13.5 -10q-6 -8 -11.5 -14.5t-8.5 -15.5q-5 -9 -6.5 -18t-1.5 -18t1.5 -18t6.5 -18
q3 -9 8.5 -16.5t11.5 -13.5t13.5 -10.5t16.5 -9.5q15 -6 36 -6q18 0 36 6q8 5 15 9.5t15 10.5q6 6 10.5 13.5t9.5 16.5zM3216 -2q2 0 4.5 1t5.5 1h52v-284h-52v208q-2 -3 -3 -6t-1 -8q-2 -5 -3 -8t-3 -6l-36 -90q-9 -23 -18 -45t-20 -45h-46l-74 180q-2 3 -3 6t-3 8
q0 4 -4 12v-206h-52v284h52q3 0 6 -1t6 -1q2 -2 4 -2t4 -2q3 -2 4.5 -4.5t3.5 -3.5q2 -2 3 -4t3 -4q9 -23 17 -44t17 -42q9 -23 17.5 -44t16.5 -42q2 -2 2 -6q0 -2 1 -3t1 -3v-7v-1l2 1v7q0 4 2 6v6l10 20l60 152q0 5 6 8q3 5 8 8q2 2 5 2t5 2z" />
    <glyph glyph-name="three" unicode="3" horiz-adv-x="3492" 
d="M2558 600q6 -5 9.5 -10.5t6.5 -13.5q6 -12 6 -30q0 -13 -6 -28q-3 -6 -6.5 -12t-9.5 -12q-5 -5 -10.5 -9t-13.5 -7q-12 -6 -28 -6q-9 0 -15.5 1.5t-14.5 4.5q-6 3 -12 7t-12 9q-5 6 -9 12t-7 12q-6 15 -6 28q0 18 6 30q3 8 7 13.5t9 10.5q6 6 12 9.5t12 6.5q8 3 14.5 4.5
t15.5 1.5q16 0 28 -6q8 -3 13.5 -6.5t10.5 -9.5zM716 576q-2 -2 -3.5 -4.5t-4.5 -5.5q-2 -2 -10 -6q-4 -2 -12 -2h-44v62h44q4 0 12 -4q7 0 10 -6q3 -2 4.5 -4t3.5 -4q0 -3 1 -6.5t1 -8.5q0 -2 -1 -5t-1 -6zM1086 600q11 -11 16 -24q6 -12 6 -30q0 -13 -6 -28q-3 -6 -7 -12
t-9 -12q-6 -5 -12 -9t-12 -7q-15 -6 -30 -6t-28 6q-13 5 -24 16q-6 6 -9.5 12t-6.5 12q-6 15 -6 28q0 18 6 30q3 8 6.5 13.5t9.5 10.5q5 6 10.5 9.5t13.5 6.5q13 6 28 6t30 -6q6 -3 12 -6.5t12 -9.5zM1462 616q0 -10 2 -12l36 -84h-78l36 84q2 2 2 4t1 4t1 4zM390 610
q4 -4 8 -12q2 -4 2 -14v-7t-2 -7q-4 -8 -8 -10q-4 -5 -10 -8q-5 -2 -8 -3t-6 -1h-44v72h44q3 0 6 -1t8 -3q3 0 5.5 -2t4.5 -4zM3278 1084v-766h-3148v766h1194q0 79 30 150q31 71 82 122q53 50 122 80t146 30q85 0 152 -32q69 -33 120 -84q50 -53 80 -122t30 -144h1192z
M1380 1216q-12 -32 -19 -65t-7 -69q0 -69 28 -134q14 -32 32 -60t42 -52q45 -48 110 -76q63 -30 138 -30q71 0 136 28q63 27 112 76q24 23 42.5 50.5t33.5 59.5q26 64 26 138q0 33 -4.5 63t-15.5 57q-9 26 -23.5 51.5t-32.5 48.5q-18 21 -38 39t-44 35q-24 14 -49 25t-51 19
q-21 8 -43.5 11t-48.5 3q-74 0 -140 -30q-32 -14 -59 -33t-51 -43t-42 -52t-32 -60zM424 560q2 6 3 12t1 12q0 8 -1 14t-3 12q-3 5 -6 9t-8 9t-9.5 8.5t-10.5 5.5q-12 6 -24 6h-72v-200h28v74h44q6 0 12 1t12 3q12 6 20 14t14 20zM572 648h-124v-200h124v26h-96v60h78v28
h-78v58h96v28zM768 448l-64 86q5 2 9 3t7 5q8 3 14 12q5 6 8 16q2 5 2 9v8q0 8 -0.5 13.5t-3.5 11.5q-2 5 -5.5 9t-6.5 9q-9 9 -18 12q-12 6 -24 6h-72v-200h28v82h30l52 -70q3 -7 10 -10q2 -2 6.5 -2h9.5h18zM902 482q6 12 6 24q0 28 -22 44q-2 2 -4 3t-4 3q-3 2 -5 2t-5 2
q-2 2 -4 2t-6 2q-2 0 -10 4q-5 2 -9 3t-7 3q-5 2 -7 3t-5 3q-4 4 -6 7q-1 3 -1 11q0 6 1 10q2 2 3.5 4t4.5 4q2 0 10 4q4 2 12 2q3 0 5.5 -1t4.5 -1q3 -2 6.5 -3t5.5 -3q8 -4 12 -4q8 0 14 6l6 4q-2 3 -4.5 5t-5.5 5t-6 5t-6 5q-3 2 -7 3t-9 3q-8 4 -16 4q-6 0 -11 -1
t-11 -3t-10.5 -4.5t-9.5 -5.5q-3 -3 -6 -7t-6 -9q-6 -9 -6 -22q0 -8 1.5 -12.5t4.5 -9.5q3 -10 12 -16q7 -7 18 -10q5 -3 9.5 -5t10.5 -5q3 -2 6 -2.5t8 -1.5q3 -2 6.5 -3t5.5 -3q3 -3 5.5 -5t4.5 -5t3 -6t1 -8q0 -6 -4 -14q-3 -7 -10 -10q-2 -3 -5.5 -4.5t-6.5 -3.5
q-5 0 -8 -1t-8 -1q-3 0 -7 1t-7 1q-8 4 -11 8l-3 2q-6 6 -16 6q-7 0 -10 -4l-8 -2q2 -2 2 -3t2 -1q0 -2 1 -3t1 -3q4 -4 5 -6q4 -5 7 -5q9 -10 19.5 -13.5t24.5 -3.5q8 0 14 0.5t14 3.5q11 3 20 13q11 9 16 19zM1132 520q2 8 2 13.5v12.5v15t-2 13q-3 8 -5 14t-7 12
q-3 5 -7 10t-7 10q-6 5 -11 8t-11 8q-6 3 -12 5.5t-12 4.5q-8 2 -14 3t-14 1q-6 0 -13 -1t-13 -3q-8 -2 -14 -4.5t-12 -5.5q-5 -5 -10 -8t-10 -8t-9 -10t-7 -10q-3 -6 -5.5 -12t-4.5 -14q-2 -6 -3 -13t-1 -15q0 -9 1.5 -19t6.5 -19q5 -11 10.5 -18.5t11.5 -15.5
q8 -6 15.5 -11.5t16.5 -8.5q19 -8 40 -8h14t14 2q6 3 12 5t12 7q10 5 22 14q3 5 7 10.5t7 11.5q5 6 7 12t5 12zM1342 648h-28v-156q0 5 -1 8t-3 6l-98 134q-4 4 -8 6q-3 0 -6 1t-6 1h-20v-200h28v168v-4q2 -2 2 -3v-1q0 -2 1 -3q0 -1 1 -1l114 -156h24v200zM1562 448
l-86 200h-28l-88 -200h16q8 0 11 2q7 5 9 10l14 32h102l14 -32q4 -8 8 -10q2 -2 5.5 -2h6.5h16zM1696 474h-86v174h-28v-200h114v26zM1972 648h-28v-122q0 -6 -1 -11t-3 -11q-3 -5 -5 -9t-7 -7q-3 -5 -7 -7t-8 -5q-7 -2 -12 -3t-11 -1q-5 0 -10 1t-10 3q-5 3 -9 5t-7 7
q-9 6 -12 16q-2 6 -3 11t-1 11v122h-28v-122q0 -6 0.5 -11.5t2.5 -10.5q1 -6 3 -10.5t4 -9.5q3 -5 6 -9t8 -7q3 -3 7 -6t9 -6t10 -4.5t10 -3.5t10 -3t10 -1q6 0 12 1t11 3q12 3 19 8q5 3 8 6t8 6q3 3 6 7t6 9q5 7 8 20q2 5 3 10.5t1 11.5v122zM2126 482q3 6 3.5 12t0.5 12
q0 30 -20 44q-4 2 -8 6q-3 2 -5 2t-5 2q-4 2 -5.5 2t-4.5 2q-3 0 -5 1t-5 3q-5 2 -9 3t-7 3q-9 3 -12 6q-6 3 -6 7q-2 3 -2 11q0 6 2 10q2 2 3.5 4t4.5 4q2 0 10 4q4 2 12 2q3 0 5 -1t5 -1l12 -6q8 -4 12 -4q6 0 12 6l8 4q-2 3 -4.5 5t-5.5 5t-6 5t-6 5q-3 2 -7 3t-9 3t-8 3
t-8 1q-6 0 -11.5 -1t-10.5 -3q-6 -2 -10.5 -4.5t-9.5 -5.5q-3 -3 -6.5 -7t-5.5 -9q-6 -9 -6 -22q0 -8 1.5 -12.5t3.5 -9.5q5 -11 13 -16q7 -7 16 -10q6 -3 11 -5t11 -5q3 -2 6 -2.5t8 -1.5l12 -6q3 -3 5.5 -5t4.5 -5t3 -6t1 -8q0 -6 -4 -14q-3 -7 -10 -10q-5 -5 -14 -8
q-3 0 -7 -1t-7 -1q-5 0 -8 1t-6 1q-10 3 -12 8l-2 2q-6 6 -16 6q-8 0 -10 -4l-8 -2q0 -2 1 -3q0 -1 1 -1q2 -2 2 -3t2 -3q4 -4 4 -6q4 -5 8 -5q9 -10 19.5 -13.5t24.5 -3.5q8 0 14 0.5t11 3.5q15 3 23 13q11 9 16 19zM2290 648h-124v-200h124v26h-98v60h78v28h-78v58h98v28z
M2604 520q2 8 3 13.5t1 12.5q0 8 -1 15t-3 13q-2 8 -4.5 14t-5.5 12q-3 5 -7 10t-9 10t-10 8t-10 8q-6 3 -12 5.5t-14 4.5q-6 2 -13 3t-13 1q-8 0 -14.5 -1t-13.5 -3q-6 -2 -12 -4.5t-12 -5.5q-6 -5 -11 -8t-11 -8q-5 -5 -8 -10t-8 -10q-3 -6 -5 -12t-5 -14q-2 -6 -2 -13
v-15q0 -9 1.5 -19t6.5 -19q3 -11 8.5 -18.5t11.5 -15.5q8 -6 16.5 -11.5t17.5 -8.5q16 -8 40 -8h13t13 2q8 3 14 5t12 7l10 6t10 8q10 10 16 22q3 6 5.5 12t4.5 12zM2814 648h-28v-156q0 5 -1 8t-3 6l-98 134q-4 4 -8 6q-2 0 -4.5 1t-7.5 1h-20v-200h28v168q2 -2 2 -3v-1
q0 -4 2 -4q0 -4 2 -4l114 -156h22v200zM2978 474h-88v174h-26v-200h114v26zM3136 648h-18q-10 0 -14 -4q-3 -2 -5.5 -5t-4.5 -5l-48 -64q-1 0 -2 -1v-1q0 -1 -0.5 -1.5t-0.5 -1.5l-1 -1v4v1l-2 1l-46 64q-3 2 -5.5 5t-4.5 5q-5 2 -8 3t-8 1h-18l72 -98l1 -1q0 -1 0.5 -1.5
t0.5 -1.5q2 -2 2 -3t2 -1v-5v-5v-84h28v84q0 2 1 3t1 2v2q0 1 2 3v1q0 1 2 3q0 4 4 4zM1590 787q-27 11 -51 26t-47 33h424q-23 -18 -47 -33t-51 -26q-26 -10 -55 -15.5t-59 -5.5q-31 0 -59.5 5.5t-54.5 15.5zM1528 880l412 416q78 -102 78 -214q0 -29 -4 -55.5t-14 -52.5
q-9 -26 -22 -48.5t-30 -45.5h-420zM1468 870q-20 23 -34.5 47t-23.5 51q-11 26 -15.5 55t-4.5 59q0 57 18 108q8 26 21 48.5t31 45.5h418zM1818 1378q54 -24 96 -60h-422q21 20 45.5 34.5t49.5 25.5q53 20 117 20q30 0 59 -4.5t55 -15.5zM136 116q-7 10 -10 21q-2 7 -3 13
t-1 12t1 12t3 12t4.5 12t5.5 12q3 5 6 9t8 9q8 8 20 14q11 7 22 10q6 2 12 3t12 1q11 0 20 -2.5t18 -5.5q8 -5 15 -9.5t13 -10.5q0 -2 -1 -2t-3 -2l-2 -2q-2 -2 -3 -2h-1h-6h-4t-4 2q-5 3 -9.5 5.5t-10.5 4.5q-5 2 -10.5 2h-11.5q-8 0 -15 -1t-14 -3q-12 -7 -21 -16
q-6 -5 -9.5 -10.5t-6.5 -13.5q-6 -12 -6 -28v-9t2 -9q2 -10 8 -18q3 -5 6 -8t6 -8q6 -6 14 -10q5 -3 9 -4.5t9 -3.5t9.5 -2h10.5h12t12 2t11 4.5l11 5.5v38h-14q-2 0 -4 1t-4 1q-2 2 -3 2t-3 2q0 2 -1 3t-1 3q-2 2 -2 6v2h50v-70q-3 -5 -6 -7t-8 -5q-3 -2 -6 -3t-8 -1
q-5 -2 -9 -3t-9 -1h-20h-12t-12 2q-11 3 -22 10q-12 6 -20 14t-14 20zM348 232v-58h72v-20h-72v-62h90v-20h-110v182h110v-22h-90zM518 72v160h-58v22h138v-22h-58v-160h-22zM732 232v-62h76v-20h-76v-78h-20v182h110v-22h-90zM878 254v-112q0 -6 0.5 -10.5t3.5 -9.5
q2 -6 4.5 -9.5t5.5 -8.5q5 -3 8.5 -5.5t9.5 -4.5q5 -3 9.5 -3.5t10.5 -0.5t10.5 0.5t9.5 3.5q11 4 16 10q5 5 7 8.5t5 9.5q2 5 3 9.5t1 10.5v112h20v-112q0 -16 -6 -28q-3 -8 -6 -13.5t-8 -10.5q-6 -5 -12 -9t-12 -7q-6 -2 -13 -3t-15 -1t-15 1t-13 3q-13 5 -24 16
q-5 5 -9 10.5t-6 13.5q-4 6 -4.5 13t-0.5 15v112h20zM1062 254v-162h80v-20h-102v182h22zM1186 254v-162h80v-20h-100v182h20zM1432 72l-78 182h10q3 0 5 -1t5 -3q2 -2 4 -3.5t2 -4.5l60 -136q0 -2 1 -3t1 -3v-6v6q2 2 2 6q8 17 15 34t15 34q8 18 15 34.5t15 33.5q2 4 6 8
q8 4 10 4h12q-11 -23 -21 -46t-19 -46q-11 -23 -20 -45t-20 -45h-20zM1568 232v-58h72v-20h-72v-62h90v-20h-112v182h112v-22h-90zM1794 156q-5 -2 -8 -3t-8 -3l58 -78h-12q-8 0 -11 2q-6 2 -9 8l-52 68h-30v-78h-22v182h66q5 0 10 -1t10 -3q5 -3 9 -6t7 -6t6 -7t6 -9
q2 -5 3 -10t1 -10t-1 -9t-3 -9q-2 -10 -8 -16zM1766 170q8 0 12 2q3 2 5 3t5 3q2 3 3 5t3 4q2 4 3 7t1 8q0 4 -4 12q-2 3 -3 5t-3 5q-3 2 -5 3t-5 3q-4 2 -12 2h-44v-62h44zM1932 98q7 3 10 10q4 10 4 14q0 9 -4 15q-3 6 -8 9q-4 4 -12 8q-4 0 -14 4q-6 2 -10.5 4t-9.5 4
q-9 3 -16 10q-3 2 -5.5 5.5t-3.5 5.5q-2 5 -3.5 10t-1.5 11q0 11 6 20q3 8 12 14q7 7 16 10q5 2 10.5 3t10.5 1q2 0 6 -1t7 -1q5 -2 8 -3t6 -3q3 -3 5.5 -4.5t4.5 -3.5l8 -8l-4 -4q-4 -4 -10 -4q-8 0 -10 2t-3 2t-3 2q-2 0 -2 1t-2 1t-3 1t-3 1h-5h-8t-7 -2q-3 0 -5 -1
t-5 -3q-2 -3 -4 -5t-2 -5q-4 -4 -4 -10q0 -8 2 -10q2 -4 6 -8q5 -4 12 -6q3 -2 7 -3t9 -3q3 -2 5 -2t5 -2q4 0 8 -4q3 0 5 -1t5 -3q2 0 6 -4l8 -8t7 -8q1 -7 2 -11.5t1 -12.5q0 -6 -1 -11t-2 -11q-4 -5 -7 -9.5t-8 -6.5q-7 -7 -20 -10q-5 -3 -10.5 -3.5t-11.5 -0.5
q-26 0 -40 14q-2 2 -5 4.5t-5 5.5q-4 4 -4 8l4 2l1 1q1 0 1.5 0.5t1.5 0.5h4q8 0 12 -4q3 -5 7 -6.5t7 -3.5q5 -2 8 -2h8h6t8 2q6 0 12 6zM2028 254v-182h-22v182h22zM2098 96q-6 6 -11.5 13.5t-8.5 16.5q-5 8 -6.5 17.5t-1.5 18.5q0 6 1 12t3 12t3.5 12t4.5 12q4 5 7.5 9
t8.5 9t9 8t9 6q10 7 21 10q7 2 13 3t14 1q6 0 12 -1t11 -3q12 -3 23 -10q12 -6 20 -14q5 -5 8 -9t6 -9q3 -6 5.5 -12t4.5 -12t2 -12v-12q0 -20 -6 -36q-8 -17 -20 -30q-16 -14 -30 -20q-20 -6 -36 -6q-22 0 -38 6t-28 20zM2096 190q-6 -12 -6 -28q0 -5 1 -9t3 -9
q2 -6 3 -9.5t3 -8.5q3 -5 6 -8t6 -8q6 -6 14 -10q7 -5 18 -8q5 -2 9.5 -2h10.5h9t9 2q4 2 8.5 3.5t9.5 4.5q5 2 8 4.5t6 5.5q5 5 7 8t5 8q6 8 8 18q2 5 2 9v9q0 16 -6 28q-3 8 -6.5 13.5t-9.5 10.5q-10 10 -22 16q-6 2 -13 3t-15 1t-15 -1t-15 -3q-12 -6 -22 -16
q-5 -5 -9 -10.5t-7 -13.5zM2310 72h-20v182h14q13 0 16 -8l94 -132q2 -1 2 -2.5t2 -3.5v-4v150h22v-182h-20l-106 150l-2 2v2q0 2 -2 4v-158zM2592 232v-62h76v-20h-76v-78h-20v182h112v-22h-92zM2810 168q-3 -6 -12 -12q-3 -2 -7.5 -3t-8.5 -3l60 -78h-12q-10 0 -14 2
q-2 2 -4 3.5t-4 4.5l-50 68h-32v-78h-20v182h64q6 0 10.5 -1t9.5 -3q6 -3 9.5 -6t6.5 -6q9 -6 12 -16q2 -5 3 -10t1 -10v-9t-2 -9q-3 -9 -10 -16zM2782 172q8 4 10 6q6 6 6 9q2 4 3 7t1 8q0 4 -4 12q0 4 -6 10q-2 2 -10 6q-4 2 -12 2h-44v-62h44q8 0 12 2zM3020 96
q-16 -14 -30 -20q-18 -6 -38 -6q-18 0 -36 6q-15 6 -29 20q-13 11 -19 30q-5 8 -6.5 17.5t-1.5 18.5q0 6 1 12t3 12t3.5 12t6.5 12q2 5 5.5 9t7.5 9t9 8l10 6l11 5.5t11 4.5t12 3t12 1q8 0 14 -1t12 -3q11 -3 22 -10q12 -6 20 -14q5 -5 8 -9t6 -9l4 -12l4 -12q3 -6 3.5 -12
t0.5 -12q0 -9 -2 -18.5t-7 -17.5q-4 -17 -17 -30zM2952 90h10.5t9.5 2t9 3.5t9 4.5q5 2 8 4.5t6 5.5q5 5 7 8t5 8q6 8 8 18q2 5 2 9v9q0 16 -6 28q-3 8 -6.5 13.5t-9.5 10.5q-10 10 -22 16q-8 2 -15 3t-15 1q-6 0 -13 -1t-15 -3q-12 -6 -22 -16q-5 -5 -9 -10.5t-7 -13.5
q-6 -12 -6 -28q0 -5 1 -9t1 -9q2 -6 4 -9.5t4 -8.5q3 -5 6 -8t6 -8q6 -6 14 -10q5 -3 9 -4.5t9 -3.5t9 -2h9zM3252 250q4 4 8 4h18v-182h-20v150h-2v-4v-2q0 -1 -1 -2h-1q-5 -11 -9 -21t-7 -19q-5 -11 -9 -19t-7 -18q-5 -8 -9 -16.5t-7 -16.5q-3 -9 -7 -16.5t-7 -15.5h-22
q-8 17 -15 34.5t-15 35.5q-9 18 -16.5 36t-15.5 36q-2 0 -2 4v4v-150h-20v182h16q4 0 8 -4q6 -3 6 -8l64 -140v-4q2 -2 2 -3v-1v4.5t2 5.5t2 5t1 5l59 128q0 5 6 8zM130 0h210v-24v-14q-2 -3 -3 -6t-3 -6l-142 -188q2 0 4 2q2 0 4 2h4h136v-50h-218v16q0 4 1 7.5t1 6.5
q2 3 2 6t2 6l6 12q4 3 8 10l126 170h-138v50zM376 0h182v-50h-130v-66h104v-50h-104v-68h130v-50h-182v284zM786 -50h-84v-234h-52v234h-82v50h218v-50zM914 0l122 -284h-32q-11 0 -20 6q-5 3 -8 7l-6 8l-16 39h-128l-18 -39q0 -3 -4 -7q-2 -3 -4 -4.5t-4 -3.5q-3 -2 -5 -3
t-5 -1q-3 -2 -5.5 -2h-4.5h-34l124 284h48zM932 -172l-38 86q-2 3 -2 5.5t-2 4.5v8q0 -4 -2 -8q0 -2 -1 -4.5t-1 -5.5l-38 -86h84zM1048 0h182v-50h-130v-72h108v-50h-108v-112h-52v284zM1516 -70q5 -8 8.5 -16.5t5.5 -17.5q6 -18 6 -38t-6 -38q-2 -9 -5.5 -18t-8.5 -18
q-9 -15 -22 -28q-6 -6 -13.5 -11.5t-16.5 -10.5q-8 -6 -16.5 -9.5t-17.5 -6.5q-9 -2 -18 -3t-20 -1q-15 0 -29.5 2.5t-26.5 7.5q-14 6 -25.5 13.5t-20.5 18.5q-21 21 -32 46q-6 14 -8 27t-2 29q0 9 0.5 19t3.5 19t6 17.5t8 16.5q5 9 10.5 15.5t13.5 14.5q13 13 28 22
q9 4 17 8.5t17 7.5q11 2 20 3t20 1t20 -1t18 -3q9 -3 17.5 -7.5t16.5 -8.5q9 -5 16.5 -10.5t13.5 -11.5q6 -8 11.5 -14.5t10.5 -15.5zM1478 -178q6 18 6 36t-6 36q-5 9 -9.5 15.5t-10.5 14.5q-8 6 -15.5 10t-14.5 8q-16 8 -36 8q-23 0 -36 -8q-9 -4 -16.5 -8t-13.5 -10
q-6 -8 -10.5 -14.5t-9.5 -15.5q-3 -9 -5.5 -18t-2.5 -18t2.5 -18t5.5 -18q10 -20 20 -30q6 -6 13.5 -10.5t16.5 -9.5q15 -6 36 -6q18 0 36 6q7 5 14.5 9.5t15.5 10.5q6 6 10.5 13.5t9.5 16.5zM1772 0h52v-284h-48l-134 190q-4 4 -4 6q-2 4 -6 8q0 2 -4 6q0 2 -1 3t-1 3v-216
h-52v284h46q8 0 16 -4t10 -9q15 -20 30 -41l30 -42t29.5 -41.5t28.5 -40.5q6 -6 6 -12q2 -3 2 -5.5v-4.5v200zM1848 0h218v-50h-82v-234h-52v234h-84v50zM2246 -146q9 -9 12 -22q6 -12 6 -28q0 -11 -2.5 -19.5t-5.5 -16.5q-5 -9 -10.5 -16.5t-11.5 -14.5q-15 -11 -34 -17
q-20 -6 -36 -6q-22 0 -40 6q-9 5 -16.5 9.5t-15.5 12.5q-5 5 -8 9t-6 9q-5 8 -8 16q2 0 6 4q4 0 8 4q2 0 4 1t4 1t4 0.5t4 0.5q6 0 12 -3q5 0 8 -1t6 -3q7 -7 16 -10q5 -2 10.5 -3t11.5 -1h7t9 2q3 2 7 3t7 3q9 6 12 13q6 7 6 17q0 5 -1 8t-3 6q-3 3 -6 5.5t-6 4.5
q-8 5 -16 8q-8 1 -18 8q-8 2 -15 4.5t-15 5.5t-14 7t-12 9q-10 10 -16 22q-8 13 -8 32q0 10 2.5 18t5.5 16q10 16 20 24q6 4 13 8.5t14 7.5q8 2 16.5 3t16.5 1q6 0 12 -1t12 -3q13 -3 22 -11q6 -2 10.5 -6t9.5 -9q5 -3 8 -7t6 -9l-10 -8l-6 -4t-8 -4t-8 -2.5t-6 -0.5h-4h-4
q-3 2 -5 2.5t-5 2.5q-2 2 -4.5 2t-3.5 2q-2 0 -3.5 1t-4.5 1q-2 2 -8 2h-6t-8 -2q-6 0 -10 -4q-3 -2 -6 -4.5t-4 -3.5q-2 -4 -2 -12t2 -10q1 -3 4 -5t6 -5q3 -2 7 -3t9 -3t10.5 -4t13.5 -4l8 -4q9 -3 15.5 -6t14.5 -8q14 -7 22 -18zM2332 -234q5 -3 5 -10q2 -2 3.5 -5.5
t1.5 -6.5q0 -5 -5 -12q0 -5 -5 -10q-2 -2 -10 -6q-4 -2 -12 -2t-12 2q-8 4 -11 6q-2 3 -3.5 5t-3.5 5q0 3 -1 6t-1 6t1 6.5t1 5.5q4 8 7 10q4 6 11 6q8 4 12 4t12 -4q7 0 10 -6zM2440 -76q-8 -8 -12.5 -14.5t-7.5 -15.5q-8 -16 -8 -36t8 -36q6 -19 20 -30q6 -6 13.5 -10.5
t16.5 -9.5q15 -6 34 -6q8 0 15 1t13 3q14 3 26 12q2 2 4 2t4 2q3 1 5.5 1h4.5q8 0 16 -3q8 -4 12 -8l12 -10q-6 -6 -12 -11.5t-12 -10.5t-13 -9t-13 -7q-8 -5 -15 -6.5t-15 -3.5q-8 -3 -15.5 -3.5t-16.5 -0.5q-14 0 -28 2.5t-28 7.5q-25 11 -46 32q-9 11 -16.5 21.5
t-13.5 24.5q-12 27 -12 56q0 20 6 38q2 9 5.5 17.5t8.5 16.5q5 9 10.5 15.5t11.5 14.5q8 6 14.5 11.5t15.5 10.5q8 4 16.5 8.5t17.5 7.5q11 2 20 3t18 1t16.5 -0.5t15.5 -3.5q13 -3 30 -11q12 -5 26 -15q6 -5 12 -10.5t12 -11.5l-12 -13q-4 -3 -12 -7q-5 -2 -16 -2
q-9 0 -18 6q-6 2 -12 5.5t-14 6.5q-6 2 -13 3t-15 1q-9 0 -17.5 -1.5t-16.5 -6.5q-9 -4 -16.5 -8t-13.5 -10zM2904 -70q5 -8 8.5 -16.5t5.5 -17.5q6 -18 6 -38t-6 -38q-2 -9 -5.5 -18t-8.5 -18q-9 -15 -22 -28q-8 -6 -14.5 -11.5t-15.5 -10.5q-8 -6 -16.5 -9.5t-17.5 -6.5
q-9 -2 -19 -3t-19 -1q-15 0 -29.5 2.5t-28.5 7.5q-12 6 -23.5 13.5t-20.5 18.5q-21 21 -32 46q-7 14 -9.5 27t-2.5 29q0 20 6 38q3 9 6 17.5t8 16.5q5 9 10.5 15.5t13.5 14.5q13 13 28 22q9 4 17 8.5t17 7.5q11 2 20 3t20 1q9 0 19 -1t19 -3q9 -3 17.5 -7.5t16.5 -8.5
q9 -5 15.5 -10.5t14.5 -11.5q6 -8 11.5 -14.5t10.5 -15.5zM2866 -178q6 18 6 36t-6 36q-5 9 -9.5 15.5t-10.5 14.5q-8 6 -15 10t-15 8q-16 8 -36 8q-23 0 -36 -8q-9 -4 -16.5 -8t-13.5 -10q-6 -8 -11.5 -14.5t-8.5 -15.5q-5 -9 -6.5 -18t-1.5 -18t1.5 -18t6.5 -18
q3 -9 8.5 -16.5t11.5 -13.5t13.5 -10.5t16.5 -9.5q15 -6 36 -6q18 0 36 6q8 5 15 9.5t15 10.5q6 6 10.5 13.5t9.5 16.5zM3216 -2q2 0 4.5 1t5.5 1h52v-284h-52v208q-2 -3 -3 -6t-1 -8q-2 -5 -3 -8t-3 -6l-36 -90q-9 -23 -18 -45t-20 -45h-46l-74 180q-2 3 -3 6t-3 8
q0 4 -4 12v-206h-52v284h52q3 0 6 -1t6 -1q2 -2 4 -2t4 -2q3 -2 4.5 -4.5t3.5 -3.5q2 -2 3 -4t3 -4q9 -23 17 -44t17 -42q9 -23 17.5 -44t16.5 -42q2 -2 2 -6q0 -2 1 -3t1 -3v-7v-1l2 1v7q0 4 2 6v6l10 20l60 152q0 5 6 8q3 5 8 8q2 2 5 2t5 2z" />
    <glyph glyph-name="four" unicode="4" horiz-adv-x="3492" 
d="M2558 600q6 -5 9.5 -10.5t6.5 -13.5q6 -12 6 -30q0 -13 -6 -28q-3 -6 -6.5 -12t-9.5 -12q-5 -5 -10.5 -9t-13.5 -7q-12 -6 -28 -6q-9 0 -15.5 1.5t-14.5 4.5q-6 3 -12 7t-12 9q-5 6 -9 12t-7 12q-6 15 -6 28q0 18 6 30q3 8 7 13.5t9 10.5q6 6 12 9.5t12 6.5q8 3 14.5 4.5
t15.5 1.5q16 0 28 -6q8 -3 13.5 -6.5t10.5 -9.5zM716 576q-2 -2 -3.5 -4.5t-4.5 -5.5q-2 -2 -10 -6q-4 -2 -12 -2h-44v62h44q4 0 12 -4q7 0 10 -6q3 -2 4.5 -4t3.5 -4q0 -3 1 -6.5t1 -8.5q0 -2 -1 -5t-1 -6zM1086 600q11 -11 16 -24q6 -12 6 -30q0 -13 -6 -28q-3 -6 -7 -12
t-9 -12q-6 -5 -12 -9t-12 -7q-15 -6 -30 -6t-28 6q-13 5 -24 16q-6 6 -9.5 12t-6.5 12q-6 15 -6 28q0 18 6 30q3 8 6.5 13.5t9.5 10.5q5 6 10.5 9.5t13.5 6.5q13 6 28 6t30 -6q6 -3 12 -6.5t12 -9.5zM1462 616q0 -10 2 -12l36 -84h-78l36 84q2 2 2 4t1 4t1 4zM390 610
q4 -4 8 -12q2 -4 2 -14v-7t-2 -7q-4 -8 -8 -10q-4 -5 -10 -8q-5 -2 -8 -3t-6 -1h-44v72h44q3 0 6 -1t8 -3q3 0 5.5 -2t4.5 -4zM3278 1084v-766h-3148v766h1194q0 79 30 150q31 71 82 122q53 50 122 80t146 30q85 0 152 -32q69 -33 120 -84q50 -53 80 -122t30 -144h1192z
M1380 1216q-12 -32 -19 -65t-7 -69q0 -69 28 -134q14 -32 32 -60t42 -52q45 -48 110 -76q63 -30 138 -30q71 0 136 28q63 27 112 76q24 23 42.5 50.5t33.5 59.5q26 64 26 138q0 33 -4.5 63t-15.5 57q-9 26 -23.5 51.5t-32.5 48.5q-18 21 -38 39t-44 35q-24 14 -49 25t-51 19
q-21 8 -43.5 11t-48.5 3q-74 0 -140 -30q-32 -14 -59 -33t-51 -43t-42 -52t-32 -60zM424 560q2 6 3 12t1 12q0 8 -1 14t-3 12q-3 5 -6 9t-8 9t-9.5 8.5t-10.5 5.5q-12 6 -24 6h-72v-200h28v74h44q6 0 12 1t12 3q12 6 20 14t14 20zM572 648h-124v-200h124v26h-96v60h78v28
h-78v58h96v28zM768 448l-64 86q5 2 9 3t7 5q8 3 14 12q5 6 8 16q2 5 2 9v8q0 8 -0.5 13.5t-3.5 11.5q-2 5 -5.5 9t-6.5 9q-9 9 -18 12q-12 6 -24 6h-72v-200h28v82h30l52 -70q3 -7 10 -10q2 -2 6.5 -2h9.5h18zM902 482q6 12 6 24q0 28 -22 44q-2 2 -4 3t-4 3q-3 2 -5 2t-5 2
q-2 2 -4 2t-6 2q-2 0 -10 4q-5 2 -9 3t-7 3q-5 2 -7 3t-5 3q-4 4 -6 7q-1 3 -1 11q0 6 1 10q2 2 3.5 4t4.5 4q2 0 10 4q4 2 12 2q3 0 5.5 -1t4.5 -1q3 -2 6.5 -3t5.5 -3q8 -4 12 -4q8 0 14 6l6 4q-2 3 -4.5 5t-5.5 5t-6 5t-6 5q-3 2 -7 3t-9 3q-8 4 -16 4q-6 0 -11 -1
t-11 -3t-10.5 -4.5t-9.5 -5.5q-3 -3 -6 -7t-6 -9q-6 -9 -6 -22q0 -8 1.5 -12.5t4.5 -9.5q3 -10 12 -16q7 -7 18 -10q5 -3 9.5 -5t10.5 -5q3 -2 6 -2.5t8 -1.5q3 -2 6.5 -3t5.5 -3q3 -3 5.5 -5t4.5 -5t3 -6t1 -8q0 -6 -4 -14q-3 -7 -10 -10q-2 -3 -5.5 -4.5t-6.5 -3.5
q-5 0 -8 -1t-8 -1q-3 0 -7 1t-7 1q-8 4 -11 8l-3 2q-6 6 -16 6q-7 0 -10 -4l-8 -2q2 -2 2 -3t2 -1q0 -2 1 -3t1 -3q4 -4 5 -6q4 -5 7 -5q9 -10 19.5 -13.5t24.5 -3.5q8 0 14 0.5t14 3.5q11 3 20 13q11 9 16 19zM1132 520q2 8 2 13.5v12.5v15t-2 13q-3 8 -5 14t-7 12
q-3 5 -7 10t-7 10q-6 5 -11 8t-11 8q-6 3 -12 5.5t-12 4.5q-8 2 -14 3t-14 1q-6 0 -13 -1t-13 -3q-8 -2 -14 -4.5t-12 -5.5q-5 -5 -10 -8t-10 -8t-9 -10t-7 -10q-3 -6 -5.5 -12t-4.5 -14q-2 -6 -3 -13t-1 -15q0 -9 1.5 -19t6.5 -19q5 -11 10.5 -18.5t11.5 -15.5
q8 -6 15.5 -11.5t16.5 -8.5q19 -8 40 -8h14t14 2q6 3 12 5t12 7q10 5 22 14q3 5 7 10.5t7 11.5q5 6 7 12t5 12zM1342 648h-28v-156q0 5 -1 8t-3 6l-98 134q-4 4 -8 6q-3 0 -6 1t-6 1h-20v-200h28v168v-4q2 -2 2 -3v-1q0 -2 1 -3q0 -1 1 -1l114 -156h24v200zM1562 448
l-86 200h-28l-88 -200h16q8 0 11 2q7 5 9 10l14 32h102l14 -32q4 -8 8 -10q2 -2 5.5 -2h6.5h16zM1696 474h-86v174h-28v-200h114v26zM1972 648h-28v-122q0 -6 -1 -11t-3 -11q-3 -5 -5 -9t-7 -7q-3 -5 -7 -7t-8 -5q-7 -2 -12 -3t-11 -1q-5 0 -10 1t-10 3q-5 3 -9 5t-7 7
q-9 6 -12 16q-2 6 -3 11t-1 11v122h-28v-122q0 -6 0.5 -11.5t2.5 -10.5q1 -6 3 -10.5t4 -9.5q3 -5 6 -9t8 -7q3 -3 7 -6t9 -6t10 -4.5t10 -3.5t10 -3t10 -1q6 0 12 1t11 3q12 3 19 8q5 3 8 6t8 6q3 3 6 7t6 9q5 7 8 20q2 5 3 10.5t1 11.5v122zM2126 482q3 6 3.5 12t0.5 12
q0 30 -20 44q-4 2 -8 6q-3 2 -5 2t-5 2q-4 2 -5.5 2t-4.5 2q-3 0 -5 1t-5 3q-5 2 -9 3t-7 3q-9 3 -12 6q-6 3 -6 7q-2 3 -2 11q0 6 2 10q2 2 3.5 4t4.5 4q2 0 10 4q4 2 12 2q3 0 5 -1t5 -1l12 -6q8 -4 12 -4q6 0 12 6l8 4q-2 3 -4.5 5t-5.5 5t-6 5t-6 5q-3 2 -7 3t-9 3t-8 3
t-8 1q-6 0 -11.5 -1t-10.5 -3q-6 -2 -10.5 -4.5t-9.5 -5.5q-3 -3 -6.5 -7t-5.5 -9q-6 -9 -6 -22q0 -8 1.5 -12.5t3.5 -9.5q5 -11 13 -16q7 -7 16 -10q6 -3 11 -5t11 -5q3 -2 6 -2.5t8 -1.5l12 -6q3 -3 5.5 -5t4.5 -5t3 -6t1 -8q0 -6 -4 -14q-3 -7 -10 -10q-5 -5 -14 -8
q-3 0 -7 -1t-7 -1q-5 0 -8 1t-6 1q-10 3 -12 8l-2 2q-6 6 -16 6q-8 0 -10 -4l-8 -2q0 -2 1 -3q0 -1 1 -1q2 -2 2 -3t2 -3q4 -4 4 -6q4 -5 8 -5q9 -10 19.5 -13.5t24.5 -3.5q8 0 14 0.5t11 3.5q15 3 23 13q11 9 16 19zM2290 648h-124v-200h124v26h-98v60h78v28h-78v58h98v28z
M2604 520q2 8 3 13.5t1 12.5q0 8 -1 15t-3 13q-2 8 -4.5 14t-5.5 12q-3 5 -7 10t-9 10t-10 8t-10 8q-6 3 -12 5.5t-14 4.5q-6 2 -13 3t-13 1q-8 0 -14.5 -1t-13.5 -3q-6 -2 -12 -4.5t-12 -5.5q-6 -5 -11 -8t-11 -8q-5 -5 -8 -10t-8 -10q-3 -6 -5 -12t-5 -14q-2 -6 -2 -13
v-15q0 -9 1.5 -19t6.5 -19q3 -11 8.5 -18.5t11.5 -15.5q8 -6 16.5 -11.5t17.5 -8.5q16 -8 40 -8h13t13 2q8 3 14 5t12 7l10 6t10 8q10 10 16 22q3 6 5.5 12t4.5 12zM2814 648h-28v-156q0 5 -1 8t-3 6l-98 134q-4 4 -8 6q-2 0 -4.5 1t-7.5 1h-20v-200h28v168q2 -2 2 -3v-1
q0 -4 2 -4q0 -4 2 -4l114 -156h22v200zM2978 474h-88v174h-26v-200h114v26zM3136 648h-18q-10 0 -14 -4q-3 -2 -5.5 -5t-4.5 -5l-48 -64q-1 0 -2 -1v-1q0 -1 -0.5 -1.5t-0.5 -1.5l-1 -1v4v1l-2 1l-46 64q-3 2 -5.5 5t-4.5 5q-5 2 -8 3t-8 1h-18l72 -98l1 -1q0 -1 0.5 -1.5
t0.5 -1.5q2 -2 2 -3t2 -1v-5v-5v-84h28v84q0 2 1 3t1 2v2q0 1 2 3v1q0 1 2 3q0 4 4 4zM1590 787q-27 11 -51 26t-47 33h424q-23 -18 -47 -33t-51 -26q-26 -10 -55 -15.5t-59 -5.5q-31 0 -59.5 5.5t-54.5 15.5zM1528 880l412 416q78 -102 78 -214q0 -29 -4 -55.5t-14 -52.5
q-9 -26 -22 -48.5t-30 -45.5h-420zM1468 870q-20 23 -34.5 47t-23.5 51q-11 26 -15.5 55t-4.5 59q0 57 18 108q8 26 21 48.5t31 45.5h418zM1818 1378q54 -24 96 -60h-422q21 20 45.5 34.5t49.5 25.5q53 20 117 20q30 0 59 -4.5t55 -15.5zM136 116q-7 10 -10 21q-2 7 -3 13
t-1 12t1 12t3 12t4.5 12t5.5 12q3 5 6 9t8 9q8 8 20 14q11 7 22 10q6 2 12 3t12 1q11 0 20 -2.5t18 -5.5q8 -5 15 -9.5t13 -10.5q0 -2 -1 -2t-3 -2l-2 -2q-2 -2 -3 -2h-1h-6h-4t-4 2q-5 3 -9.5 5.5t-10.5 4.5q-5 2 -10.5 2h-11.5q-8 0 -15 -1t-14 -3q-12 -7 -21 -16
q-6 -5 -9.5 -10.5t-6.5 -13.5q-6 -12 -6 -28v-9t2 -9q2 -10 8 -18q3 -5 6 -8t6 -8q6 -6 14 -10q5 -3 9 -4.5t9 -3.5t9.5 -2h10.5h12t12 2t11 4.5l11 5.5v38h-14q-2 0 -4 1t-4 1q-2 2 -3 2t-3 2q0 2 -1 3t-1 3q-2 2 -2 6v2h50v-70q-3 -5 -6 -7t-8 -5q-3 -2 -6 -3t-8 -1
q-5 -2 -9 -3t-9 -1h-20h-12t-12 2q-11 3 -22 10q-12 6 -20 14t-14 20zM348 232v-58h72v-20h-72v-62h90v-20h-110v182h110v-22h-90zM518 72v160h-58v22h138v-22h-58v-160h-22zM732 232v-62h76v-20h-76v-78h-20v182h110v-22h-90zM878 254v-112q0 -6 0.5 -10.5t3.5 -9.5
q2 -6 4.5 -9.5t5.5 -8.5q5 -3 8.5 -5.5t9.5 -4.5q5 -3 9.5 -3.5t10.5 -0.5t10.5 0.5t9.5 3.5q11 4 16 10q5 5 7 8.5t5 9.5q2 5 3 9.5t1 10.5v112h20v-112q0 -16 -6 -28q-3 -8 -6 -13.5t-8 -10.5q-6 -5 -12 -9t-12 -7q-6 -2 -13 -3t-15 -1t-15 1t-13 3q-13 5 -24 16
q-5 5 -9 10.5t-6 13.5q-4 6 -4.5 13t-0.5 15v112h20zM1062 254v-162h80v-20h-102v182h22zM1186 254v-162h80v-20h-100v182h20zM1432 72l-78 182h10q3 0 5 -1t5 -3q2 -2 4 -3.5t2 -4.5l60 -136q0 -2 1 -3t1 -3v-6v6q2 2 2 6q8 17 15 34t15 34q8 18 15 34.5t15 33.5q2 4 6 8
q8 4 10 4h12q-11 -23 -21 -46t-19 -46q-11 -23 -20 -45t-20 -45h-20zM1568 232v-58h72v-20h-72v-62h90v-20h-112v182h112v-22h-90zM1794 156q-5 -2 -8 -3t-8 -3l58 -78h-12q-8 0 -11 2q-6 2 -9 8l-52 68h-30v-78h-22v182h66q5 0 10 -1t10 -3q5 -3 9 -6t7 -6t6 -7t6 -9
q2 -5 3 -10t1 -10t-1 -9t-3 -9q-2 -10 -8 -16zM1766 170q8 0 12 2q3 2 5 3t5 3q2 3 3 5t3 4q2 4 3 7t1 8q0 4 -4 12q-2 3 -3 5t-3 5q-3 2 -5 3t-5 3q-4 2 -12 2h-44v-62h44zM1932 98q7 3 10 10q4 10 4 14q0 9 -4 15q-3 6 -8 9q-4 4 -12 8q-4 0 -14 4q-6 2 -10.5 4t-9.5 4
q-9 3 -16 10q-3 2 -5.5 5.5t-3.5 5.5q-2 5 -3.5 10t-1.5 11q0 11 6 20q3 8 12 14q7 7 16 10q5 2 10.5 3t10.5 1q2 0 6 -1t7 -1q5 -2 8 -3t6 -3q3 -3 5.5 -4.5t4.5 -3.5l8 -8l-4 -4q-4 -4 -10 -4q-8 0 -10 2t-3 2t-3 2q-2 0 -2 1t-2 1t-3 1t-3 1h-5h-8t-7 -2q-3 0 -5 -1
t-5 -3q-2 -3 -4 -5t-2 -5q-4 -4 -4 -10q0 -8 2 -10q2 -4 6 -8q5 -4 12 -6q3 -2 7 -3t9 -3q3 -2 5 -2t5 -2q4 0 8 -4q3 0 5 -1t5 -3q2 0 6 -4l8 -8t7 -8q1 -7 2 -11.5t1 -12.5q0 -6 -1 -11t-2 -11q-4 -5 -7 -9.5t-8 -6.5q-7 -7 -20 -10q-5 -3 -10.5 -3.5t-11.5 -0.5
q-26 0 -40 14q-2 2 -5 4.5t-5 5.5q-4 4 -4 8l4 2l1 1q1 0 1.5 0.5t1.5 0.5h4q8 0 12 -4q3 -5 7 -6.5t7 -3.5q5 -2 8 -2h8h6t8 2q6 0 12 6zM2028 254v-182h-22v182h22zM2098 96q-6 6 -11.5 13.5t-8.5 16.5q-5 8 -6.5 17.5t-1.5 18.5q0 6 1 12t3 12t3.5 12t4.5 12q4 5 7.5 9
t8.5 9t9 8t9 6q10 7 21 10q7 2 13 3t14 1q6 0 12 -1t11 -3q12 -3 23 -10q12 -6 20 -14q5 -5 8 -9t6 -9q3 -6 5.5 -12t4.5 -12t2 -12v-12q0 -20 -6 -36q-8 -17 -20 -30q-16 -14 -30 -20q-20 -6 -36 -6q-22 0 -38 6t-28 20zM2096 190q-6 -12 -6 -28q0 -5 1 -9t3 -9
q2 -6 3 -9.5t3 -8.5q3 -5 6 -8t6 -8q6 -6 14 -10q7 -5 18 -8q5 -2 9.5 -2h10.5h9t9 2q4 2 8.5 3.5t9.5 4.5q5 2 8 4.5t6 5.5q5 5 7 8t5 8q6 8 8 18q2 5 2 9v9q0 16 -6 28q-3 8 -6.5 13.5t-9.5 10.5q-10 10 -22 16q-6 2 -13 3t-15 1t-15 -1t-15 -3q-12 -6 -22 -16
q-5 -5 -9 -10.5t-7 -13.5zM2310 72h-20v182h14q13 0 16 -8l94 -132q2 -1 2 -2.5t2 -3.5v-4v150h22v-182h-20l-106 150l-2 2v2q0 2 -2 4v-158zM2592 232v-62h76v-20h-76v-78h-20v182h112v-22h-92zM2810 168q-3 -6 -12 -12q-3 -2 -7.5 -3t-8.5 -3l60 -78h-12q-10 0 -14 2
q-2 2 -4 3.5t-4 4.5l-50 68h-32v-78h-20v182h64q6 0 10.5 -1t9.5 -3q6 -3 9.5 -6t6.5 -6q9 -6 12 -16q2 -5 3 -10t1 -10v-9t-2 -9q-3 -9 -10 -16zM2782 172q8 4 10 6q6 6 6 9q2 4 3 7t1 8q0 4 -4 12q0 4 -6 10q-2 2 -10 6q-4 2 -12 2h-44v-62h44q8 0 12 2zM3020 96
q-16 -14 -30 -20q-18 -6 -38 -6q-18 0 -36 6q-15 6 -29 20q-13 11 -19 30q-5 8 -6.5 17.5t-1.5 18.5q0 6 1 12t3 12t3.5 12t6.5 12q2 5 5.5 9t7.5 9t9 8l10 6l11 5.5t11 4.5t12 3t12 1q8 0 14 -1t12 -3q11 -3 22 -10q12 -6 20 -14q5 -5 8 -9t6 -9l4 -12l4 -12q3 -6 3.5 -12
t0.5 -12q0 -9 -2 -18.5t-7 -17.5q-4 -17 -17 -30zM2952 90h10.5t9.5 2t9 3.5t9 4.5q5 2 8 4.5t6 5.5q5 5 7 8t5 8q6 8 8 18q2 5 2 9v9q0 16 -6 28q-3 8 -6.5 13.5t-9.5 10.5q-10 10 -22 16q-8 2 -15 3t-15 1q-6 0 -13 -1t-15 -3q-12 -6 -22 -16q-5 -5 -9 -10.5t-7 -13.5
q-6 -12 -6 -28q0 -5 1 -9t1 -9q2 -6 4 -9.5t4 -8.5q3 -5 6 -8t6 -8q6 -6 14 -10q5 -3 9 -4.5t9 -3.5t9 -2h9zM3252 250q4 4 8 4h18v-182h-20v150h-2v-4v-2q0 -1 -1 -2h-1q-5 -11 -9 -21t-7 -19q-5 -11 -9 -19t-7 -18q-5 -8 -9 -16.5t-7 -16.5q-3 -9 -7 -16.5t-7 -15.5h-22
q-8 17 -15 34.5t-15 35.5q-9 18 -16.5 36t-15.5 36q-2 0 -2 4v4v-150h-20v182h16q4 0 8 -4q6 -3 6 -8l64 -140v-4q2 -2 2 -3v-1v4.5t2 5.5t2 5t1 5l59 128q0 5 6 8zM130 0h210v-24v-14q-2 -3 -3 -6t-3 -6l-142 -188q2 0 4 2q2 0 4 2h4h136v-50h-218v16q0 4 1 7.5t1 6.5
q2 3 2 6t2 6l6 12q4 3 8 10l126 170h-138v50zM376 0h182v-50h-130v-66h104v-50h-104v-68h130v-50h-182v284zM786 -50h-84v-234h-52v234h-82v50h218v-50zM914 0l122 -284h-32q-11 0 -20 6q-5 3 -8 7l-6 8l-16 39h-128l-18 -39q0 -3 -4 -7q-2 -3 -4 -4.5t-4 -3.5q-3 -2 -5 -3
t-5 -1q-3 -2 -5.5 -2h-4.5h-34l124 284h48zM932 -172l-38 86q-2 3 -2 5.5t-2 4.5v8q0 -4 -2 -8q0 -2 -1 -4.5t-1 -5.5l-38 -86h84zM1048 0h182v-50h-130v-72h108v-50h-108v-112h-52v284zM1516 -70q5 -8 8.5 -16.5t5.5 -17.5q6 -18 6 -38t-6 -38q-2 -9 -5.5 -18t-8.5 -18
q-9 -15 -22 -28q-6 -6 -13.5 -11.5t-16.5 -10.5q-8 -6 -16.5 -9.5t-17.5 -6.5q-9 -2 -18 -3t-20 -1q-15 0 -29.5 2.5t-26.5 7.5q-14 6 -25.5 13.5t-20.5 18.5q-21 21 -32 46q-6 14 -8 27t-2 29q0 9 0.5 19t3.5 19t6 17.5t8 16.5q5 9 10.5 15.5t13.5 14.5q13 13 28 22
q9 4 17 8.5t17 7.5q11 2 20 3t20 1t20 -1t18 -3q9 -3 17.5 -7.5t16.5 -8.5q9 -5 16.5 -10.5t13.5 -11.5q6 -8 11.5 -14.5t10.5 -15.5zM1478 -178q6 18 6 36t-6 36q-5 9 -9.5 15.5t-10.5 14.5q-8 6 -15.5 10t-14.5 8q-16 8 -36 8q-23 0 -36 -8q-9 -4 -16.5 -8t-13.5 -10
q-6 -8 -10.5 -14.5t-9.5 -15.5q-3 -9 -5.5 -18t-2.5 -18t2.5 -18t5.5 -18q10 -20 20 -30q6 -6 13.5 -10.5t16.5 -9.5q15 -6 36 -6q18 0 36 6q7 5 14.5 9.5t15.5 10.5q6 6 10.5 13.5t9.5 16.5zM1772 0h52v-284h-48l-134 190q-4 4 -4 6q-2 4 -6 8q0 2 -4 6q0 2 -1 3t-1 3v-216
h-52v284h46q8 0 16 -4t10 -9q15 -20 30 -41l30 -42t29.5 -41.5t28.5 -40.5q6 -6 6 -12q2 -3 2 -5.5v-4.5v200zM1848 0h218v-50h-82v-234h-52v234h-84v50zM2246 -146q9 -9 12 -22q6 -12 6 -28q0 -11 -2.5 -19.5t-5.5 -16.5q-5 -9 -10.5 -16.5t-11.5 -14.5q-15 -11 -34 -17
q-20 -6 -36 -6q-22 0 -40 6q-9 5 -16.5 9.5t-15.5 12.5q-5 5 -8 9t-6 9q-5 8 -8 16q2 0 6 4q4 0 8 4q2 0 4 1t4 1t4 0.5t4 0.5q6 0 12 -3q5 0 8 -1t6 -3q7 -7 16 -10q5 -2 10.5 -3t11.5 -1h7t9 2q3 2 7 3t7 3q9 6 12 13q6 7 6 17q0 5 -1 8t-3 6q-3 3 -6 5.5t-6 4.5
q-8 5 -16 8q-8 1 -18 8q-8 2 -15 4.5t-15 5.5t-14 7t-12 9q-10 10 -16 22q-8 13 -8 32q0 10 2.5 18t5.5 16q10 16 20 24q6 4 13 8.5t14 7.5q8 2 16.5 3t16.5 1q6 0 12 -1t12 -3q13 -3 22 -11q6 -2 10.5 -6t9.5 -9q5 -3 8 -7t6 -9l-10 -8l-6 -4t-8 -4t-8 -2.5t-6 -0.5h-4h-4
q-3 2 -5 2.5t-5 2.5q-2 2 -4.5 2t-3.5 2q-2 0 -3.5 1t-4.5 1q-2 2 -8 2h-6t-8 -2q-6 0 -10 -4q-3 -2 -6 -4.5t-4 -3.5q-2 -4 -2 -12t2 -10q1 -3 4 -5t6 -5q3 -2 7 -3t9 -3t10.5 -4t13.5 -4l8 -4q9 -3 15.5 -6t14.5 -8q14 -7 22 -18zM2332 -234q5 -3 5 -10q2 -2 3.5 -5.5
t1.5 -6.5q0 -5 -5 -12q0 -5 -5 -10q-2 -2 -10 -6q-4 -2 -12 -2t-12 2q-8 4 -11 6q-2 3 -3.5 5t-3.5 5q0 3 -1 6t-1 6t1 6.5t1 5.5q4 8 7 10q4 6 11 6q8 4 12 4t12 -4q7 0 10 -6zM2440 -76q-8 -8 -12.5 -14.5t-7.5 -15.5q-8 -16 -8 -36t8 -36q6 -19 20 -30q6 -6 13.5 -10.5
t16.5 -9.5q15 -6 34 -6q8 0 15 1t13 3q14 3 26 12q2 2 4 2t4 2q3 1 5.5 1h4.5q8 0 16 -3q8 -4 12 -8l12 -10q-6 -6 -12 -11.5t-12 -10.5t-13 -9t-13 -7q-8 -5 -15 -6.5t-15 -3.5q-8 -3 -15.5 -3.5t-16.5 -0.5q-14 0 -28 2.5t-28 7.5q-25 11 -46 32q-9 11 -16.5 21.5
t-13.5 24.5q-12 27 -12 56q0 20 6 38q2 9 5.5 17.5t8.5 16.5q5 9 10.5 15.5t11.5 14.5q8 6 14.5 11.5t15.5 10.5q8 4 16.5 8.5t17.5 7.5q11 2 20 3t18 1t16.5 -0.5t15.5 -3.5q13 -3 30 -11q12 -5 26 -15q6 -5 12 -10.5t12 -11.5l-12 -13q-4 -3 -12 -7q-5 -2 -16 -2
q-9 0 -18 6q-6 2 -12 5.5t-14 6.5q-6 2 -13 3t-15 1q-9 0 -17.5 -1.5t-16.5 -6.5q-9 -4 -16.5 -8t-13.5 -10zM2904 -70q5 -8 8.5 -16.5t5.5 -17.5q6 -18 6 -38t-6 -38q-2 -9 -5.5 -18t-8.5 -18q-9 -15 -22 -28q-8 -6 -14.5 -11.5t-15.5 -10.5q-8 -6 -16.5 -9.5t-17.5 -6.5
q-9 -2 -19 -3t-19 -1q-15 0 -29.5 2.5t-28.5 7.5q-12 6 -23.5 13.5t-20.5 18.5q-21 21 -32 46q-7 14 -9.5 27t-2.5 29q0 20 6 38q3 9 6 17.5t8 16.5q5 9 10.5 15.5t13.5 14.5q13 13 28 22q9 4 17 8.5t17 7.5q11 2 20 3t20 1q9 0 19 -1t19 -3q9 -3 17.5 -7.5t16.5 -8.5
q9 -5 15.5 -10.5t14.5 -11.5q6 -8 11.5 -14.5t10.5 -15.5zM2866 -178q6 18 6 36t-6 36q-5 9 -9.5 15.5t-10.5 14.5q-8 6 -15 10t-15 8q-16 8 -36 8q-23 0 -36 -8q-9 -4 -16.5 -8t-13.5 -10q-6 -8 -11.5 -14.5t-8.5 -15.5q-5 -9 -6.5 -18t-1.5 -18t1.5 -18t6.5 -18
q3 -9 8.5 -16.5t11.5 -13.5t13.5 -10.5t16.5 -9.5q15 -6 36 -6q18 0 36 6q8 5 15 9.5t15 10.5q6 6 10.5 13.5t9.5 16.5zM3216 -2q2 0 4.5 1t5.5 1h52v-284h-52v208q-2 -3 -3 -6t-1 -8q-2 -5 -3 -8t-3 -6l-36 -90q-9 -23 -18 -45t-20 -45h-46l-74 180q-2 3 -3 6t-3 8
q0 4 -4 12v-206h-52v284h52q3 0 6 -1t6 -1q2 -2 4 -2t4 -2q3 -2 4.5 -4.5t3.5 -3.5q2 -2 3 -4t3 -4q9 -23 17 -44t17 -42q9 -23 17.5 -44t16.5 -42q2 -2 2 -6q0 -2 1 -3t1 -3v-7v-1l2 1v7q0 4 2 6v6l10 20l60 152q0 5 6 8q3 5 8 8q2 2 5 2t5 2z" />
    <glyph glyph-name="five" unicode="5" horiz-adv-x="3492" 
d="M2558 600q6 -5 9.5 -10.5t6.5 -13.5q6 -12 6 -30q0 -13 -6 -28q-3 -6 -6.5 -12t-9.5 -12q-5 -5 -10.5 -9t-13.5 -7q-12 -6 -28 -6q-9 0 -15.5 1.5t-14.5 4.5q-6 3 -12 7t-12 9q-5 6 -9 12t-7 12q-6 15 -6 28q0 18 6 30q3 8 7 13.5t9 10.5q6 6 12 9.5t12 6.5q8 3 14.5 4.5
t15.5 1.5q16 0 28 -6q8 -3 13.5 -6.5t10.5 -9.5zM716 576q-2 -2 -3.5 -4.5t-4.5 -5.5q-2 -2 -10 -6q-4 -2 -12 -2h-44v62h44q4 0 12 -4q7 0 10 -6q3 -2 4.5 -4t3.5 -4q0 -3 1 -6.5t1 -8.5q0 -2 -1 -5t-1 -6zM1086 600q11 -11 16 -24q6 -12 6 -30q0 -13 -6 -28q-3 -6 -7 -12
t-9 -12q-6 -5 -12 -9t-12 -7q-15 -6 -30 -6t-28 6q-13 5 -24 16q-6 6 -9.5 12t-6.5 12q-6 15 -6 28q0 18 6 30q3 8 6.5 13.5t9.5 10.5q5 6 10.5 9.5t13.5 6.5q13 6 28 6t30 -6q6 -3 12 -6.5t12 -9.5zM1462 616q0 -10 2 -12l36 -84h-78l36 84q2 2 2 4t1 4t1 4zM390 610
q4 -4 8 -12q2 -4 2 -14v-7t-2 -7q-4 -8 -8 -10q-4 -5 -10 -8q-5 -2 -8 -3t-6 -1h-44v72h44q3 0 6 -1t8 -3q3 0 5.5 -2t4.5 -4zM3278 1084v-766h-3148v766h1194q0 79 30 150q31 71 82 122q53 50 122 80t146 30q85 0 152 -32q69 -33 120 -84q50 -53 80 -122t30 -144h1192z
M1380 1216q-12 -32 -19 -65t-7 -69q0 -69 28 -134q14 -32 32 -60t42 -52q45 -48 110 -76q63 -30 138 -30q71 0 136 28q63 27 112 76q24 23 42.5 50.5t33.5 59.5q26 64 26 138q0 33 -4.5 63t-15.5 57q-9 26 -23.5 51.5t-32.5 48.5q-18 21 -38 39t-44 35q-24 14 -49 25t-51 19
q-21 8 -43.5 11t-48.5 3q-74 0 -140 -30q-32 -14 -59 -33t-51 -43t-42 -52t-32 -60zM424 560q2 6 3 12t1 12q0 8 -1 14t-3 12q-3 5 -6 9t-8 9t-9.5 8.5t-10.5 5.5q-12 6 -24 6h-72v-200h28v74h44q6 0 12 1t12 3q12 6 20 14t14 20zM572 648h-124v-200h124v26h-96v60h78v28
h-78v58h96v28zM768 448l-64 86q5 2 9 3t7 5q8 3 14 12q5 6 8 16q2 5 2 9v8q0 8 -0.5 13.5t-3.5 11.5q-2 5 -5.5 9t-6.5 9q-9 9 -18 12q-12 6 -24 6h-72v-200h28v82h30l52 -70q3 -7 10 -10q2 -2 6.5 -2h9.5h18zM902 482q6 12 6 24q0 28 -22 44q-2 2 -4 3t-4 3q-3 2 -5 2t-5 2
q-2 2 -4 2t-6 2q-2 0 -10 4q-5 2 -9 3t-7 3q-5 2 -7 3t-5 3q-4 4 -6 7q-1 3 -1 11q0 6 1 10q2 2 3.5 4t4.5 4q2 0 10 4q4 2 12 2q3 0 5.5 -1t4.5 -1q3 -2 6.5 -3t5.5 -3q8 -4 12 -4q8 0 14 6l6 4q-2 3 -4.5 5t-5.5 5t-6 5t-6 5q-3 2 -7 3t-9 3q-8 4 -16 4q-6 0 -11 -1
t-11 -3t-10.5 -4.5t-9.5 -5.5q-3 -3 -6 -7t-6 -9q-6 -9 -6 -22q0 -8 1.5 -12.5t4.5 -9.5q3 -10 12 -16q7 -7 18 -10q5 -3 9.5 -5t10.5 -5q3 -2 6 -2.5t8 -1.5q3 -2 6.5 -3t5.5 -3q3 -3 5.5 -5t4.5 -5t3 -6t1 -8q0 -6 -4 -14q-3 -7 -10 -10q-2 -3 -5.5 -4.5t-6.5 -3.5
q-5 0 -8 -1t-8 -1q-3 0 -7 1t-7 1q-8 4 -11 8l-3 2q-6 6 -16 6q-7 0 -10 -4l-8 -2q2 -2 2 -3t2 -1q0 -2 1 -3t1 -3q4 -4 5 -6q4 -5 7 -5q9 -10 19.5 -13.5t24.5 -3.5q8 0 14 0.5t14 3.5q11 3 20 13q11 9 16 19zM1132 520q2 8 2 13.5v12.5v15t-2 13q-3 8 -5 14t-7 12
q-3 5 -7 10t-7 10q-6 5 -11 8t-11 8q-6 3 -12 5.5t-12 4.5q-8 2 -14 3t-14 1q-6 0 -13 -1t-13 -3q-8 -2 -14 -4.5t-12 -5.5q-5 -5 -10 -8t-10 -8t-9 -10t-7 -10q-3 -6 -5.5 -12t-4.5 -14q-2 -6 -3 -13t-1 -15q0 -9 1.5 -19t6.5 -19q5 -11 10.5 -18.5t11.5 -15.5
q8 -6 15.5 -11.5t16.5 -8.5q19 -8 40 -8h14t14 2q6 3 12 5t12 7q10 5 22 14q3 5 7 10.5t7 11.5q5 6 7 12t5 12zM1342 648h-28v-156q0 5 -1 8t-3 6l-98 134q-4 4 -8 6q-3 0 -6 1t-6 1h-20v-200h28v168v-4q2 -2 2 -3v-1q0 -2 1 -3q0 -1 1 -1l114 -156h24v200zM1562 448
l-86 200h-28l-88 -200h16q8 0 11 2q7 5 9 10l14 32h102l14 -32q4 -8 8 -10q2 -2 5.5 -2h6.5h16zM1696 474h-86v174h-28v-200h114v26zM1972 648h-28v-122q0 -6 -1 -11t-3 -11q-3 -5 -5 -9t-7 -7q-3 -5 -7 -7t-8 -5q-7 -2 -12 -3t-11 -1q-5 0 -10 1t-10 3q-5 3 -9 5t-7 7
q-9 6 -12 16q-2 6 -3 11t-1 11v122h-28v-122q0 -6 0.5 -11.5t2.5 -10.5q1 -6 3 -10.5t4 -9.5q3 -5 6 -9t8 -7q3 -3 7 -6t9 -6t10 -4.5t10 -3.5t10 -3t10 -1q6 0 12 1t11 3q12 3 19 8q5 3 8 6t8 6q3 3 6 7t6 9q5 7 8 20q2 5 3 10.5t1 11.5v122zM2126 482q3 6 3.5 12t0.5 12
q0 30 -20 44q-4 2 -8 6q-3 2 -5 2t-5 2q-4 2 -5.5 2t-4.5 2q-3 0 -5 1t-5 3q-5 2 -9 3t-7 3q-9 3 -12 6q-6 3 -6 7q-2 3 -2 11q0 6 2 10q2 2 3.5 4t4.5 4q2 0 10 4q4 2 12 2q3 0 5 -1t5 -1l12 -6q8 -4 12 -4q6 0 12 6l8 4q-2 3 -4.5 5t-5.5 5t-6 5t-6 5q-3 2 -7 3t-9 3t-8 3
t-8 1q-6 0 -11.5 -1t-10.5 -3q-6 -2 -10.5 -4.5t-9.5 -5.5q-3 -3 -6.5 -7t-5.5 -9q-6 -9 -6 -22q0 -8 1.5 -12.5t3.5 -9.5q5 -11 13 -16q7 -7 16 -10q6 -3 11 -5t11 -5q3 -2 6 -2.5t8 -1.5l12 -6q3 -3 5.5 -5t4.5 -5t3 -6t1 -8q0 -6 -4 -14q-3 -7 -10 -10q-5 -5 -14 -8
q-3 0 -7 -1t-7 -1q-5 0 -8 1t-6 1q-10 3 -12 8l-2 2q-6 6 -16 6q-8 0 -10 -4l-8 -2q0 -2 1 -3q0 -1 1 -1q2 -2 2 -3t2 -3q4 -4 4 -6q4 -5 8 -5q9 -10 19.5 -13.5t24.5 -3.5q8 0 14 0.5t11 3.5q15 3 23 13q11 9 16 19zM2290 648h-124v-200h124v26h-98v60h78v28h-78v58h98v28z
M2604 520q2 8 3 13.5t1 12.5q0 8 -1 15t-3 13q-2 8 -4.5 14t-5.5 12q-3 5 -7 10t-9 10t-10 8t-10 8q-6 3 -12 5.5t-14 4.5q-6 2 -13 3t-13 1q-8 0 -14.5 -1t-13.5 -3q-6 -2 -12 -4.5t-12 -5.5q-6 -5 -11 -8t-11 -8q-5 -5 -8 -10t-8 -10q-3 -6 -5 -12t-5 -14q-2 -6 -2 -13
v-15q0 -9 1.5 -19t6.5 -19q3 -11 8.5 -18.5t11.5 -15.5q8 -6 16.5 -11.5t17.5 -8.5q16 -8 40 -8h13t13 2q8 3 14 5t12 7l10 6t10 8q10 10 16 22q3 6 5.5 12t4.5 12zM2814 648h-28v-156q0 5 -1 8t-3 6l-98 134q-4 4 -8 6q-2 0 -4.5 1t-7.5 1h-20v-200h28v168q2 -2 2 -3v-1
q0 -4 2 -4q0 -4 2 -4l114 -156h22v200zM2978 474h-88v174h-26v-200h114v26zM3136 648h-18q-10 0 -14 -4q-3 -2 -5.5 -5t-4.5 -5l-48 -64q-1 0 -2 -1v-1q0 -1 -0.5 -1.5t-0.5 -1.5l-1 -1v4v1l-2 1l-46 64q-3 2 -5.5 5t-4.5 5q-5 2 -8 3t-8 1h-18l72 -98l1 -1q0 -1 0.5 -1.5
t0.5 -1.5q2 -2 2 -3t2 -1v-5v-5v-84h28v84q0 2 1 3t1 2v2q0 1 2 3v1q0 1 2 3q0 4 4 4zM1590 787q-27 11 -51 26t-47 33h424q-23 -18 -47 -33t-51 -26q-26 -10 -55 -15.5t-59 -5.5q-31 0 -59.5 5.5t-54.5 15.5zM1528 880l412 416q78 -102 78 -214q0 -29 -4 -55.5t-14 -52.5
q-9 -26 -22 -48.5t-30 -45.5h-420zM1468 870q-20 23 -34.5 47t-23.5 51q-11 26 -15.5 55t-4.5 59q0 57 18 108q8 26 21 48.5t31 45.5h418zM1818 1378q54 -24 96 -60h-422q21 20 45.5 34.5t49.5 25.5q53 20 117 20q30 0 59 -4.5t55 -15.5zM136 116q-7 10 -10 21q-2 7 -3 13
t-1 12t1 12t3 12t4.5 12t5.5 12q3 5 6 9t8 9q8 8 20 14q11 7 22 10q6 2 12 3t12 1q11 0 20 -2.5t18 -5.5q8 -5 15 -9.5t13 -10.5q0 -2 -1 -2t-3 -2l-2 -2q-2 -2 -3 -2h-1h-6h-4t-4 2q-5 3 -9.5 5.5t-10.5 4.5q-5 2 -10.5 2h-11.5q-8 0 -15 -1t-14 -3q-12 -7 -21 -16
q-6 -5 -9.5 -10.5t-6.5 -13.5q-6 -12 -6 -28v-9t2 -9q2 -10 8 -18q3 -5 6 -8t6 -8q6 -6 14 -10q5 -3 9 -4.5t9 -3.5t9.5 -2h10.5h12t12 2t11 4.5l11 5.5v38h-14q-2 0 -4 1t-4 1q-2 2 -3 2t-3 2q0 2 -1 3t-1 3q-2 2 -2 6v2h50v-70q-3 -5 -6 -7t-8 -5q-3 -2 -6 -3t-8 -1
q-5 -2 -9 -3t-9 -1h-20h-12t-12 2q-11 3 -22 10q-12 6 -20 14t-14 20zM348 232v-58h72v-20h-72v-62h90v-20h-110v182h110v-22h-90zM518 72v160h-58v22h138v-22h-58v-160h-22zM732 232v-62h76v-20h-76v-78h-20v182h110v-22h-90zM878 254v-112q0 -6 0.5 -10.5t3.5 -9.5
q2 -6 4.5 -9.5t5.5 -8.5q5 -3 8.5 -5.5t9.5 -4.5q5 -3 9.5 -3.5t10.5 -0.5t10.5 0.5t9.5 3.5q11 4 16 10q5 5 7 8.5t5 9.5q2 5 3 9.5t1 10.5v112h20v-112q0 -16 -6 -28q-3 -8 -6 -13.5t-8 -10.5q-6 -5 -12 -9t-12 -7q-6 -2 -13 -3t-15 -1t-15 1t-13 3q-13 5 -24 16
q-5 5 -9 10.5t-6 13.5q-4 6 -4.5 13t-0.5 15v112h20zM1062 254v-162h80v-20h-102v182h22zM1186 254v-162h80v-20h-100v182h20zM1432 72l-78 182h10q3 0 5 -1t5 -3q2 -2 4 -3.5t2 -4.5l60 -136q0 -2 1 -3t1 -3v-6v6q2 2 2 6q8 17 15 34t15 34q8 18 15 34.5t15 33.5q2 4 6 8
q8 4 10 4h12q-11 -23 -21 -46t-19 -46q-11 -23 -20 -45t-20 -45h-20zM1568 232v-58h72v-20h-72v-62h90v-20h-112v182h112v-22h-90zM1794 156q-5 -2 -8 -3t-8 -3l58 -78h-12q-8 0 -11 2q-6 2 -9 8l-52 68h-30v-78h-22v182h66q5 0 10 -1t10 -3q5 -3 9 -6t7 -6t6 -7t6 -9
q2 -5 3 -10t1 -10t-1 -9t-3 -9q-2 -10 -8 -16zM1766 170q8 0 12 2q3 2 5 3t5 3q2 3 3 5t3 4q2 4 3 7t1 8q0 4 -4 12q-2 3 -3 5t-3 5q-3 2 -5 3t-5 3q-4 2 -12 2h-44v-62h44zM1932 98q7 3 10 10q4 10 4 14q0 9 -4 15q-3 6 -8 9q-4 4 -12 8q-4 0 -14 4q-6 2 -10.5 4t-9.5 4
q-9 3 -16 10q-3 2 -5.5 5.5t-3.5 5.5q-2 5 -3.5 10t-1.5 11q0 11 6 20q3 8 12 14q7 7 16 10q5 2 10.5 3t10.5 1q2 0 6 -1t7 -1q5 -2 8 -3t6 -3q3 -3 5.5 -4.5t4.5 -3.5l8 -8l-4 -4q-4 -4 -10 -4q-8 0 -10 2t-3 2t-3 2q-2 0 -2 1t-2 1t-3 1t-3 1h-5h-8t-7 -2q-3 0 -5 -1
t-5 -3q-2 -3 -4 -5t-2 -5q-4 -4 -4 -10q0 -8 2 -10q2 -4 6 -8q5 -4 12 -6q3 -2 7 -3t9 -3q3 -2 5 -2t5 -2q4 0 8 -4q3 0 5 -1t5 -3q2 0 6 -4l8 -8t7 -8q1 -7 2 -11.5t1 -12.5q0 -6 -1 -11t-2 -11q-4 -5 -7 -9.5t-8 -6.5q-7 -7 -20 -10q-5 -3 -10.5 -3.5t-11.5 -0.5
q-26 0 -40 14q-2 2 -5 4.5t-5 5.5q-4 4 -4 8l4 2l1 1q1 0 1.5 0.5t1.5 0.5h4q8 0 12 -4q3 -5 7 -6.5t7 -3.5q5 -2 8 -2h8h6t8 2q6 0 12 6zM2028 254v-182h-22v182h22zM2098 96q-6 6 -11.5 13.5t-8.5 16.5q-5 8 -6.5 17.5t-1.5 18.5q0 6 1 12t3 12t3.5 12t4.5 12q4 5 7.5 9
t8.5 9t9 8t9 6q10 7 21 10q7 2 13 3t14 1q6 0 12 -1t11 -3q12 -3 23 -10q12 -6 20 -14q5 -5 8 -9t6 -9q3 -6 5.5 -12t4.5 -12t2 -12v-12q0 -20 -6 -36q-8 -17 -20 -30q-16 -14 -30 -20q-20 -6 -36 -6q-22 0 -38 6t-28 20zM2096 190q-6 -12 -6 -28q0 -5 1 -9t3 -9
q2 -6 3 -9.5t3 -8.5q3 -5 6 -8t6 -8q6 -6 14 -10q7 -5 18 -8q5 -2 9.5 -2h10.5h9t9 2q4 2 8.5 3.5t9.5 4.5q5 2 8 4.5t6 5.5q5 5 7 8t5 8q6 8 8 18q2 5 2 9v9q0 16 -6 28q-3 8 -6.5 13.5t-9.5 10.5q-10 10 -22 16q-6 2 -13 3t-15 1t-15 -1t-15 -3q-12 -6 -22 -16
q-5 -5 -9 -10.5t-7 -13.5zM2310 72h-20v182h14q13 0 16 -8l94 -132q2 -1 2 -2.5t2 -3.5v-4v150h22v-182h-20l-106 150l-2 2v2q0 2 -2 4v-158zM2592 232v-62h76v-20h-76v-78h-20v182h112v-22h-92zM2810 168q-3 -6 -12 -12q-3 -2 -7.5 -3t-8.5 -3l60 -78h-12q-10 0 -14 2
q-2 2 -4 3.5t-4 4.5l-50 68h-32v-78h-20v182h64q6 0 10.5 -1t9.5 -3q6 -3 9.5 -6t6.5 -6q9 -6 12 -16q2 -5 3 -10t1 -10v-9t-2 -9q-3 -9 -10 -16zM2782 172q8 4 10 6q6 6 6 9q2 4 3 7t1 8q0 4 -4 12q0 4 -6 10q-2 2 -10 6q-4 2 -12 2h-44v-62h44q8 0 12 2zM3020 96
q-16 -14 -30 -20q-18 -6 -38 -6q-18 0 -36 6q-15 6 -29 20q-13 11 -19 30q-5 8 -6.5 17.5t-1.5 18.5q0 6 1 12t3 12t3.5 12t6.5 12q2 5 5.5 9t7.5 9t9 8l10 6l11 5.5t11 4.5t12 3t12 1q8 0 14 -1t12 -3q11 -3 22 -10q12 -6 20 -14q5 -5 8 -9t6 -9l4 -12l4 -12q3 -6 3.5 -12
t0.5 -12q0 -9 -2 -18.5t-7 -17.5q-4 -17 -17 -30zM2952 90h10.5t9.5 2t9 3.5t9 4.5q5 2 8 4.5t6 5.5q5 5 7 8t5 8q6 8 8 18q2 5 2 9v9q0 16 -6 28q-3 8 -6.5 13.5t-9.5 10.5q-10 10 -22 16q-8 2 -15 3t-15 1q-6 0 -13 -1t-15 -3q-12 -6 -22 -16q-5 -5 -9 -10.5t-7 -13.5
q-6 -12 -6 -28q0 -5 1 -9t1 -9q2 -6 4 -9.5t4 -8.5q3 -5 6 -8t6 -8q6 -6 14 -10q5 -3 9 -4.5t9 -3.5t9 -2h9zM3252 250q4 4 8 4h18v-182h-20v150h-2v-4v-2q0 -1 -1 -2h-1q-5 -11 -9 -21t-7 -19q-5 -11 -9 -19t-7 -18q-5 -8 -9 -16.5t-7 -16.5q-3 -9 -7 -16.5t-7 -15.5h-22
q-8 17 -15 34.5t-15 35.5q-9 18 -16.5 36t-15.5 36q-2 0 -2 4v4v-150h-20v182h16q4 0 8 -4q6 -3 6 -8l64 -140v-4q2 -2 2 -3v-1v4.5t2 5.5t2 5t1 5l59 128q0 5 6 8zM130 0h210v-24v-14q-2 -3 -3 -6t-3 -6l-142 -188q2 0 4 2q2 0 4 2h4h136v-50h-218v16q0 4 1 7.5t1 6.5
q2 3 2 6t2 6l6 12q4 3 8 10l126 170h-138v50zM376 0h182v-50h-130v-66h104v-50h-104v-68h130v-50h-182v284zM786 -50h-84v-234h-52v234h-82v50h218v-50zM914 0l122 -284h-32q-11 0 -20 6q-5 3 -8 7l-6 8l-16 39h-128l-18 -39q0 -3 -4 -7q-2 -3 -4 -4.5t-4 -3.5q-3 -2 -5 -3
t-5 -1q-3 -2 -5.5 -2h-4.5h-34l124 284h48zM932 -172l-38 86q-2 3 -2 5.5t-2 4.5v8q0 -4 -2 -8q0 -2 -1 -4.5t-1 -5.5l-38 -86h84zM1048 0h182v-50h-130v-72h108v-50h-108v-112h-52v284zM1516 -70q5 -8 8.5 -16.5t5.5 -17.5q6 -18 6 -38t-6 -38q-2 -9 -5.5 -18t-8.5 -18
q-9 -15 -22 -28q-6 -6 -13.5 -11.5t-16.5 -10.5q-8 -6 -16.5 -9.5t-17.5 -6.5q-9 -2 -18 -3t-20 -1q-15 0 -29.5 2.5t-26.5 7.5q-14 6 -25.5 13.5t-20.5 18.5q-21 21 -32 46q-6 14 -8 27t-2 29q0 9 0.5 19t3.5 19t6 17.5t8 16.5q5 9 10.5 15.5t13.5 14.5q13 13 28 22
q9 4 17 8.5t17 7.5q11 2 20 3t20 1t20 -1t18 -3q9 -3 17.5 -7.5t16.5 -8.5q9 -5 16.5 -10.5t13.5 -11.5q6 -8 11.5 -14.5t10.5 -15.5zM1478 -178q6 18 6 36t-6 36q-5 9 -9.5 15.5t-10.5 14.5q-8 6 -15.5 10t-14.5 8q-16 8 -36 8q-23 0 -36 -8q-9 -4 -16.5 -8t-13.5 -10
q-6 -8 -10.5 -14.5t-9.5 -15.5q-3 -9 -5.5 -18t-2.5 -18t2.5 -18t5.5 -18q10 -20 20 -30q6 -6 13.5 -10.5t16.5 -9.5q15 -6 36 -6q18 0 36 6q7 5 14.5 9.5t15.5 10.5q6 6 10.5 13.5t9.5 16.5zM1772 0h52v-284h-48l-134 190q-4 4 -4 6q-2 4 -6 8q0 2 -4 6q0 2 -1 3t-1 3v-216
h-52v284h46q8 0 16 -4t10 -9q15 -20 30 -41l30 -42t29.5 -41.5t28.5 -40.5q6 -6 6 -12q2 -3 2 -5.5v-4.5v200zM1848 0h218v-50h-82v-234h-52v234h-84v50zM2246 -146q9 -9 12 -22q6 -12 6 -28q0 -11 -2.5 -19.5t-5.5 -16.5q-5 -9 -10.5 -16.5t-11.5 -14.5q-15 -11 -34 -17
q-20 -6 -36 -6q-22 0 -40 6q-9 5 -16.5 9.5t-15.5 12.5q-5 5 -8 9t-6 9q-5 8 -8 16q2 0 6 4q4 0 8 4q2 0 4 1t4 1t4 0.5t4 0.5q6 0 12 -3q5 0 8 -1t6 -3q7 -7 16 -10q5 -2 10.5 -3t11.5 -1h7t9 2q3 2 7 3t7 3q9 6 12 13q6 7 6 17q0 5 -1 8t-3 6q-3 3 -6 5.5t-6 4.5
q-8 5 -16 8q-8 1 -18 8q-8 2 -15 4.5t-15 5.5t-14 7t-12 9q-10 10 -16 22q-8 13 -8 32q0 10 2.5 18t5.5 16q10 16 20 24q6 4 13 8.5t14 7.5q8 2 16.5 3t16.5 1q6 0 12 -1t12 -3q13 -3 22 -11q6 -2 10.5 -6t9.5 -9q5 -3 8 -7t6 -9l-10 -8l-6 -4t-8 -4t-8 -2.5t-6 -0.5h-4h-4
q-3 2 -5 2.5t-5 2.5q-2 2 -4.5 2t-3.5 2q-2 0 -3.5 1t-4.5 1q-2 2 -8 2h-6t-8 -2q-6 0 -10 -4q-3 -2 -6 -4.5t-4 -3.5q-2 -4 -2 -12t2 -10q1 -3 4 -5t6 -5q3 -2 7 -3t9 -3t10.5 -4t13.5 -4l8 -4q9 -3 15.5 -6t14.5 -8q14 -7 22 -18zM2332 -234q5 -3 5 -10q2 -2 3.5 -5.5
t1.5 -6.5q0 -5 -5 -12q0 -5 -5 -10q-2 -2 -10 -6q-4 -2 -12 -2t-12 2q-8 4 -11 6q-2 3 -3.5 5t-3.5 5q0 3 -1 6t-1 6t1 6.5t1 5.5q4 8 7 10q4 6 11 6q8 4 12 4t12 -4q7 0 10 -6zM2440 -76q-8 -8 -12.5 -14.5t-7.5 -15.5q-8 -16 -8 -36t8 -36q6 -19 20 -30q6 -6 13.5 -10.5
t16.5 -9.5q15 -6 34 -6q8 0 15 1t13 3q14 3 26 12q2 2 4 2t4 2q3 1 5.5 1h4.5q8 0 16 -3q8 -4 12 -8l12 -10q-6 -6 -12 -11.5t-12 -10.5t-13 -9t-13 -7q-8 -5 -15 -6.5t-15 -3.5q-8 -3 -15.5 -3.5t-16.5 -0.5q-14 0 -28 2.5t-28 7.5q-25 11 -46 32q-9 11 -16.5 21.5
t-13.5 24.5q-12 27 -12 56q0 20 6 38q2 9 5.5 17.5t8.5 16.5q5 9 10.5 15.5t11.5 14.5q8 6 14.5 11.5t15.5 10.5q8 4 16.5 8.5t17.5 7.5q11 2 20 3t18 1t16.5 -0.5t15.5 -3.5q13 -3 30 -11q12 -5 26 -15q6 -5 12 -10.5t12 -11.5l-12 -13q-4 -3 -12 -7q-5 -2 -16 -2
q-9 0 -18 6q-6 2 -12 5.5t-14 6.5q-6 2 -13 3t-15 1q-9 0 -17.5 -1.5t-16.5 -6.5q-9 -4 -16.5 -8t-13.5 -10zM2904 -70q5 -8 8.5 -16.5t5.5 -17.5q6 -18 6 -38t-6 -38q-2 -9 -5.5 -18t-8.5 -18q-9 -15 -22 -28q-8 -6 -14.5 -11.5t-15.5 -10.5q-8 -6 -16.5 -9.5t-17.5 -6.5
q-9 -2 -19 -3t-19 -1q-15 0 -29.5 2.5t-28.5 7.5q-12 6 -23.5 13.5t-20.5 18.5q-21 21 -32 46q-7 14 -9.5 27t-2.5 29q0 20 6 38q3 9 6 17.5t8 16.5q5 9 10.5 15.5t13.5 14.5q13 13 28 22q9 4 17 8.5t17 7.5q11 2 20 3t20 1q9 0 19 -1t19 -3q9 -3 17.5 -7.5t16.5 -8.5
q9 -5 15.5 -10.5t14.5 -11.5q6 -8 11.5 -14.5t10.5 -15.5zM2866 -178q6 18 6 36t-6 36q-5 9 -9.5 15.5t-10.5 14.5q-8 6 -15 10t-15 8q-16 8 -36 8q-23 0 -36 -8q-9 -4 -16.5 -8t-13.5 -10q-6 -8 -11.5 -14.5t-8.5 -15.5q-5 -9 -6.5 -18t-1.5 -18t1.5 -18t6.5 -18
q3 -9 8.5 -16.5t11.5 -13.5t13.5 -10.5t16.5 -9.5q15 -6 36 -6q18 0 36 6q8 5 15 9.5t15 10.5q6 6 10.5 13.5t9.5 16.5zM3216 -2q2 0 4.5 1t5.5 1h52v-284h-52v208q-2 -3 -3 -6t-1 -8q-2 -5 -3 -8t-3 -6l-36 -90q-9 -23 -18 -45t-20 -45h-46l-74 180q-2 3 -3 6t-3 8
q0 4 -4 12v-206h-52v284h52q3 0 6 -1t6 -1q2 -2 4 -2t4 -2q3 -2 4.5 -4.5t3.5 -3.5q2 -2 3 -4t3 -4q9 -23 17 -44t17 -42q9 -23 17.5 -44t16.5 -42q2 -2 2 -6q0 -2 1 -3t1 -3v-7v-1l2 1v7q0 4 2 6v6l10 20l60 152q0 5 6 8q3 5 8 8q2 2 5 2t5 2z" />
    <glyph glyph-name="six" unicode="6" horiz-adv-x="3492" 
d="M2558 600q6 -5 9.5 -10.5t6.5 -13.5q6 -12 6 -30q0 -13 -6 -28q-3 -6 -6.5 -12t-9.5 -12q-5 -5 -10.5 -9t-13.5 -7q-12 -6 -28 -6q-9 0 -15.5 1.5t-14.5 4.5q-6 3 -12 7t-12 9q-5 6 -9 12t-7 12q-6 15 -6 28q0 18 6 30q3 8 7 13.5t9 10.5q6 6 12 9.5t12 6.5q8 3 14.5 4.5
t15.5 1.5q16 0 28 -6q8 -3 13.5 -6.5t10.5 -9.5zM716 576q-2 -2 -3.5 -4.5t-4.5 -5.5q-2 -2 -10 -6q-4 -2 -12 -2h-44v62h44q4 0 12 -4q7 0 10 -6q3 -2 4.5 -4t3.5 -4q0 -3 1 -6.5t1 -8.5q0 -2 -1 -5t-1 -6zM1086 600q11 -11 16 -24q6 -12 6 -30q0 -13 -6 -28q-3 -6 -7 -12
t-9 -12q-6 -5 -12 -9t-12 -7q-15 -6 -30 -6t-28 6q-13 5 -24 16q-6 6 -9.5 12t-6.5 12q-6 15 -6 28q0 18 6 30q3 8 6.5 13.5t9.5 10.5q5 6 10.5 9.5t13.5 6.5q13 6 28 6t30 -6q6 -3 12 -6.5t12 -9.5zM1462 616q0 -10 2 -12l36 -84h-78l36 84q2 2 2 4t1 4t1 4zM390 610
q4 -4 8 -12q2 -4 2 -14v-7t-2 -7q-4 -8 -8 -10q-4 -5 -10 -8q-5 -2 -8 -3t-6 -1h-44v72h44q3 0 6 -1t8 -3q3 0 5.5 -2t4.5 -4zM3278 1084v-766h-3148v766h1194q0 79 30 150q31 71 82 122q53 50 122 80t146 30q85 0 152 -32q69 -33 120 -84q50 -53 80 -122t30 -144h1192z
M1380 1216q-12 -32 -19 -65t-7 -69q0 -69 28 -134q14 -32 32 -60t42 -52q45 -48 110 -76q63 -30 138 -30q71 0 136 28q63 27 112 76q24 23 42.5 50.5t33.5 59.5q26 64 26 138q0 33 -4.5 63t-15.5 57q-9 26 -23.5 51.5t-32.5 48.5q-18 21 -38 39t-44 35q-24 14 -49 25t-51 19
q-21 8 -43.5 11t-48.5 3q-74 0 -140 -30q-32 -14 -59 -33t-51 -43t-42 -52t-32 -60zM424 560q2 6 3 12t1 12q0 8 -1 14t-3 12q-3 5 -6 9t-8 9t-9.5 8.5t-10.5 5.5q-12 6 -24 6h-72v-200h28v74h44q6 0 12 1t12 3q12 6 20 14t14 20zM572 648h-124v-200h124v26h-96v60h78v28
h-78v58h96v28zM768 448l-64 86q5 2 9 3t7 5q8 3 14 12q5 6 8 16q2 5 2 9v8q0 8 -0.5 13.5t-3.5 11.5q-2 5 -5.5 9t-6.5 9q-9 9 -18 12q-12 6 -24 6h-72v-200h28v82h30l52 -70q3 -7 10 -10q2 -2 6.5 -2h9.5h18zM902 482q6 12 6 24q0 28 -22 44q-2 2 -4 3t-4 3q-3 2 -5 2t-5 2
q-2 2 -4 2t-6 2q-2 0 -10 4q-5 2 -9 3t-7 3q-5 2 -7 3t-5 3q-4 4 -6 7q-1 3 -1 11q0 6 1 10q2 2 3.5 4t4.5 4q2 0 10 4q4 2 12 2q3 0 5.5 -1t4.5 -1q3 -2 6.5 -3t5.5 -3q8 -4 12 -4q8 0 14 6l6 4q-2 3 -4.5 5t-5.5 5t-6 5t-6 5q-3 2 -7 3t-9 3q-8 4 -16 4q-6 0 -11 -1
t-11 -3t-10.5 -4.5t-9.5 -5.5q-3 -3 -6 -7t-6 -9q-6 -9 -6 -22q0 -8 1.5 -12.5t4.5 -9.5q3 -10 12 -16q7 -7 18 -10q5 -3 9.5 -5t10.5 -5q3 -2 6 -2.5t8 -1.5q3 -2 6.5 -3t5.5 -3q3 -3 5.5 -5t4.5 -5t3 -6t1 -8q0 -6 -4 -14q-3 -7 -10 -10q-2 -3 -5.5 -4.5t-6.5 -3.5
q-5 0 -8 -1t-8 -1q-3 0 -7 1t-7 1q-8 4 -11 8l-3 2q-6 6 -16 6q-7 0 -10 -4l-8 -2q2 -2 2 -3t2 -1q0 -2 1 -3t1 -3q4 -4 5 -6q4 -5 7 -5q9 -10 19.5 -13.5t24.5 -3.5q8 0 14 0.5t14 3.5q11 3 20 13q11 9 16 19zM1132 520q2 8 2 13.5v12.5v15t-2 13q-3 8 -5 14t-7 12
q-3 5 -7 10t-7 10q-6 5 -11 8t-11 8q-6 3 -12 5.5t-12 4.5q-8 2 -14 3t-14 1q-6 0 -13 -1t-13 -3q-8 -2 -14 -4.5t-12 -5.5q-5 -5 -10 -8t-10 -8t-9 -10t-7 -10q-3 -6 -5.5 -12t-4.5 -14q-2 -6 -3 -13t-1 -15q0 -9 1.5 -19t6.5 -19q5 -11 10.5 -18.5t11.5 -15.5
q8 -6 15.5 -11.5t16.5 -8.5q19 -8 40 -8h14t14 2q6 3 12 5t12 7q10 5 22 14q3 5 7 10.5t7 11.5q5 6 7 12t5 12zM1342 648h-28v-156q0 5 -1 8t-3 6l-98 134q-4 4 -8 6q-3 0 -6 1t-6 1h-20v-200h28v168v-4q2 -2 2 -3v-1q0 -2 1 -3q0 -1 1 -1l114 -156h24v200zM1562 448
l-86 200h-28l-88 -200h16q8 0 11 2q7 5 9 10l14 32h102l14 -32q4 -8 8 -10q2 -2 5.5 -2h6.5h16zM1696 474h-86v174h-28v-200h114v26zM1972 648h-28v-122q0 -6 -1 -11t-3 -11q-3 -5 -5 -9t-7 -7q-3 -5 -7 -7t-8 -5q-7 -2 -12 -3t-11 -1q-5 0 -10 1t-10 3q-5 3 -9 5t-7 7
q-9 6 -12 16q-2 6 -3 11t-1 11v122h-28v-122q0 -6 0.5 -11.5t2.5 -10.5q1 -6 3 -10.5t4 -9.5q3 -5 6 -9t8 -7q3 -3 7 -6t9 -6t10 -4.5t10 -3.5t10 -3t10 -1q6 0 12 1t11 3q12 3 19 8q5 3 8 6t8 6q3 3 6 7t6 9q5 7 8 20q2 5 3 10.5t1 11.5v122zM2126 482q3 6 3.5 12t0.5 12
q0 30 -20 44q-4 2 -8 6q-3 2 -5 2t-5 2q-4 2 -5.5 2t-4.5 2q-3 0 -5 1t-5 3q-5 2 -9 3t-7 3q-9 3 -12 6q-6 3 -6 7q-2 3 -2 11q0 6 2 10q2 2 3.5 4t4.5 4q2 0 10 4q4 2 12 2q3 0 5 -1t5 -1l12 -6q8 -4 12 -4q6 0 12 6l8 4q-2 3 -4.5 5t-5.5 5t-6 5t-6 5q-3 2 -7 3t-9 3t-8 3
t-8 1q-6 0 -11.5 -1t-10.5 -3q-6 -2 -10.5 -4.5t-9.5 -5.5q-3 -3 -6.5 -7t-5.5 -9q-6 -9 -6 -22q0 -8 1.5 -12.5t3.5 -9.5q5 -11 13 -16q7 -7 16 -10q6 -3 11 -5t11 -5q3 -2 6 -2.5t8 -1.5l12 -6q3 -3 5.5 -5t4.5 -5t3 -6t1 -8q0 -6 -4 -14q-3 -7 -10 -10q-5 -5 -14 -8
q-3 0 -7 -1t-7 -1q-5 0 -8 1t-6 1q-10 3 -12 8l-2 2q-6 6 -16 6q-8 0 -10 -4l-8 -2q0 -2 1 -3q0 -1 1 -1q2 -2 2 -3t2 -3q4 -4 4 -6q4 -5 8 -5q9 -10 19.5 -13.5t24.5 -3.5q8 0 14 0.5t11 3.5q15 3 23 13q11 9 16 19zM2290 648h-124v-200h124v26h-98v60h78v28h-78v58h98v28z
M2604 520q2 8 3 13.5t1 12.5q0 8 -1 15t-3 13q-2 8 -4.5 14t-5.5 12q-3 5 -7 10t-9 10t-10 8t-10 8q-6 3 -12 5.5t-14 4.5q-6 2 -13 3t-13 1q-8 0 -14.5 -1t-13.5 -3q-6 -2 -12 -4.5t-12 -5.5q-6 -5 -11 -8t-11 -8q-5 -5 -8 -10t-8 -10q-3 -6 -5 -12t-5 -14q-2 -6 -2 -13
v-15q0 -9 1.5 -19t6.5 -19q3 -11 8.5 -18.5t11.5 -15.5q8 -6 16.5 -11.5t17.5 -8.5q16 -8 40 -8h13t13 2q8 3 14 5t12 7l10 6t10 8q10 10 16 22q3 6 5.5 12t4.5 12zM2814 648h-28v-156q0 5 -1 8t-3 6l-98 134q-4 4 -8 6q-2 0 -4.5 1t-7.5 1h-20v-200h28v168q2 -2 2 -3v-1
q0 -4 2 -4q0 -4 2 -4l114 -156h22v200zM2978 474h-88v174h-26v-200h114v26zM3136 648h-18q-10 0 -14 -4q-3 -2 -5.5 -5t-4.5 -5l-48 -64q-1 0 -2 -1v-1q0 -1 -0.5 -1.5t-0.5 -1.5l-1 -1v4v1l-2 1l-46 64q-3 2 -5.5 5t-4.5 5q-5 2 -8 3t-8 1h-18l72 -98l1 -1q0 -1 0.5 -1.5
t0.5 -1.5q2 -2 2 -3t2 -1v-5v-5v-84h28v84q0 2 1 3t1 2v2q0 1 2 3v1q0 1 2 3q0 4 4 4zM1590 787q-27 11 -51 26t-47 33h424q-23 -18 -47 -33t-51 -26q-26 -10 -55 -15.5t-59 -5.5q-31 0 -59.5 5.5t-54.5 15.5zM1528 880l412 416q78 -102 78 -214q0 -29 -4 -55.5t-14 -52.5
q-9 -26 -22 -48.5t-30 -45.5h-420zM1468 870q-20 23 -34.5 47t-23.5 51q-11 26 -15.5 55t-4.5 59q0 57 18 108q8 26 21 48.5t31 45.5h418zM1818 1378q54 -24 96 -60h-422q21 20 45.5 34.5t49.5 25.5q53 20 117 20q30 0 59 -4.5t55 -15.5zM136 116q-7 10 -10 21q-2 7 -3 13
t-1 12t1 12t3 12t4.5 12t5.5 12q3 5 6 9t8 9q8 8 20 14q11 7 22 10q6 2 12 3t12 1q11 0 20 -2.5t18 -5.5q8 -5 15 -9.5t13 -10.5q0 -2 -1 -2t-3 -2l-2 -2q-2 -2 -3 -2h-1h-6h-4t-4 2q-5 3 -9.5 5.5t-10.5 4.5q-5 2 -10.5 2h-11.5q-8 0 -15 -1t-14 -3q-12 -7 -21 -16
q-6 -5 -9.5 -10.5t-6.5 -13.5q-6 -12 -6 -28v-9t2 -9q2 -10 8 -18q3 -5 6 -8t6 -8q6 -6 14 -10q5 -3 9 -4.5t9 -3.5t9.5 -2h10.5h12t12 2t11 4.5l11 5.5v38h-14q-2 0 -4 1t-4 1q-2 2 -3 2t-3 2q0 2 -1 3t-1 3q-2 2 -2 6v2h50v-70q-3 -5 -6 -7t-8 -5q-3 -2 -6 -3t-8 -1
q-5 -2 -9 -3t-9 -1h-20h-12t-12 2q-11 3 -22 10q-12 6 -20 14t-14 20zM348 232v-58h72v-20h-72v-62h90v-20h-110v182h110v-22h-90zM518 72v160h-58v22h138v-22h-58v-160h-22zM732 232v-62h76v-20h-76v-78h-20v182h110v-22h-90zM878 254v-112q0 -6 0.5 -10.5t3.5 -9.5
q2 -6 4.5 -9.5t5.5 -8.5q5 -3 8.5 -5.5t9.5 -4.5q5 -3 9.5 -3.5t10.5 -0.5t10.5 0.5t9.5 3.5q11 4 16 10q5 5 7 8.5t5 9.5q2 5 3 9.5t1 10.5v112h20v-112q0 -16 -6 -28q-3 -8 -6 -13.5t-8 -10.5q-6 -5 -12 -9t-12 -7q-6 -2 -13 -3t-15 -1t-15 1t-13 3q-13 5 -24 16
q-5 5 -9 10.5t-6 13.5q-4 6 -4.5 13t-0.5 15v112h20zM1062 254v-162h80v-20h-102v182h22zM1186 254v-162h80v-20h-100v182h20zM1432 72l-78 182h10q3 0 5 -1t5 -3q2 -2 4 -3.5t2 -4.5l60 -136q0 -2 1 -3t1 -3v-6v6q2 2 2 6q8 17 15 34t15 34q8 18 15 34.5t15 33.5q2 4 6 8
q8 4 10 4h12q-11 -23 -21 -46t-19 -46q-11 -23 -20 -45t-20 -45h-20zM1568 232v-58h72v-20h-72v-62h90v-20h-112v182h112v-22h-90zM1794 156q-5 -2 -8 -3t-8 -3l58 -78h-12q-8 0 -11 2q-6 2 -9 8l-52 68h-30v-78h-22v182h66q5 0 10 -1t10 -3q5 -3 9 -6t7 -6t6 -7t6 -9
q2 -5 3 -10t1 -10t-1 -9t-3 -9q-2 -10 -8 -16zM1766 170q8 0 12 2q3 2 5 3t5 3q2 3 3 5t3 4q2 4 3 7t1 8q0 4 -4 12q-2 3 -3 5t-3 5q-3 2 -5 3t-5 3q-4 2 -12 2h-44v-62h44zM1932 98q7 3 10 10q4 10 4 14q0 9 -4 15q-3 6 -8 9q-4 4 -12 8q-4 0 -14 4q-6 2 -10.5 4t-9.5 4
q-9 3 -16 10q-3 2 -5.5 5.5t-3.5 5.5q-2 5 -3.5 10t-1.5 11q0 11 6 20q3 8 12 14q7 7 16 10q5 2 10.5 3t10.5 1q2 0 6 -1t7 -1q5 -2 8 -3t6 -3q3 -3 5.5 -4.5t4.5 -3.5l8 -8l-4 -4q-4 -4 -10 -4q-8 0 -10 2t-3 2t-3 2q-2 0 -2 1t-2 1t-3 1t-3 1h-5h-8t-7 -2q-3 0 -5 -1
t-5 -3q-2 -3 -4 -5t-2 -5q-4 -4 -4 -10q0 -8 2 -10q2 -4 6 -8q5 -4 12 -6q3 -2 7 -3t9 -3q3 -2 5 -2t5 -2q4 0 8 -4q3 0 5 -1t5 -3q2 0 6 -4l8 -8t7 -8q1 -7 2 -11.5t1 -12.5q0 -6 -1 -11t-2 -11q-4 -5 -7 -9.5t-8 -6.5q-7 -7 -20 -10q-5 -3 -10.5 -3.5t-11.5 -0.5
q-26 0 -40 14q-2 2 -5 4.5t-5 5.5q-4 4 -4 8l4 2l1 1q1 0 1.5 0.5t1.5 0.5h4q8 0 12 -4q3 -5 7 -6.5t7 -3.5q5 -2 8 -2h8h6t8 2q6 0 12 6zM2028 254v-182h-22v182h22zM2098 96q-6 6 -11.5 13.5t-8.5 16.5q-5 8 -6.5 17.5t-1.5 18.5q0 6 1 12t3 12t3.5 12t4.5 12q4 5 7.5 9
t8.5 9t9 8t9 6q10 7 21 10q7 2 13 3t14 1q6 0 12 -1t11 -3q12 -3 23 -10q12 -6 20 -14q5 -5 8 -9t6 -9q3 -6 5.5 -12t4.5 -12t2 -12v-12q0 -20 -6 -36q-8 -17 -20 -30q-16 -14 -30 -20q-20 -6 -36 -6q-22 0 -38 6t-28 20zM2096 190q-6 -12 -6 -28q0 -5 1 -9t3 -9
q2 -6 3 -9.5t3 -8.5q3 -5 6 -8t6 -8q6 -6 14 -10q7 -5 18 -8q5 -2 9.5 -2h10.5h9t9 2q4 2 8.5 3.5t9.5 4.5q5 2 8 4.5t6 5.5q5 5 7 8t5 8q6 8 8 18q2 5 2 9v9q0 16 -6 28q-3 8 -6.5 13.5t-9.5 10.5q-10 10 -22 16q-6 2 -13 3t-15 1t-15 -1t-15 -3q-12 -6 -22 -16
q-5 -5 -9 -10.5t-7 -13.5zM2310 72h-20v182h14q13 0 16 -8l94 -132q2 -1 2 -2.5t2 -3.5v-4v150h22v-182h-20l-106 150l-2 2v2q0 2 -2 4v-158zM2592 232v-62h76v-20h-76v-78h-20v182h112v-22h-92zM2810 168q-3 -6 -12 -12q-3 -2 -7.5 -3t-8.5 -3l60 -78h-12q-10 0 -14 2
q-2 2 -4 3.5t-4 4.5l-50 68h-32v-78h-20v182h64q6 0 10.5 -1t9.5 -3q6 -3 9.5 -6t6.5 -6q9 -6 12 -16q2 -5 3 -10t1 -10v-9t-2 -9q-3 -9 -10 -16zM2782 172q8 4 10 6q6 6 6 9q2 4 3 7t1 8q0 4 -4 12q0 4 -6 10q-2 2 -10 6q-4 2 -12 2h-44v-62h44q8 0 12 2zM3020 96
q-16 -14 -30 -20q-18 -6 -38 -6q-18 0 -36 6q-15 6 -29 20q-13 11 -19 30q-5 8 -6.5 17.5t-1.5 18.5q0 6 1 12t3 12t3.5 12t6.5 12q2 5 5.5 9t7.5 9t9 8l10 6l11 5.5t11 4.5t12 3t12 1q8 0 14 -1t12 -3q11 -3 22 -10q12 -6 20 -14q5 -5 8 -9t6 -9l4 -12l4 -12q3 -6 3.5 -12
t0.5 -12q0 -9 -2 -18.5t-7 -17.5q-4 -17 -17 -30zM2952 90h10.5t9.5 2t9 3.5t9 4.5q5 2 8 4.5t6 5.5q5 5 7 8t5 8q6 8 8 18q2 5 2 9v9q0 16 -6 28q-3 8 -6.5 13.5t-9.5 10.5q-10 10 -22 16q-8 2 -15 3t-15 1q-6 0 -13 -1t-15 -3q-12 -6 -22 -16q-5 -5 -9 -10.5t-7 -13.5
q-6 -12 -6 -28q0 -5 1 -9t1 -9q2 -6 4 -9.5t4 -8.5q3 -5 6 -8t6 -8q6 -6 14 -10q5 -3 9 -4.5t9 -3.5t9 -2h9zM3252 250q4 4 8 4h18v-182h-20v150h-2v-4v-2q0 -1 -1 -2h-1q-5 -11 -9 -21t-7 -19q-5 -11 -9 -19t-7 -18q-5 -8 -9 -16.5t-7 -16.5q-3 -9 -7 -16.5t-7 -15.5h-22
q-8 17 -15 34.5t-15 35.5q-9 18 -16.5 36t-15.5 36q-2 0 -2 4v4v-150h-20v182h16q4 0 8 -4q6 -3 6 -8l64 -140v-4q2 -2 2 -3v-1v4.5t2 5.5t2 5t1 5l59 128q0 5 6 8zM130 0h210v-24v-14q-2 -3 -3 -6t-3 -6l-142 -188q2 0 4 2q2 0 4 2h4h136v-50h-218v16q0 4 1 7.5t1 6.5
q2 3 2 6t2 6l6 12q4 3 8 10l126 170h-138v50zM376 0h182v-50h-130v-66h104v-50h-104v-68h130v-50h-182v284zM786 -50h-84v-234h-52v234h-82v50h218v-50zM914 0l122 -284h-32q-11 0 -20 6q-5 3 -8 7l-6 8l-16 39h-128l-18 -39q0 -3 -4 -7q-2 -3 -4 -4.5t-4 -3.5q-3 -2 -5 -3
t-5 -1q-3 -2 -5.5 -2h-4.5h-34l124 284h48zM932 -172l-38 86q-2 3 -2 5.5t-2 4.5v8q0 -4 -2 -8q0 -2 -1 -4.5t-1 -5.5l-38 -86h84zM1048 0h182v-50h-130v-72h108v-50h-108v-112h-52v284zM1516 -70q5 -8 8.5 -16.5t5.5 -17.5q6 -18 6 -38t-6 -38q-2 -9 -5.5 -18t-8.5 -18
q-9 -15 -22 -28q-6 -6 -13.5 -11.5t-16.5 -10.5q-8 -6 -16.5 -9.5t-17.5 -6.5q-9 -2 -18 -3t-20 -1q-15 0 -29.5 2.5t-26.5 7.5q-14 6 -25.5 13.5t-20.5 18.5q-21 21 -32 46q-6 14 -8 27t-2 29q0 9 0.5 19t3.5 19t6 17.5t8 16.5q5 9 10.5 15.5t13.5 14.5q13 13 28 22
q9 4 17 8.5t17 7.5q11 2 20 3t20 1t20 -1t18 -3q9 -3 17.5 -7.5t16.5 -8.5q9 -5 16.5 -10.5t13.5 -11.5q6 -8 11.5 -14.5t10.5 -15.5zM1478 -178q6 18 6 36t-6 36q-5 9 -9.5 15.5t-10.5 14.5q-8 6 -15.5 10t-14.5 8q-16 8 -36 8q-23 0 -36 -8q-9 -4 -16.5 -8t-13.5 -10
q-6 -8 -10.5 -14.5t-9.5 -15.5q-3 -9 -5.5 -18t-2.5 -18t2.5 -18t5.5 -18q10 -20 20 -30q6 -6 13.5 -10.5t16.5 -9.5q15 -6 36 -6q18 0 36 6q7 5 14.5 9.5t15.5 10.5q6 6 10.5 13.5t9.5 16.5zM1772 0h52v-284h-48l-134 190q-4 4 -4 6q-2 4 -6 8q0 2 -4 6q0 2 -1 3t-1 3v-216
h-52v284h46q8 0 16 -4t10 -9q15 -20 30 -41l30 -42t29.5 -41.5t28.5 -40.5q6 -6 6 -12q2 -3 2 -5.5v-4.5v200zM1848 0h218v-50h-82v-234h-52v234h-84v50zM2246 -146q9 -9 12 -22q6 -12 6 -28q0 -11 -2.5 -19.5t-5.5 -16.5q-5 -9 -10.5 -16.5t-11.5 -14.5q-15 -11 -34 -17
q-20 -6 -36 -6q-22 0 -40 6q-9 5 -16.5 9.5t-15.5 12.5q-5 5 -8 9t-6 9q-5 8 -8 16q2 0 6 4q4 0 8 4q2 0 4 1t4 1t4 0.5t4 0.5q6 0 12 -3q5 0 8 -1t6 -3q7 -7 16 -10q5 -2 10.5 -3t11.5 -1h7t9 2q3 2 7 3t7 3q9 6 12 13q6 7 6 17q0 5 -1 8t-3 6q-3 3 -6 5.5t-6 4.5
q-8 5 -16 8q-8 1 -18 8q-8 2 -15 4.5t-15 5.5t-14 7t-12 9q-10 10 -16 22q-8 13 -8 32q0 10 2.5 18t5.5 16q10 16 20 24q6 4 13 8.5t14 7.5q8 2 16.5 3t16.5 1q6 0 12 -1t12 -3q13 -3 22 -11q6 -2 10.5 -6t9.5 -9q5 -3 8 -7t6 -9l-10 -8l-6 -4t-8 -4t-8 -2.5t-6 -0.5h-4h-4
q-3 2 -5 2.5t-5 2.5q-2 2 -4.5 2t-3.5 2q-2 0 -3.5 1t-4.5 1q-2 2 -8 2h-6t-8 -2q-6 0 -10 -4q-3 -2 -6 -4.5t-4 -3.5q-2 -4 -2 -12t2 -10q1 -3 4 -5t6 -5q3 -2 7 -3t9 -3t10.5 -4t13.5 -4l8 -4q9 -3 15.5 -6t14.5 -8q14 -7 22 -18zM2332 -234q5 -3 5 -10q2 -2 3.5 -5.5
t1.5 -6.5q0 -5 -5 -12q0 -5 -5 -10q-2 -2 -10 -6q-4 -2 -12 -2t-12 2q-8 4 -11 6q-2 3 -3.5 5t-3.5 5q0 3 -1 6t-1 6t1 6.5t1 5.5q4 8 7 10q4 6 11 6q8 4 12 4t12 -4q7 0 10 -6zM2440 -76q-8 -8 -12.5 -14.5t-7.5 -15.5q-8 -16 -8 -36t8 -36q6 -19 20 -30q6 -6 13.5 -10.5
t16.5 -9.5q15 -6 34 -6q8 0 15 1t13 3q14 3 26 12q2 2 4 2t4 2q3 1 5.5 1h4.5q8 0 16 -3q8 -4 12 -8l12 -10q-6 -6 -12 -11.5t-12 -10.5t-13 -9t-13 -7q-8 -5 -15 -6.5t-15 -3.5q-8 -3 -15.5 -3.5t-16.5 -0.5q-14 0 -28 2.5t-28 7.5q-25 11 -46 32q-9 11 -16.5 21.5
t-13.5 24.5q-12 27 -12 56q0 20 6 38q2 9 5.5 17.5t8.5 16.5q5 9 10.5 15.5t11.5 14.5q8 6 14.5 11.5t15.5 10.5q8 4 16.5 8.5t17.5 7.5q11 2 20 3t18 1t16.5 -0.5t15.5 -3.5q13 -3 30 -11q12 -5 26 -15q6 -5 12 -10.5t12 -11.5l-12 -13q-4 -3 -12 -7q-5 -2 -16 -2
q-9 0 -18 6q-6 2 -12 5.5t-14 6.5q-6 2 -13 3t-15 1q-9 0 -17.5 -1.5t-16.5 -6.5q-9 -4 -16.5 -8t-13.5 -10zM2904 -70q5 -8 8.5 -16.5t5.5 -17.5q6 -18 6 -38t-6 -38q-2 -9 -5.5 -18t-8.5 -18q-9 -15 -22 -28q-8 -6 -14.5 -11.5t-15.5 -10.5q-8 -6 -16.5 -9.5t-17.5 -6.5
q-9 -2 -19 -3t-19 -1q-15 0 -29.5 2.5t-28.5 7.5q-12 6 -23.5 13.5t-20.5 18.5q-21 21 -32 46q-7 14 -9.5 27t-2.5 29q0 20 6 38q3 9 6 17.5t8 16.5q5 9 10.5 15.5t13.5 14.5q13 13 28 22q9 4 17 8.5t17 7.5q11 2 20 3t20 1q9 0 19 -1t19 -3q9 -3 17.5 -7.5t16.5 -8.5
q9 -5 15.5 -10.5t14.5 -11.5q6 -8 11.5 -14.5t10.5 -15.5zM2866 -178q6 18 6 36t-6 36q-5 9 -9.5 15.5t-10.5 14.5q-8 6 -15 10t-15 8q-16 8 -36 8q-23 0 -36 -8q-9 -4 -16.5 -8t-13.5 -10q-6 -8 -11.5 -14.5t-8.5 -15.5q-5 -9 -6.5 -18t-1.5 -18t1.5 -18t6.5 -18
q3 -9 8.5 -16.5t11.5 -13.5t13.5 -10.5t16.5 -9.5q15 -6 36 -6q18 0 36 6q8 5 15 9.5t15 10.5q6 6 10.5 13.5t9.5 16.5zM3216 -2q2 0 4.5 1t5.5 1h52v-284h-52v208q-2 -3 -3 -6t-1 -8q-2 -5 -3 -8t-3 -6l-36 -90q-9 -23 -18 -45t-20 -45h-46l-74 180q-2 3 -3 6t-3 8
q0 4 -4 12v-206h-52v284h52q3 0 6 -1t6 -1q2 -2 4 -2t4 -2q3 -2 4.5 -4.5t3.5 -3.5q2 -2 3 -4t3 -4q9 -23 17 -44t17 -42q9 -23 17.5 -44t16.5 -42q2 -2 2 -6q0 -2 1 -3t1 -3v-7v-1l2 1v7q0 4 2 6v6l10 20l60 152q0 5 6 8q3 5 8 8q2 2 5 2t5 2z" />
    <glyph glyph-name="seven" unicode="7" horiz-adv-x="3492" 
d="M2558 600q6 -5 9.5 -10.5t6.5 -13.5q6 -12 6 -30q0 -13 -6 -28q-3 -6 -6.5 -12t-9.5 -12q-5 -5 -10.5 -9t-13.5 -7q-12 -6 -28 -6q-9 0 -15.5 1.5t-14.5 4.5q-6 3 -12 7t-12 9q-5 6 -9 12t-7 12q-6 15 -6 28q0 18 6 30q3 8 7 13.5t9 10.5q6 6 12 9.5t12 6.5q8 3 14.5 4.5
t15.5 1.5q16 0 28 -6q8 -3 13.5 -6.5t10.5 -9.5zM716 576q-2 -2 -3.5 -4.5t-4.5 -5.5q-2 -2 -10 -6q-4 -2 -12 -2h-44v62h44q4 0 12 -4q7 0 10 -6q3 -2 4.5 -4t3.5 -4q0 -3 1 -6.5t1 -8.5q0 -2 -1 -5t-1 -6zM1086 600q11 -11 16 -24q6 -12 6 -30q0 -13 -6 -28q-3 -6 -7 -12
t-9 -12q-6 -5 -12 -9t-12 -7q-15 -6 -30 -6t-28 6q-13 5 -24 16q-6 6 -9.5 12t-6.5 12q-6 15 -6 28q0 18 6 30q3 8 6.5 13.5t9.5 10.5q5 6 10.5 9.5t13.5 6.5q13 6 28 6t30 -6q6 -3 12 -6.5t12 -9.5zM1462 616q0 -10 2 -12l36 -84h-78l36 84q2 2 2 4t1 4t1 4zM390 610
q4 -4 8 -12q2 -4 2 -14v-7t-2 -7q-4 -8 -8 -10q-4 -5 -10 -8q-5 -2 -8 -3t-6 -1h-44v72h44q3 0 6 -1t8 -3q3 0 5.5 -2t4.5 -4zM3278 1084v-766h-3148v766h1194q0 79 30 150q31 71 82 122q53 50 122 80t146 30q85 0 152 -32q69 -33 120 -84q50 -53 80 -122t30 -144h1192z
M1380 1216q-12 -32 -19 -65t-7 -69q0 -69 28 -134q14 -32 32 -60t42 -52q45 -48 110 -76q63 -30 138 -30q71 0 136 28q63 27 112 76q24 23 42.5 50.5t33.5 59.5q26 64 26 138q0 33 -4.5 63t-15.5 57q-9 26 -23.5 51.5t-32.5 48.5q-18 21 -38 39t-44 35q-24 14 -49 25t-51 19
q-21 8 -43.5 11t-48.5 3q-74 0 -140 -30q-32 -14 -59 -33t-51 -43t-42 -52t-32 -60zM424 560q2 6 3 12t1 12q0 8 -1 14t-3 12q-3 5 -6 9t-8 9t-9.5 8.5t-10.5 5.5q-12 6 -24 6h-72v-200h28v74h44q6 0 12 1t12 3q12 6 20 14t14 20zM572 648h-124v-200h124v26h-96v60h78v28
h-78v58h96v28zM768 448l-64 86q5 2 9 3t7 5q8 3 14 12q5 6 8 16q2 5 2 9v8q0 8 -0.5 13.5t-3.5 11.5q-2 5 -5.5 9t-6.5 9q-9 9 -18 12q-12 6 -24 6h-72v-200h28v82h30l52 -70q3 -7 10 -10q2 -2 6.5 -2h9.5h18zM902 482q6 12 6 24q0 28 -22 44q-2 2 -4 3t-4 3q-3 2 -5 2t-5 2
q-2 2 -4 2t-6 2q-2 0 -10 4q-5 2 -9 3t-7 3q-5 2 -7 3t-5 3q-4 4 -6 7q-1 3 -1 11q0 6 1 10q2 2 3.5 4t4.5 4q2 0 10 4q4 2 12 2q3 0 5.5 -1t4.5 -1q3 -2 6.5 -3t5.5 -3q8 -4 12 -4q8 0 14 6l6 4q-2 3 -4.5 5t-5.5 5t-6 5t-6 5q-3 2 -7 3t-9 3q-8 4 -16 4q-6 0 -11 -1
t-11 -3t-10.5 -4.5t-9.5 -5.5q-3 -3 -6 -7t-6 -9q-6 -9 -6 -22q0 -8 1.5 -12.5t4.5 -9.5q3 -10 12 -16q7 -7 18 -10q5 -3 9.5 -5t10.5 -5q3 -2 6 -2.5t8 -1.5q3 -2 6.5 -3t5.5 -3q3 -3 5.5 -5t4.5 -5t3 -6t1 -8q0 -6 -4 -14q-3 -7 -10 -10q-2 -3 -5.5 -4.5t-6.5 -3.5
q-5 0 -8 -1t-8 -1q-3 0 -7 1t-7 1q-8 4 -11 8l-3 2q-6 6 -16 6q-7 0 -10 -4l-8 -2q2 -2 2 -3t2 -1q0 -2 1 -3t1 -3q4 -4 5 -6q4 -5 7 -5q9 -10 19.5 -13.5t24.5 -3.5q8 0 14 0.5t14 3.5q11 3 20 13q11 9 16 19zM1132 520q2 8 2 13.5v12.5v15t-2 13q-3 8 -5 14t-7 12
q-3 5 -7 10t-7 10q-6 5 -11 8t-11 8q-6 3 -12 5.5t-12 4.5q-8 2 -14 3t-14 1q-6 0 -13 -1t-13 -3q-8 -2 -14 -4.5t-12 -5.5q-5 -5 -10 -8t-10 -8t-9 -10t-7 -10q-3 -6 -5.5 -12t-4.5 -14q-2 -6 -3 -13t-1 -15q0 -9 1.5 -19t6.5 -19q5 -11 10.5 -18.5t11.5 -15.5
q8 -6 15.5 -11.5t16.5 -8.5q19 -8 40 -8h14t14 2q6 3 12 5t12 7q10 5 22 14q3 5 7 10.5t7 11.5q5 6 7 12t5 12zM1342 648h-28v-156q0 5 -1 8t-3 6l-98 134q-4 4 -8 6q-3 0 -6 1t-6 1h-20v-200h28v168v-4q2 -2 2 -3v-1q0 -2 1 -3q0 -1 1 -1l114 -156h24v200zM1562 448
l-86 200h-28l-88 -200h16q8 0 11 2q7 5 9 10l14 32h102l14 -32q4 -8 8 -10q2 -2 5.5 -2h6.5h16zM1696 474h-86v174h-28v-200h114v26zM1972 648h-28v-122q0 -6 -1 -11t-3 -11q-3 -5 -5 -9t-7 -7q-3 -5 -7 -7t-8 -5q-7 -2 -12 -3t-11 -1q-5 0 -10 1t-10 3q-5 3 -9 5t-7 7
q-9 6 -12 16q-2 6 -3 11t-1 11v122h-28v-122q0 -6 0.5 -11.5t2.5 -10.5q1 -6 3 -10.5t4 -9.5q3 -5 6 -9t8 -7q3 -3 7 -6t9 -6t10 -4.5t10 -3.5t10 -3t10 -1q6 0 12 1t11 3q12 3 19 8q5 3 8 6t8 6q3 3 6 7t6 9q5 7 8 20q2 5 3 10.5t1 11.5v122zM2126 482q3 6 3.5 12t0.5 12
q0 30 -20 44q-4 2 -8 6q-3 2 -5 2t-5 2q-4 2 -5.5 2t-4.5 2q-3 0 -5 1t-5 3q-5 2 -9 3t-7 3q-9 3 -12 6q-6 3 -6 7q-2 3 -2 11q0 6 2 10q2 2 3.5 4t4.5 4q2 0 10 4q4 2 12 2q3 0 5 -1t5 -1l12 -6q8 -4 12 -4q6 0 12 6l8 4q-2 3 -4.5 5t-5.5 5t-6 5t-6 5q-3 2 -7 3t-9 3t-8 3
t-8 1q-6 0 -11.5 -1t-10.5 -3q-6 -2 -10.5 -4.5t-9.5 -5.5q-3 -3 -6.5 -7t-5.5 -9q-6 -9 -6 -22q0 -8 1.5 -12.5t3.5 -9.5q5 -11 13 -16q7 -7 16 -10q6 -3 11 -5t11 -5q3 -2 6 -2.5t8 -1.5l12 -6q3 -3 5.5 -5t4.5 -5t3 -6t1 -8q0 -6 -4 -14q-3 -7 -10 -10q-5 -5 -14 -8
q-3 0 -7 -1t-7 -1q-5 0 -8 1t-6 1q-10 3 -12 8l-2 2q-6 6 -16 6q-8 0 -10 -4l-8 -2q0 -2 1 -3q0 -1 1 -1q2 -2 2 -3t2 -3q4 -4 4 -6q4 -5 8 -5q9 -10 19.5 -13.5t24.5 -3.5q8 0 14 0.5t11 3.5q15 3 23 13q11 9 16 19zM2290 648h-124v-200h124v26h-98v60h78v28h-78v58h98v28z
M2604 520q2 8 3 13.5t1 12.5q0 8 -1 15t-3 13q-2 8 -4.5 14t-5.5 12q-3 5 -7 10t-9 10t-10 8t-10 8q-6 3 -12 5.5t-14 4.5q-6 2 -13 3t-13 1q-8 0 -14.5 -1t-13.5 -3q-6 -2 -12 -4.5t-12 -5.5q-6 -5 -11 -8t-11 -8q-5 -5 -8 -10t-8 -10q-3 -6 -5 -12t-5 -14q-2 -6 -2 -13
v-15q0 -9 1.5 -19t6.5 -19q3 -11 8.5 -18.5t11.5 -15.5q8 -6 16.5 -11.5t17.5 -8.5q16 -8 40 -8h13t13 2q8 3 14 5t12 7l10 6t10 8q10 10 16 22q3 6 5.5 12t4.5 12zM2814 648h-28v-156q0 5 -1 8t-3 6l-98 134q-4 4 -8 6q-2 0 -4.5 1t-7.5 1h-20v-200h28v168q2 -2 2 -3v-1
q0 -4 2 -4q0 -4 2 -4l114 -156h22v200zM2978 474h-88v174h-26v-200h114v26zM3136 648h-18q-10 0 -14 -4q-3 -2 -5.5 -5t-4.5 -5l-48 -64q-1 0 -2 -1v-1q0 -1 -0.5 -1.5t-0.5 -1.5l-1 -1v4v1l-2 1l-46 64q-3 2 -5.5 5t-4.5 5q-5 2 -8 3t-8 1h-18l72 -98l1 -1q0 -1 0.5 -1.5
t0.5 -1.5q2 -2 2 -3t2 -1v-5v-5v-84h28v84q0 2 1 3t1 2v2q0 1 2 3v1q0 1 2 3q0 4 4 4zM1590 787q-27 11 -51 26t-47 33h424q-23 -18 -47 -33t-51 -26q-26 -10 -55 -15.5t-59 -5.5q-31 0 -59.5 5.5t-54.5 15.5zM1528 880l412 416q78 -102 78 -214q0 -29 -4 -55.5t-14 -52.5
q-9 -26 -22 -48.5t-30 -45.5h-420zM1468 870q-20 23 -34.5 47t-23.5 51q-11 26 -15.5 55t-4.5 59q0 57 18 108q8 26 21 48.5t31 45.5h418zM1818 1378q54 -24 96 -60h-422q21 20 45.5 34.5t49.5 25.5q53 20 117 20q30 0 59 -4.5t55 -15.5zM136 116q-7 10 -10 21q-2 7 -3 13
t-1 12t1 12t3 12t4.5 12t5.5 12q3 5 6 9t8 9q8 8 20 14q11 7 22 10q6 2 12 3t12 1q11 0 20 -2.5t18 -5.5q8 -5 15 -9.5t13 -10.5q0 -2 -1 -2t-3 -2l-2 -2q-2 -2 -3 -2h-1h-6h-4t-4 2q-5 3 -9.5 5.5t-10.5 4.5q-5 2 -10.5 2h-11.5q-8 0 -15 -1t-14 -3q-12 -7 -21 -16
q-6 -5 -9.5 -10.5t-6.5 -13.5q-6 -12 -6 -28v-9t2 -9q2 -10 8 -18q3 -5 6 -8t6 -8q6 -6 14 -10q5 -3 9 -4.5t9 -3.5t9.5 -2h10.5h12t12 2t11 4.5l11 5.5v38h-14q-2 0 -4 1t-4 1q-2 2 -3 2t-3 2q0 2 -1 3t-1 3q-2 2 -2 6v2h50v-70q-3 -5 -6 -7t-8 -5q-3 -2 -6 -3t-8 -1
q-5 -2 -9 -3t-9 -1h-20h-12t-12 2q-11 3 -22 10q-12 6 -20 14t-14 20zM348 232v-58h72v-20h-72v-62h90v-20h-110v182h110v-22h-90zM518 72v160h-58v22h138v-22h-58v-160h-22zM732 232v-62h76v-20h-76v-78h-20v182h110v-22h-90zM878 254v-112q0 -6 0.5 -10.5t3.5 -9.5
q2 -6 4.5 -9.5t5.5 -8.5q5 -3 8.5 -5.5t9.5 -4.5q5 -3 9.5 -3.5t10.5 -0.5t10.5 0.5t9.5 3.5q11 4 16 10q5 5 7 8.5t5 9.5q2 5 3 9.5t1 10.5v112h20v-112q0 -16 -6 -28q-3 -8 -6 -13.5t-8 -10.5q-6 -5 -12 -9t-12 -7q-6 -2 -13 -3t-15 -1t-15 1t-13 3q-13 5 -24 16
q-5 5 -9 10.5t-6 13.5q-4 6 -4.5 13t-0.5 15v112h20zM1062 254v-162h80v-20h-102v182h22zM1186 254v-162h80v-20h-100v182h20zM1432 72l-78 182h10q3 0 5 -1t5 -3q2 -2 4 -3.5t2 -4.5l60 -136q0 -2 1 -3t1 -3v-6v6q2 2 2 6q8 17 15 34t15 34q8 18 15 34.5t15 33.5q2 4 6 8
q8 4 10 4h12q-11 -23 -21 -46t-19 -46q-11 -23 -20 -45t-20 -45h-20zM1568 232v-58h72v-20h-72v-62h90v-20h-112v182h112v-22h-90zM1794 156q-5 -2 -8 -3t-8 -3l58 -78h-12q-8 0 -11 2q-6 2 -9 8l-52 68h-30v-78h-22v182h66q5 0 10 -1t10 -3q5 -3 9 -6t7 -6t6 -7t6 -9
q2 -5 3 -10t1 -10t-1 -9t-3 -9q-2 -10 -8 -16zM1766 170q8 0 12 2q3 2 5 3t5 3q2 3 3 5t3 4q2 4 3 7t1 8q0 4 -4 12q-2 3 -3 5t-3 5q-3 2 -5 3t-5 3q-4 2 -12 2h-44v-62h44zM1932 98q7 3 10 10q4 10 4 14q0 9 -4 15q-3 6 -8 9q-4 4 -12 8q-4 0 -14 4q-6 2 -10.5 4t-9.5 4
q-9 3 -16 10q-3 2 -5.5 5.5t-3.5 5.5q-2 5 -3.5 10t-1.5 11q0 11 6 20q3 8 12 14q7 7 16 10q5 2 10.5 3t10.5 1q2 0 6 -1t7 -1q5 -2 8 -3t6 -3q3 -3 5.5 -4.5t4.5 -3.5l8 -8l-4 -4q-4 -4 -10 -4q-8 0 -10 2t-3 2t-3 2q-2 0 -2 1t-2 1t-3 1t-3 1h-5h-8t-7 -2q-3 0 -5 -1
t-5 -3q-2 -3 -4 -5t-2 -5q-4 -4 -4 -10q0 -8 2 -10q2 -4 6 -8q5 -4 12 -6q3 -2 7 -3t9 -3q3 -2 5 -2t5 -2q4 0 8 -4q3 0 5 -1t5 -3q2 0 6 -4l8 -8t7 -8q1 -7 2 -11.5t1 -12.5q0 -6 -1 -11t-2 -11q-4 -5 -7 -9.5t-8 -6.5q-7 -7 -20 -10q-5 -3 -10.5 -3.5t-11.5 -0.5
q-26 0 -40 14q-2 2 -5 4.5t-5 5.5q-4 4 -4 8l4 2l1 1q1 0 1.5 0.5t1.5 0.5h4q8 0 12 -4q3 -5 7 -6.5t7 -3.5q5 -2 8 -2h8h6t8 2q6 0 12 6zM2028 254v-182h-22v182h22zM2098 96q-6 6 -11.5 13.5t-8.5 16.5q-5 8 -6.5 17.5t-1.5 18.5q0 6 1 12t3 12t3.5 12t4.5 12q4 5 7.5 9
t8.5 9t9 8t9 6q10 7 21 10q7 2 13 3t14 1q6 0 12 -1t11 -3q12 -3 23 -10q12 -6 20 -14q5 -5 8 -9t6 -9q3 -6 5.5 -12t4.5 -12t2 -12v-12q0 -20 -6 -36q-8 -17 -20 -30q-16 -14 -30 -20q-20 -6 -36 -6q-22 0 -38 6t-28 20zM2096 190q-6 -12 -6 -28q0 -5 1 -9t3 -9
q2 -6 3 -9.5t3 -8.5q3 -5 6 -8t6 -8q6 -6 14 -10q7 -5 18 -8q5 -2 9.5 -2h10.5h9t9 2q4 2 8.5 3.5t9.5 4.5q5 2 8 4.5t6 5.5q5 5 7 8t5 8q6 8 8 18q2 5 2 9v9q0 16 -6 28q-3 8 -6.5 13.5t-9.5 10.5q-10 10 -22 16q-6 2 -13 3t-15 1t-15 -1t-15 -3q-12 -6 -22 -16
q-5 -5 -9 -10.5t-7 -13.5zM2310 72h-20v182h14q13 0 16 -8l94 -132q2 -1 2 -2.5t2 -3.5v-4v150h22v-182h-20l-106 150l-2 2v2q0 2 -2 4v-158zM2592 232v-62h76v-20h-76v-78h-20v182h112v-22h-92zM2810 168q-3 -6 -12 -12q-3 -2 -7.5 -3t-8.5 -3l60 -78h-12q-10 0 -14 2
q-2 2 -4 3.5t-4 4.5l-50 68h-32v-78h-20v182h64q6 0 10.5 -1t9.5 -3q6 -3 9.5 -6t6.5 -6q9 -6 12 -16q2 -5 3 -10t1 -10v-9t-2 -9q-3 -9 -10 -16zM2782 172q8 4 10 6q6 6 6 9q2 4 3 7t1 8q0 4 -4 12q0 4 -6 10q-2 2 -10 6q-4 2 -12 2h-44v-62h44q8 0 12 2zM3020 96
q-16 -14 -30 -20q-18 -6 -38 -6q-18 0 -36 6q-15 6 -29 20q-13 11 -19 30q-5 8 -6.5 17.5t-1.5 18.5q0 6 1 12t3 12t3.5 12t6.5 12q2 5 5.5 9t7.5 9t9 8l10 6l11 5.5t11 4.5t12 3t12 1q8 0 14 -1t12 -3q11 -3 22 -10q12 -6 20 -14q5 -5 8 -9t6 -9l4 -12l4 -12q3 -6 3.5 -12
t0.5 -12q0 -9 -2 -18.5t-7 -17.5q-4 -17 -17 -30zM2952 90h10.5t9.5 2t9 3.5t9 4.5q5 2 8 4.5t6 5.5q5 5 7 8t5 8q6 8 8 18q2 5 2 9v9q0 16 -6 28q-3 8 -6.5 13.5t-9.5 10.5q-10 10 -22 16q-8 2 -15 3t-15 1q-6 0 -13 -1t-15 -3q-12 -6 -22 -16q-5 -5 -9 -10.5t-7 -13.5
q-6 -12 -6 -28q0 -5 1 -9t1 -9q2 -6 4 -9.5t4 -8.5q3 -5 6 -8t6 -8q6 -6 14 -10q5 -3 9 -4.5t9 -3.5t9 -2h9zM3252 250q4 4 8 4h18v-182h-20v150h-2v-4v-2q0 -1 -1 -2h-1q-5 -11 -9 -21t-7 -19q-5 -11 -9 -19t-7 -18q-5 -8 -9 -16.5t-7 -16.5q-3 -9 -7 -16.5t-7 -15.5h-22
q-8 17 -15 34.5t-15 35.5q-9 18 -16.5 36t-15.5 36q-2 0 -2 4v4v-150h-20v182h16q4 0 8 -4q6 -3 6 -8l64 -140v-4q2 -2 2 -3v-1v4.5t2 5.5t2 5t1 5l59 128q0 5 6 8zM130 0h210v-24v-14q-2 -3 -3 -6t-3 -6l-142 -188q2 0 4 2q2 0 4 2h4h136v-50h-218v16q0 4 1 7.5t1 6.5
q2 3 2 6t2 6l6 12q4 3 8 10l126 170h-138v50zM376 0h182v-50h-130v-66h104v-50h-104v-68h130v-50h-182v284zM786 -50h-84v-234h-52v234h-82v50h218v-50zM914 0l122 -284h-32q-11 0 -20 6q-5 3 -8 7l-6 8l-16 39h-128l-18 -39q0 -3 -4 -7q-2 -3 -4 -4.5t-4 -3.5q-3 -2 -5 -3
t-5 -1q-3 -2 -5.5 -2h-4.5h-34l124 284h48zM932 -172l-38 86q-2 3 -2 5.5t-2 4.5v8q0 -4 -2 -8q0 -2 -1 -4.5t-1 -5.5l-38 -86h84zM1048 0h182v-50h-130v-72h108v-50h-108v-112h-52v284zM1516 -70q5 -8 8.5 -16.5t5.5 -17.5q6 -18 6 -38t-6 -38q-2 -9 -5.5 -18t-8.5 -18
q-9 -15 -22 -28q-6 -6 -13.5 -11.5t-16.5 -10.5q-8 -6 -16.5 -9.5t-17.5 -6.5q-9 -2 -18 -3t-20 -1q-15 0 -29.5 2.5t-26.5 7.5q-14 6 -25.5 13.5t-20.5 18.5q-21 21 -32 46q-6 14 -8 27t-2 29q0 9 0.5 19t3.5 19t6 17.5t8 16.5q5 9 10.5 15.5t13.5 14.5q13 13 28 22
q9 4 17 8.5t17 7.5q11 2 20 3t20 1t20 -1t18 -3q9 -3 17.5 -7.5t16.5 -8.5q9 -5 16.5 -10.5t13.5 -11.5q6 -8 11.5 -14.5t10.5 -15.5zM1478 -178q6 18 6 36t-6 36q-5 9 -9.5 15.5t-10.5 14.5q-8 6 -15.5 10t-14.5 8q-16 8 -36 8q-23 0 -36 -8q-9 -4 -16.5 -8t-13.5 -10
q-6 -8 -10.5 -14.5t-9.5 -15.5q-3 -9 -5.5 -18t-2.5 -18t2.5 -18t5.5 -18q10 -20 20 -30q6 -6 13.5 -10.5t16.5 -9.5q15 -6 36 -6q18 0 36 6q7 5 14.5 9.5t15.5 10.5q6 6 10.5 13.5t9.5 16.5zM1772 0h52v-284h-48l-134 190q-4 4 -4 6q-2 4 -6 8q0 2 -4 6q0 2 -1 3t-1 3v-216
h-52v284h46q8 0 16 -4t10 -9q15 -20 30 -41l30 -42t29.5 -41.5t28.5 -40.5q6 -6 6 -12q2 -3 2 -5.5v-4.5v200zM1848 0h218v-50h-82v-234h-52v234h-84v50zM2246 -146q9 -9 12 -22q6 -12 6 -28q0 -11 -2.5 -19.5t-5.5 -16.5q-5 -9 -10.5 -16.5t-11.5 -14.5q-15 -11 -34 -17
q-20 -6 -36 -6q-22 0 -40 6q-9 5 -16.5 9.5t-15.5 12.5q-5 5 -8 9t-6 9q-5 8 -8 16q2 0 6 4q4 0 8 4q2 0 4 1t4 1t4 0.5t4 0.5q6 0 12 -3q5 0 8 -1t6 -3q7 -7 16 -10q5 -2 10.5 -3t11.5 -1h7t9 2q3 2 7 3t7 3q9 6 12 13q6 7 6 17q0 5 -1 8t-3 6q-3 3 -6 5.5t-6 4.5
q-8 5 -16 8q-8 1 -18 8q-8 2 -15 4.5t-15 5.5t-14 7t-12 9q-10 10 -16 22q-8 13 -8 32q0 10 2.5 18t5.5 16q10 16 20 24q6 4 13 8.5t14 7.5q8 2 16.5 3t16.5 1q6 0 12 -1t12 -3q13 -3 22 -11q6 -2 10.5 -6t9.5 -9q5 -3 8 -7t6 -9l-10 -8l-6 -4t-8 -4t-8 -2.5t-6 -0.5h-4h-4
q-3 2 -5 2.5t-5 2.5q-2 2 -4.5 2t-3.5 2q-2 0 -3.5 1t-4.5 1q-2 2 -8 2h-6t-8 -2q-6 0 -10 -4q-3 -2 -6 -4.5t-4 -3.5q-2 -4 -2 -12t2 -10q1 -3 4 -5t6 -5q3 -2 7 -3t9 -3t10.5 -4t13.5 -4l8 -4q9 -3 15.5 -6t14.5 -8q14 -7 22 -18zM2332 -234q5 -3 5 -10q2 -2 3.5 -5.5
t1.5 -6.5q0 -5 -5 -12q0 -5 -5 -10q-2 -2 -10 -6q-4 -2 -12 -2t-12 2q-8 4 -11 6q-2 3 -3.5 5t-3.5 5q0 3 -1 6t-1 6t1 6.5t1 5.5q4 8 7 10q4 6 11 6q8 4 12 4t12 -4q7 0 10 -6zM2440 -76q-8 -8 -12.5 -14.5t-7.5 -15.5q-8 -16 -8 -36t8 -36q6 -19 20 -30q6 -6 13.5 -10.5
t16.5 -9.5q15 -6 34 -6q8 0 15 1t13 3q14 3 26 12q2 2 4 2t4 2q3 1 5.5 1h4.5q8 0 16 -3q8 -4 12 -8l12 -10q-6 -6 -12 -11.5t-12 -10.5t-13 -9t-13 -7q-8 -5 -15 -6.5t-15 -3.5q-8 -3 -15.5 -3.5t-16.5 -0.5q-14 0 -28 2.5t-28 7.5q-25 11 -46 32q-9 11 -16.5 21.5
t-13.5 24.5q-12 27 -12 56q0 20 6 38q2 9 5.5 17.5t8.5 16.5q5 9 10.5 15.5t11.5 14.5q8 6 14.5 11.5t15.5 10.5q8 4 16.5 8.5t17.5 7.5q11 2 20 3t18 1t16.5 -0.5t15.5 -3.5q13 -3 30 -11q12 -5 26 -15q6 -5 12 -10.5t12 -11.5l-12 -13q-4 -3 -12 -7q-5 -2 -16 -2
q-9 0 -18 6q-6 2 -12 5.5t-14 6.5q-6 2 -13 3t-15 1q-9 0 -17.5 -1.5t-16.5 -6.5q-9 -4 -16.5 -8t-13.5 -10zM2904 -70q5 -8 8.5 -16.5t5.5 -17.5q6 -18 6 -38t-6 -38q-2 -9 -5.5 -18t-8.5 -18q-9 -15 -22 -28q-8 -6 -14.5 -11.5t-15.5 -10.5q-8 -6 -16.5 -9.5t-17.5 -6.5
q-9 -2 -19 -3t-19 -1q-15 0 -29.5 2.5t-28.5 7.5q-12 6 -23.5 13.5t-20.5 18.5q-21 21 -32 46q-7 14 -9.5 27t-2.5 29q0 20 6 38q3 9 6 17.5t8 16.5q5 9 10.5 15.5t13.5 14.5q13 13 28 22q9 4 17 8.5t17 7.5q11 2 20 3t20 1q9 0 19 -1t19 -3q9 -3 17.5 -7.5t16.5 -8.5
q9 -5 15.5 -10.5t14.5 -11.5q6 -8 11.5 -14.5t10.5 -15.5zM2866 -178q6 18 6 36t-6 36q-5 9 -9.5 15.5t-10.5 14.5q-8 6 -15 10t-15 8q-16 8 -36 8q-23 0 -36 -8q-9 -4 -16.5 -8t-13.5 -10q-6 -8 -11.5 -14.5t-8.5 -15.5q-5 -9 -6.5 -18t-1.5 -18t1.5 -18t6.5 -18
q3 -9 8.5 -16.5t11.5 -13.5t13.5 -10.5t16.5 -9.5q15 -6 36 -6q18 0 36 6q8 5 15 9.5t15 10.5q6 6 10.5 13.5t9.5 16.5zM3216 -2q2 0 4.5 1t5.5 1h52v-284h-52v208q-2 -3 -3 -6t-1 -8q-2 -5 -3 -8t-3 -6l-36 -90q-9 -23 -18 -45t-20 -45h-46l-74 180q-2 3 -3 6t-3 8
q0 4 -4 12v-206h-52v284h52q3 0 6 -1t6 -1q2 -2 4 -2t4 -2q3 -2 4.5 -4.5t3.5 -3.5q2 -2 3 -4t3 -4q9 -23 17 -44t17 -42q9 -23 17.5 -44t16.5 -42q2 -2 2 -6q0 -2 1 -3t1 -3v-7v-1l2 1v7q0 4 2 6v6l10 20l60 152q0 5 6 8q3 5 8 8q2 2 5 2t5 2z" />
    <glyph glyph-name="eight" unicode="8" horiz-adv-x="3492" 
d="M2558 600q6 -5 9.5 -10.5t6.5 -13.5q6 -12 6 -30q0 -13 -6 -28q-3 -6 -6.5 -12t-9.5 -12q-5 -5 -10.5 -9t-13.5 -7q-12 -6 -28 -6q-9 0 -15.5 1.5t-14.5 4.5q-6 3 -12 7t-12 9q-5 6 -9 12t-7 12q-6 15 -6 28q0 18 6 30q3 8 7 13.5t9 10.5q6 6 12 9.5t12 6.5q8 3 14.5 4.5
t15.5 1.5q16 0 28 -6q8 -3 13.5 -6.5t10.5 -9.5zM716 576q-2 -2 -3.5 -4.5t-4.5 -5.5q-2 -2 -10 -6q-4 -2 -12 -2h-44v62h44q4 0 12 -4q7 0 10 -6q3 -2 4.5 -4t3.5 -4q0 -3 1 -6.5t1 -8.5q0 -2 -1 -5t-1 -6zM1086 600q11 -11 16 -24q6 -12 6 -30q0 -13 -6 -28q-3 -6 -7 -12
t-9 -12q-6 -5 -12 -9t-12 -7q-15 -6 -30 -6t-28 6q-13 5 -24 16q-6 6 -9.5 12t-6.5 12q-6 15 -6 28q0 18 6 30q3 8 6.5 13.5t9.5 10.5q5 6 10.5 9.5t13.5 6.5q13 6 28 6t30 -6q6 -3 12 -6.5t12 -9.5zM1462 616q0 -10 2 -12l36 -84h-78l36 84q2 2 2 4t1 4t1 4zM390 610
q4 -4 8 -12q2 -4 2 -14v-7t-2 -7q-4 -8 -8 -10q-4 -5 -10 -8q-5 -2 -8 -3t-6 -1h-44v72h44q3 0 6 -1t8 -3q3 0 5.5 -2t4.5 -4zM3278 1084v-766h-3148v766h1194q0 79 30 150q31 71 82 122q53 50 122 80t146 30q85 0 152 -32q69 -33 120 -84q50 -53 80 -122t30 -144h1192z
M1380 1216q-12 -32 -19 -65t-7 -69q0 -69 28 -134q14 -32 32 -60t42 -52q45 -48 110 -76q63 -30 138 -30q71 0 136 28q63 27 112 76q24 23 42.5 50.5t33.5 59.5q26 64 26 138q0 33 -4.5 63t-15.5 57q-9 26 -23.5 51.5t-32.5 48.5q-18 21 -38 39t-44 35q-24 14 -49 25t-51 19
q-21 8 -43.5 11t-48.5 3q-74 0 -140 -30q-32 -14 -59 -33t-51 -43t-42 -52t-32 -60zM424 560q2 6 3 12t1 12q0 8 -1 14t-3 12q-3 5 -6 9t-8 9t-9.5 8.5t-10.5 5.5q-12 6 -24 6h-72v-200h28v74h44q6 0 12 1t12 3q12 6 20 14t14 20zM572 648h-124v-200h124v26h-96v60h78v28
h-78v58h96v28zM768 448l-64 86q5 2 9 3t7 5q8 3 14 12q5 6 8 16q2 5 2 9v8q0 8 -0.5 13.5t-3.5 11.5q-2 5 -5.5 9t-6.5 9q-9 9 -18 12q-12 6 -24 6h-72v-200h28v82h30l52 -70q3 -7 10 -10q2 -2 6.5 -2h9.5h18zM902 482q6 12 6 24q0 28 -22 44q-2 2 -4 3t-4 3q-3 2 -5 2t-5 2
q-2 2 -4 2t-6 2q-2 0 -10 4q-5 2 -9 3t-7 3q-5 2 -7 3t-5 3q-4 4 -6 7q-1 3 -1 11q0 6 1 10q2 2 3.5 4t4.5 4q2 0 10 4q4 2 12 2q3 0 5.5 -1t4.5 -1q3 -2 6.5 -3t5.5 -3q8 -4 12 -4q8 0 14 6l6 4q-2 3 -4.5 5t-5.5 5t-6 5t-6 5q-3 2 -7 3t-9 3q-8 4 -16 4q-6 0 -11 -1
t-11 -3t-10.5 -4.5t-9.5 -5.5q-3 -3 -6 -7t-6 -9q-6 -9 -6 -22q0 -8 1.5 -12.5t4.5 -9.5q3 -10 12 -16q7 -7 18 -10q5 -3 9.5 -5t10.5 -5q3 -2 6 -2.5t8 -1.5q3 -2 6.5 -3t5.5 -3q3 -3 5.5 -5t4.5 -5t3 -6t1 -8q0 -6 -4 -14q-3 -7 -10 -10q-2 -3 -5.5 -4.5t-6.5 -3.5
q-5 0 -8 -1t-8 -1q-3 0 -7 1t-7 1q-8 4 -11 8l-3 2q-6 6 -16 6q-7 0 -10 -4l-8 -2q2 -2 2 -3t2 -1q0 -2 1 -3t1 -3q4 -4 5 -6q4 -5 7 -5q9 -10 19.5 -13.5t24.5 -3.5q8 0 14 0.5t14 3.5q11 3 20 13q11 9 16 19zM1132 520q2 8 2 13.5v12.5v15t-2 13q-3 8 -5 14t-7 12
q-3 5 -7 10t-7 10q-6 5 -11 8t-11 8q-6 3 -12 5.5t-12 4.5q-8 2 -14 3t-14 1q-6 0 -13 -1t-13 -3q-8 -2 -14 -4.5t-12 -5.5q-5 -5 -10 -8t-10 -8t-9 -10t-7 -10q-3 -6 -5.5 -12t-4.5 -14q-2 -6 -3 -13t-1 -15q0 -9 1.5 -19t6.5 -19q5 -11 10.5 -18.5t11.5 -15.5
q8 -6 15.5 -11.5t16.5 -8.5q19 -8 40 -8h14t14 2q6 3 12 5t12 7q10 5 22 14q3 5 7 10.5t7 11.5q5 6 7 12t5 12zM1342 648h-28v-156q0 5 -1 8t-3 6l-98 134q-4 4 -8 6q-3 0 -6 1t-6 1h-20v-200h28v168v-4q2 -2 2 -3v-1q0 -2 1 -3q0 -1 1 -1l114 -156h24v200zM1562 448
l-86 200h-28l-88 -200h16q8 0 11 2q7 5 9 10l14 32h102l14 -32q4 -8 8 -10q2 -2 5.5 -2h6.5h16zM1696 474h-86v174h-28v-200h114v26zM1972 648h-28v-122q0 -6 -1 -11t-3 -11q-3 -5 -5 -9t-7 -7q-3 -5 -7 -7t-8 -5q-7 -2 -12 -3t-11 -1q-5 0 -10 1t-10 3q-5 3 -9 5t-7 7
q-9 6 -12 16q-2 6 -3 11t-1 11v122h-28v-122q0 -6 0.5 -11.5t2.5 -10.5q1 -6 3 -10.5t4 -9.5q3 -5 6 -9t8 -7q3 -3 7 -6t9 -6t10 -4.5t10 -3.5t10 -3t10 -1q6 0 12 1t11 3q12 3 19 8q5 3 8 6t8 6q3 3 6 7t6 9q5 7 8 20q2 5 3 10.5t1 11.5v122zM2126 482q3 6 3.5 12t0.5 12
q0 30 -20 44q-4 2 -8 6q-3 2 -5 2t-5 2q-4 2 -5.5 2t-4.5 2q-3 0 -5 1t-5 3q-5 2 -9 3t-7 3q-9 3 -12 6q-6 3 -6 7q-2 3 -2 11q0 6 2 10q2 2 3.5 4t4.5 4q2 0 10 4q4 2 12 2q3 0 5 -1t5 -1l12 -6q8 -4 12 -4q6 0 12 6l8 4q-2 3 -4.5 5t-5.5 5t-6 5t-6 5q-3 2 -7 3t-9 3t-8 3
t-8 1q-6 0 -11.5 -1t-10.5 -3q-6 -2 -10.5 -4.5t-9.5 -5.5q-3 -3 -6.5 -7t-5.5 -9q-6 -9 -6 -22q0 -8 1.5 -12.5t3.5 -9.5q5 -11 13 -16q7 -7 16 -10q6 -3 11 -5t11 -5q3 -2 6 -2.5t8 -1.5l12 -6q3 -3 5.5 -5t4.5 -5t3 -6t1 -8q0 -6 -4 -14q-3 -7 -10 -10q-5 -5 -14 -8
q-3 0 -7 -1t-7 -1q-5 0 -8 1t-6 1q-10 3 -12 8l-2 2q-6 6 -16 6q-8 0 -10 -4l-8 -2q0 -2 1 -3q0 -1 1 -1q2 -2 2 -3t2 -3q4 -4 4 -6q4 -5 8 -5q9 -10 19.5 -13.5t24.5 -3.5q8 0 14 0.5t11 3.5q15 3 23 13q11 9 16 19zM2290 648h-124v-200h124v26h-98v60h78v28h-78v58h98v28z
M2604 520q2 8 3 13.5t1 12.5q0 8 -1 15t-3 13q-2 8 -4.5 14t-5.5 12q-3 5 -7 10t-9 10t-10 8t-10 8q-6 3 -12 5.5t-14 4.5q-6 2 -13 3t-13 1q-8 0 -14.5 -1t-13.5 -3q-6 -2 -12 -4.5t-12 -5.5q-6 -5 -11 -8t-11 -8q-5 -5 -8 -10t-8 -10q-3 -6 -5 -12t-5 -14q-2 -6 -2 -13
v-15q0 -9 1.5 -19t6.5 -19q3 -11 8.5 -18.5t11.5 -15.5q8 -6 16.5 -11.5t17.5 -8.5q16 -8 40 -8h13t13 2q8 3 14 5t12 7l10 6t10 8q10 10 16 22q3 6 5.5 12t4.5 12zM2814 648h-28v-156q0 5 -1 8t-3 6l-98 134q-4 4 -8 6q-2 0 -4.5 1t-7.5 1h-20v-200h28v168q2 -2 2 -3v-1
q0 -4 2 -4q0 -4 2 -4l114 -156h22v200zM2978 474h-88v174h-26v-200h114v26zM3136 648h-18q-10 0 -14 -4q-3 -2 -5.5 -5t-4.5 -5l-48 -64q-1 0 -2 -1v-1q0 -1 -0.5 -1.5t-0.5 -1.5l-1 -1v4v1l-2 1l-46 64q-3 2 -5.5 5t-4.5 5q-5 2 -8 3t-8 1h-18l72 -98l1 -1q0 -1 0.5 -1.5
t0.5 -1.5q2 -2 2 -3t2 -1v-5v-5v-84h28v84q0 2 1 3t1 2v2q0 1 2 3v1q0 1 2 3q0 4 4 4zM1590 787q-27 11 -51 26t-47 33h424q-23 -18 -47 -33t-51 -26q-26 -10 -55 -15.5t-59 -5.5q-31 0 -59.5 5.5t-54.5 15.5zM1528 880l412 416q78 -102 78 -214q0 -29 -4 -55.5t-14 -52.5
q-9 -26 -22 -48.5t-30 -45.5h-420zM1468 870q-20 23 -34.5 47t-23.5 51q-11 26 -15.5 55t-4.5 59q0 57 18 108q8 26 21 48.5t31 45.5h418zM1818 1378q54 -24 96 -60h-422q21 20 45.5 34.5t49.5 25.5q53 20 117 20q30 0 59 -4.5t55 -15.5zM136 116q-7 10 -10 21q-2 7 -3 13
t-1 12t1 12t3 12t4.5 12t5.5 12q3 5 6 9t8 9q8 8 20 14q11 7 22 10q6 2 12 3t12 1q11 0 20 -2.5t18 -5.5q8 -5 15 -9.5t13 -10.5q0 -2 -1 -2t-3 -2l-2 -2q-2 -2 -3 -2h-1h-6h-4t-4 2q-5 3 -9.5 5.5t-10.5 4.5q-5 2 -10.5 2h-11.5q-8 0 -15 -1t-14 -3q-12 -7 -21 -16
q-6 -5 -9.5 -10.5t-6.5 -13.5q-6 -12 -6 -28v-9t2 -9q2 -10 8 -18q3 -5 6 -8t6 -8q6 -6 14 -10q5 -3 9 -4.5t9 -3.5t9.5 -2h10.5h12t12 2t11 4.5l11 5.5v38h-14q-2 0 -4 1t-4 1q-2 2 -3 2t-3 2q0 2 -1 3t-1 3q-2 2 -2 6v2h50v-70q-3 -5 -6 -7t-8 -5q-3 -2 -6 -3t-8 -1
q-5 -2 -9 -3t-9 -1h-20h-12t-12 2q-11 3 -22 10q-12 6 -20 14t-14 20zM348 232v-58h72v-20h-72v-62h90v-20h-110v182h110v-22h-90zM518 72v160h-58v22h138v-22h-58v-160h-22zM732 232v-62h76v-20h-76v-78h-20v182h110v-22h-90zM878 254v-112q0 -6 0.5 -10.5t3.5 -9.5
q2 -6 4.5 -9.5t5.5 -8.5q5 -3 8.5 -5.5t9.5 -4.5q5 -3 9.5 -3.5t10.5 -0.5t10.5 0.5t9.5 3.5q11 4 16 10q5 5 7 8.5t5 9.5q2 5 3 9.5t1 10.5v112h20v-112q0 -16 -6 -28q-3 -8 -6 -13.5t-8 -10.5q-6 -5 -12 -9t-12 -7q-6 -2 -13 -3t-15 -1t-15 1t-13 3q-13 5 -24 16
q-5 5 -9 10.5t-6 13.5q-4 6 -4.5 13t-0.5 15v112h20zM1062 254v-162h80v-20h-102v182h22zM1186 254v-162h80v-20h-100v182h20zM1432 72l-78 182h10q3 0 5 -1t5 -3q2 -2 4 -3.5t2 -4.5l60 -136q0 -2 1 -3t1 -3v-6v6q2 2 2 6q8 17 15 34t15 34q8 18 15 34.5t15 33.5q2 4 6 8
q8 4 10 4h12q-11 -23 -21 -46t-19 -46q-11 -23 -20 -45t-20 -45h-20zM1568 232v-58h72v-20h-72v-62h90v-20h-112v182h112v-22h-90zM1794 156q-5 -2 -8 -3t-8 -3l58 -78h-12q-8 0 -11 2q-6 2 -9 8l-52 68h-30v-78h-22v182h66q5 0 10 -1t10 -3q5 -3 9 -6t7 -6t6 -7t6 -9
q2 -5 3 -10t1 -10t-1 -9t-3 -9q-2 -10 -8 -16zM1766 170q8 0 12 2q3 2 5 3t5 3q2 3 3 5t3 4q2 4 3 7t1 8q0 4 -4 12q-2 3 -3 5t-3 5q-3 2 -5 3t-5 3q-4 2 -12 2h-44v-62h44zM1932 98q7 3 10 10q4 10 4 14q0 9 -4 15q-3 6 -8 9q-4 4 -12 8q-4 0 -14 4q-6 2 -10.5 4t-9.5 4
q-9 3 -16 10q-3 2 -5.5 5.5t-3.5 5.5q-2 5 -3.5 10t-1.5 11q0 11 6 20q3 8 12 14q7 7 16 10q5 2 10.5 3t10.5 1q2 0 6 -1t7 -1q5 -2 8 -3t6 -3q3 -3 5.5 -4.5t4.5 -3.5l8 -8l-4 -4q-4 -4 -10 -4q-8 0 -10 2t-3 2t-3 2q-2 0 -2 1t-2 1t-3 1t-3 1h-5h-8t-7 -2q-3 0 -5 -1
t-5 -3q-2 -3 -4 -5t-2 -5q-4 -4 -4 -10q0 -8 2 -10q2 -4 6 -8q5 -4 12 -6q3 -2 7 -3t9 -3q3 -2 5 -2t5 -2q4 0 8 -4q3 0 5 -1t5 -3q2 0 6 -4l8 -8t7 -8q1 -7 2 -11.5t1 -12.5q0 -6 -1 -11t-2 -11q-4 -5 -7 -9.5t-8 -6.5q-7 -7 -20 -10q-5 -3 -10.5 -3.5t-11.5 -0.5
q-26 0 -40 14q-2 2 -5 4.5t-5 5.5q-4 4 -4 8l4 2l1 1q1 0 1.5 0.5t1.5 0.5h4q8 0 12 -4q3 -5 7 -6.5t7 -3.5q5 -2 8 -2h8h6t8 2q6 0 12 6zM2028 254v-182h-22v182h22zM2098 96q-6 6 -11.5 13.5t-8.5 16.5q-5 8 -6.5 17.5t-1.5 18.5q0 6 1 12t3 12t3.5 12t4.5 12q4 5 7.5 9
t8.5 9t9 8t9 6q10 7 21 10q7 2 13 3t14 1q6 0 12 -1t11 -3q12 -3 23 -10q12 -6 20 -14q5 -5 8 -9t6 -9q3 -6 5.5 -12t4.5 -12t2 -12v-12q0 -20 -6 -36q-8 -17 -20 -30q-16 -14 -30 -20q-20 -6 -36 -6q-22 0 -38 6t-28 20zM2096 190q-6 -12 -6 -28q0 -5 1 -9t3 -9
q2 -6 3 -9.5t3 -8.5q3 -5 6 -8t6 -8q6 -6 14 -10q7 -5 18 -8q5 -2 9.5 -2h10.5h9t9 2q4 2 8.5 3.5t9.5 4.5q5 2 8 4.5t6 5.5q5 5 7 8t5 8q6 8 8 18q2 5 2 9v9q0 16 -6 28q-3 8 -6.5 13.5t-9.5 10.5q-10 10 -22 16q-6 2 -13 3t-15 1t-15 -1t-15 -3q-12 -6 -22 -16
q-5 -5 -9 -10.5t-7 -13.5zM2310 72h-20v182h14q13 0 16 -8l94 -132q2 -1 2 -2.5t2 -3.5v-4v150h22v-182h-20l-106 150l-2 2v2q0 2 -2 4v-158zM2592 232v-62h76v-20h-76v-78h-20v182h112v-22h-92zM2810 168q-3 -6 -12 -12q-3 -2 -7.5 -3t-8.5 -3l60 -78h-12q-10 0 -14 2
q-2 2 -4 3.5t-4 4.5l-50 68h-32v-78h-20v182h64q6 0 10.5 -1t9.5 -3q6 -3 9.5 -6t6.5 -6q9 -6 12 -16q2 -5 3 -10t1 -10v-9t-2 -9q-3 -9 -10 -16zM2782 172q8 4 10 6q6 6 6 9q2 4 3 7t1 8q0 4 -4 12q0 4 -6 10q-2 2 -10 6q-4 2 -12 2h-44v-62h44q8 0 12 2zM3020 96
q-16 -14 -30 -20q-18 -6 -38 -6q-18 0 -36 6q-15 6 -29 20q-13 11 -19 30q-5 8 -6.5 17.5t-1.5 18.5q0 6 1 12t3 12t3.5 12t6.5 12q2 5 5.5 9t7.5 9t9 8l10 6l11 5.5t11 4.5t12 3t12 1q8 0 14 -1t12 -3q11 -3 22 -10q12 -6 20 -14q5 -5 8 -9t6 -9l4 -12l4 -12q3 -6 3.5 -12
t0.5 -12q0 -9 -2 -18.5t-7 -17.5q-4 -17 -17 -30zM2952 90h10.5t9.5 2t9 3.5t9 4.5q5 2 8 4.5t6 5.5q5 5 7 8t5 8q6 8 8 18q2 5 2 9v9q0 16 -6 28q-3 8 -6.5 13.5t-9.5 10.5q-10 10 -22 16q-8 2 -15 3t-15 1q-6 0 -13 -1t-15 -3q-12 -6 -22 -16q-5 -5 -9 -10.5t-7 -13.5
q-6 -12 -6 -28q0 -5 1 -9t1 -9q2 -6 4 -9.5t4 -8.5q3 -5 6 -8t6 -8q6 -6 14 -10q5 -3 9 -4.5t9 -3.5t9 -2h9zM3252 250q4 4 8 4h18v-182h-20v150h-2v-4v-2q0 -1 -1 -2h-1q-5 -11 -9 -21t-7 -19q-5 -11 -9 -19t-7 -18q-5 -8 -9 -16.5t-7 -16.5q-3 -9 -7 -16.5t-7 -15.5h-22
q-8 17 -15 34.5t-15 35.5q-9 18 -16.5 36t-15.5 36q-2 0 -2 4v4v-150h-20v182h16q4 0 8 -4q6 -3 6 -8l64 -140v-4q2 -2 2 -3v-1v4.5t2 5.5t2 5t1 5l59 128q0 5 6 8zM130 0h210v-24v-14q-2 -3 -3 -6t-3 -6l-142 -188q2 0 4 2q2 0 4 2h4h136v-50h-218v16q0 4 1 7.5t1 6.5
q2 3 2 6t2 6l6 12q4 3 8 10l126 170h-138v50zM376 0h182v-50h-130v-66h104v-50h-104v-68h130v-50h-182v284zM786 -50h-84v-234h-52v234h-82v50h218v-50zM914 0l122 -284h-32q-11 0 -20 6q-5 3 -8 7l-6 8l-16 39h-128l-18 -39q0 -3 -4 -7q-2 -3 -4 -4.5t-4 -3.5q-3 -2 -5 -3
t-5 -1q-3 -2 -5.5 -2h-4.5h-34l124 284h48zM932 -172l-38 86q-2 3 -2 5.5t-2 4.5v8q0 -4 -2 -8q0 -2 -1 -4.5t-1 -5.5l-38 -86h84zM1048 0h182v-50h-130v-72h108v-50h-108v-112h-52v284zM1516 -70q5 -8 8.5 -16.5t5.5 -17.5q6 -18 6 -38t-6 -38q-2 -9 -5.5 -18t-8.5 -18
q-9 -15 -22 -28q-6 -6 -13.5 -11.5t-16.5 -10.5q-8 -6 -16.5 -9.5t-17.5 -6.5q-9 -2 -18 -3t-20 -1q-15 0 -29.5 2.5t-26.5 7.5q-14 6 -25.5 13.5t-20.5 18.5q-21 21 -32 46q-6 14 -8 27t-2 29q0 9 0.5 19t3.5 19t6 17.5t8 16.5q5 9 10.5 15.5t13.5 14.5q13 13 28 22
q9 4 17 8.5t17 7.5q11 2 20 3t20 1t20 -1t18 -3q9 -3 17.5 -7.5t16.5 -8.5q9 -5 16.5 -10.5t13.5 -11.5q6 -8 11.5 -14.5t10.5 -15.5zM1478 -178q6 18 6 36t-6 36q-5 9 -9.5 15.5t-10.5 14.5q-8 6 -15.5 10t-14.5 8q-16 8 -36 8q-23 0 -36 -8q-9 -4 -16.5 -8t-13.5 -10
q-6 -8 -10.5 -14.5t-9.5 -15.5q-3 -9 -5.5 -18t-2.5 -18t2.5 -18t5.5 -18q10 -20 20 -30q6 -6 13.5 -10.5t16.5 -9.5q15 -6 36 -6q18 0 36 6q7 5 14.5 9.5t15.5 10.5q6 6 10.5 13.5t9.5 16.5zM1772 0h52v-284h-48l-134 190q-4 4 -4 6q-2 4 -6 8q0 2 -4 6q0 2 -1 3t-1 3v-216
h-52v284h46q8 0 16 -4t10 -9q15 -20 30 -41l30 -42t29.5 -41.5t28.5 -40.5q6 -6 6 -12q2 -3 2 -5.5v-4.5v200zM1848 0h218v-50h-82v-234h-52v234h-84v50zM2246 -146q9 -9 12 -22q6 -12 6 -28q0 -11 -2.5 -19.5t-5.5 -16.5q-5 -9 -10.5 -16.5t-11.5 -14.5q-15 -11 -34 -17
q-20 -6 -36 -6q-22 0 -40 6q-9 5 -16.5 9.5t-15.5 12.5q-5 5 -8 9t-6 9q-5 8 -8 16q2 0 6 4q4 0 8 4q2 0 4 1t4 1t4 0.5t4 0.5q6 0 12 -3q5 0 8 -1t6 -3q7 -7 16 -10q5 -2 10.5 -3t11.5 -1h7t9 2q3 2 7 3t7 3q9 6 12 13q6 7 6 17q0 5 -1 8t-3 6q-3 3 -6 5.5t-6 4.5
q-8 5 -16 8q-8 1 -18 8q-8 2 -15 4.5t-15 5.5t-14 7t-12 9q-10 10 -16 22q-8 13 -8 32q0 10 2.5 18t5.5 16q10 16 20 24q6 4 13 8.5t14 7.5q8 2 16.5 3t16.5 1q6 0 12 -1t12 -3q13 -3 22 -11q6 -2 10.5 -6t9.5 -9q5 -3 8 -7t6 -9l-10 -8l-6 -4t-8 -4t-8 -2.5t-6 -0.5h-4h-4
q-3 2 -5 2.5t-5 2.5q-2 2 -4.5 2t-3.5 2q-2 0 -3.5 1t-4.5 1q-2 2 -8 2h-6t-8 -2q-6 0 -10 -4q-3 -2 -6 -4.5t-4 -3.5q-2 -4 -2 -12t2 -10q1 -3 4 -5t6 -5q3 -2 7 -3t9 -3t10.5 -4t13.5 -4l8 -4q9 -3 15.5 -6t14.5 -8q14 -7 22 -18zM2332 -234q5 -3 5 -10q2 -2 3.5 -5.5
t1.5 -6.5q0 -5 -5 -12q0 -5 -5 -10q-2 -2 -10 -6q-4 -2 -12 -2t-12 2q-8 4 -11 6q-2 3 -3.5 5t-3.5 5q0 3 -1 6t-1 6t1 6.5t1 5.5q4 8 7 10q4 6 11 6q8 4 12 4t12 -4q7 0 10 -6zM2440 -76q-8 -8 -12.5 -14.5t-7.5 -15.5q-8 -16 -8 -36t8 -36q6 -19 20 -30q6 -6 13.5 -10.5
t16.5 -9.5q15 -6 34 -6q8 0 15 1t13 3q14 3 26 12q2 2 4 2t4 2q3 1 5.5 1h4.5q8 0 16 -3q8 -4 12 -8l12 -10q-6 -6 -12 -11.5t-12 -10.5t-13 -9t-13 -7q-8 -5 -15 -6.5t-15 -3.5q-8 -3 -15.5 -3.5t-16.5 -0.5q-14 0 -28 2.5t-28 7.5q-25 11 -46 32q-9 11 -16.5 21.5
t-13.5 24.5q-12 27 -12 56q0 20 6 38q2 9 5.5 17.5t8.5 16.5q5 9 10.5 15.5t11.5 14.5q8 6 14.5 11.5t15.5 10.5q8 4 16.5 8.5t17.5 7.5q11 2 20 3t18 1t16.5 -0.5t15.5 -3.5q13 -3 30 -11q12 -5 26 -15q6 -5 12 -10.5t12 -11.5l-12 -13q-4 -3 -12 -7q-5 -2 -16 -2
q-9 0 -18 6q-6 2 -12 5.5t-14 6.5q-6 2 -13 3t-15 1q-9 0 -17.5 -1.5t-16.5 -6.5q-9 -4 -16.5 -8t-13.5 -10zM2904 -70q5 -8 8.5 -16.5t5.5 -17.5q6 -18 6 -38t-6 -38q-2 -9 -5.5 -18t-8.5 -18q-9 -15 -22 -28q-8 -6 -14.5 -11.5t-15.5 -10.5q-8 -6 -16.5 -9.5t-17.5 -6.5
q-9 -2 -19 -3t-19 -1q-15 0 -29.5 2.5t-28.5 7.5q-12 6 -23.5 13.5t-20.5 18.5q-21 21 -32 46q-7 14 -9.5 27t-2.5 29q0 20 6 38q3 9 6 17.5t8 16.5q5 9 10.5 15.5t13.5 14.5q13 13 28 22q9 4 17 8.5t17 7.5q11 2 20 3t20 1q9 0 19 -1t19 -3q9 -3 17.5 -7.5t16.5 -8.5
q9 -5 15.5 -10.5t14.5 -11.5q6 -8 11.5 -14.5t10.5 -15.5zM2866 -178q6 18 6 36t-6 36q-5 9 -9.5 15.5t-10.5 14.5q-8 6 -15 10t-15 8q-16 8 -36 8q-23 0 -36 -8q-9 -4 -16.5 -8t-13.5 -10q-6 -8 -11.5 -14.5t-8.5 -15.5q-5 -9 -6.5 -18t-1.5 -18t1.5 -18t6.5 -18
q3 -9 8.5 -16.5t11.5 -13.5t13.5 -10.5t16.5 -9.5q15 -6 36 -6q18 0 36 6q8 5 15 9.5t15 10.5q6 6 10.5 13.5t9.5 16.5zM3216 -2q2 0 4.5 1t5.5 1h52v-284h-52v208q-2 -3 -3 -6t-1 -8q-2 -5 -3 -8t-3 -6l-36 -90q-9 -23 -18 -45t-20 -45h-46l-74 180q-2 3 -3 6t-3 8
q0 4 -4 12v-206h-52v284h52q3 0 6 -1t6 -1q2 -2 4 -2t4 -2q3 -2 4.5 -4.5t3.5 -3.5q2 -2 3 -4t3 -4q9 -23 17 -44t17 -42q9 -23 17.5 -44t16.5 -42q2 -2 2 -6q0 -2 1 -3t1 -3v-7v-1l2 1v7q0 4 2 6v6l10 20l60 152q0 5 6 8q3 5 8 8q2 2 5 2t5 2z" />
    <glyph glyph-name="nine" unicode="9" horiz-adv-x="3492" 
d="M2558 600q6 -5 9.5 -10.5t6.5 -13.5q6 -12 6 -30q0 -13 -6 -28q-3 -6 -6.5 -12t-9.5 -12q-5 -5 -10.5 -9t-13.5 -7q-12 -6 -28 -6q-9 0 -15.5 1.5t-14.5 4.5q-6 3 -12 7t-12 9q-5 6 -9 12t-7 12q-6 15 -6 28q0 18 6 30q3 8 7 13.5t9 10.5q6 6 12 9.5t12 6.5q8 3 14.5 4.5
t15.5 1.5q16 0 28 -6q8 -3 13.5 -6.5t10.5 -9.5zM716 576q-2 -2 -3.5 -4.5t-4.5 -5.5q-2 -2 -10 -6q-4 -2 -12 -2h-44v62h44q4 0 12 -4q7 0 10 -6q3 -2 4.5 -4t3.5 -4q0 -3 1 -6.5t1 -8.5q0 -2 -1 -5t-1 -6zM1086 600q11 -11 16 -24q6 -12 6 -30q0 -13 -6 -28q-3 -6 -7 -12
t-9 -12q-6 -5 -12 -9t-12 -7q-15 -6 -30 -6t-28 6q-13 5 -24 16q-6 6 -9.5 12t-6.5 12q-6 15 -6 28q0 18 6 30q3 8 6.5 13.5t9.5 10.5q5 6 10.5 9.5t13.5 6.5q13 6 28 6t30 -6q6 -3 12 -6.5t12 -9.5zM1462 616q0 -10 2 -12l36 -84h-78l36 84q2 2 2 4t1 4t1 4zM390 610
q4 -4 8 -12q2 -4 2 -14v-7t-2 -7q-4 -8 -8 -10q-4 -5 -10 -8q-5 -2 -8 -3t-6 -1h-44v72h44q3 0 6 -1t8 -3q3 0 5.5 -2t4.5 -4zM3278 1084v-766h-3148v766h1194q0 79 30 150q31 71 82 122q53 50 122 80t146 30q85 0 152 -32q69 -33 120 -84q50 -53 80 -122t30 -144h1192z
M1380 1216q-12 -32 -19 -65t-7 -69q0 -69 28 -134q14 -32 32 -60t42 -52q45 -48 110 -76q63 -30 138 -30q71 0 136 28q63 27 112 76q24 23 42.5 50.5t33.5 59.5q26 64 26 138q0 33 -4.5 63t-15.5 57q-9 26 -23.5 51.5t-32.5 48.5q-18 21 -38 39t-44 35q-24 14 -49 25t-51 19
q-21 8 -43.5 11t-48.5 3q-74 0 -140 -30q-32 -14 -59 -33t-51 -43t-42 -52t-32 -60zM424 560q2 6 3 12t1 12q0 8 -1 14t-3 12q-3 5 -6 9t-8 9t-9.5 8.5t-10.5 5.5q-12 6 -24 6h-72v-200h28v74h44q6 0 12 1t12 3q12 6 20 14t14 20zM572 648h-124v-200h124v26h-96v60h78v28
h-78v58h96v28zM768 448l-64 86q5 2 9 3t7 5q8 3 14 12q5 6 8 16q2 5 2 9v8q0 8 -0.5 13.5t-3.5 11.5q-2 5 -5.5 9t-6.5 9q-9 9 -18 12q-12 6 -24 6h-72v-200h28v82h30l52 -70q3 -7 10 -10q2 -2 6.5 -2h9.5h18zM902 482q6 12 6 24q0 28 -22 44q-2 2 -4 3t-4 3q-3 2 -5 2t-5 2
q-2 2 -4 2t-6 2q-2 0 -10 4q-5 2 -9 3t-7 3q-5 2 -7 3t-5 3q-4 4 -6 7q-1 3 -1 11q0 6 1 10q2 2 3.5 4t4.5 4q2 0 10 4q4 2 12 2q3 0 5.5 -1t4.5 -1q3 -2 6.5 -3t5.5 -3q8 -4 12 -4q8 0 14 6l6 4q-2 3 -4.5 5t-5.5 5t-6 5t-6 5q-3 2 -7 3t-9 3q-8 4 -16 4q-6 0 -11 -1
t-11 -3t-10.5 -4.5t-9.5 -5.5q-3 -3 -6 -7t-6 -9q-6 -9 -6 -22q0 -8 1.5 -12.5t4.5 -9.5q3 -10 12 -16q7 -7 18 -10q5 -3 9.5 -5t10.5 -5q3 -2 6 -2.5t8 -1.5q3 -2 6.5 -3t5.5 -3q3 -3 5.5 -5t4.5 -5t3 -6t1 -8q0 -6 -4 -14q-3 -7 -10 -10q-2 -3 -5.5 -4.5t-6.5 -3.5
q-5 0 -8 -1t-8 -1q-3 0 -7 1t-7 1q-8 4 -11 8l-3 2q-6 6 -16 6q-7 0 -10 -4l-8 -2q2 -2 2 -3t2 -1q0 -2 1 -3t1 -3q4 -4 5 -6q4 -5 7 -5q9 -10 19.5 -13.5t24.5 -3.5q8 0 14 0.5t14 3.5q11 3 20 13q11 9 16 19zM1132 520q2 8 2 13.5v12.5v15t-2 13q-3 8 -5 14t-7 12
q-3 5 -7 10t-7 10q-6 5 -11 8t-11 8q-6 3 -12 5.5t-12 4.5q-8 2 -14 3t-14 1q-6 0 -13 -1t-13 -3q-8 -2 -14 -4.5t-12 -5.5q-5 -5 -10 -8t-10 -8t-9 -10t-7 -10q-3 -6 -5.5 -12t-4.5 -14q-2 -6 -3 -13t-1 -15q0 -9 1.5 -19t6.5 -19q5 -11 10.5 -18.5t11.5 -15.5
q8 -6 15.5 -11.5t16.5 -8.5q19 -8 40 -8h14t14 2q6 3 12 5t12 7q10 5 22 14q3 5 7 10.5t7 11.5q5 6 7 12t5 12zM1342 648h-28v-156q0 5 -1 8t-3 6l-98 134q-4 4 -8 6q-3 0 -6 1t-6 1h-20v-200h28v168v-4q2 -2 2 -3v-1q0 -2 1 -3q0 -1 1 -1l114 -156h24v200zM1562 448
l-86 200h-28l-88 -200h16q8 0 11 2q7 5 9 10l14 32h102l14 -32q4 -8 8 -10q2 -2 5.5 -2h6.5h16zM1696 474h-86v174h-28v-200h114v26zM1972 648h-28v-122q0 -6 -1 -11t-3 -11q-3 -5 -5 -9t-7 -7q-3 -5 -7 -7t-8 -5q-7 -2 -12 -3t-11 -1q-5 0 -10 1t-10 3q-5 3 -9 5t-7 7
q-9 6 -12 16q-2 6 -3 11t-1 11v122h-28v-122q0 -6 0.5 -11.5t2.5 -10.5q1 -6 3 -10.5t4 -9.5q3 -5 6 -9t8 -7q3 -3 7 -6t9 -6t10 -4.5t10 -3.5t10 -3t10 -1q6 0 12 1t11 3q12 3 19 8q5 3 8 6t8 6q3 3 6 7t6 9q5 7 8 20q2 5 3 10.5t1 11.5v122zM2126 482q3 6 3.5 12t0.5 12
q0 30 -20 44q-4 2 -8 6q-3 2 -5 2t-5 2q-4 2 -5.5 2t-4.5 2q-3 0 -5 1t-5 3q-5 2 -9 3t-7 3q-9 3 -12 6q-6 3 -6 7q-2 3 -2 11q0 6 2 10q2 2 3.5 4t4.5 4q2 0 10 4q4 2 12 2q3 0 5 -1t5 -1l12 -6q8 -4 12 -4q6 0 12 6l8 4q-2 3 -4.5 5t-5.5 5t-6 5t-6 5q-3 2 -7 3t-9 3t-8 3
t-8 1q-6 0 -11.5 -1t-10.5 -3q-6 -2 -10.5 -4.5t-9.5 -5.5q-3 -3 -6.5 -7t-5.5 -9q-6 -9 -6 -22q0 -8 1.5 -12.5t3.5 -9.5q5 -11 13 -16q7 -7 16 -10q6 -3 11 -5t11 -5q3 -2 6 -2.5t8 -1.5l12 -6q3 -3 5.5 -5t4.5 -5t3 -6t1 -8q0 -6 -4 -14q-3 -7 -10 -10q-5 -5 -14 -8
q-3 0 -7 -1t-7 -1q-5 0 -8 1t-6 1q-10 3 -12 8l-2 2q-6 6 -16 6q-8 0 -10 -4l-8 -2q0 -2 1 -3q0 -1 1 -1q2 -2 2 -3t2 -3q4 -4 4 -6q4 -5 8 -5q9 -10 19.5 -13.5t24.5 -3.5q8 0 14 0.5t11 3.5q15 3 23 13q11 9 16 19zM2290 648h-124v-200h124v26h-98v60h78v28h-78v58h98v28z
M2604 520q2 8 3 13.5t1 12.5q0 8 -1 15t-3 13q-2 8 -4.5 14t-5.5 12q-3 5 -7 10t-9 10t-10 8t-10 8q-6 3 -12 5.5t-14 4.5q-6 2 -13 3t-13 1q-8 0 -14.5 -1t-13.5 -3q-6 -2 -12 -4.5t-12 -5.5q-6 -5 -11 -8t-11 -8q-5 -5 -8 -10t-8 -10q-3 -6 -5 -12t-5 -14q-2 -6 -2 -13
v-15q0 -9 1.5 -19t6.5 -19q3 -11 8.5 -18.5t11.5 -15.5q8 -6 16.5 -11.5t17.5 -8.5q16 -8 40 -8h13t13 2q8 3 14 5t12 7l10 6t10 8q10 10 16 22q3 6 5.5 12t4.5 12zM2814 648h-28v-156q0 5 -1 8t-3 6l-98 134q-4 4 -8 6q-2 0 -4.5 1t-7.5 1h-20v-200h28v168q2 -2 2 -3v-1
q0 -4 2 -4q0 -4 2 -4l114 -156h22v200zM2978 474h-88v174h-26v-200h114v26zM3136 648h-18q-10 0 -14 -4q-3 -2 -5.5 -5t-4.5 -5l-48 -64q-1 0 -2 -1v-1q0 -1 -0.5 -1.5t-0.5 -1.5l-1 -1v4v1l-2 1l-46 64q-3 2 -5.5 5t-4.5 5q-5 2 -8 3t-8 1h-18l72 -98l1 -1q0 -1 0.5 -1.5
t0.5 -1.5q2 -2 2 -3t2 -1v-5v-5v-84h28v84q0 2 1 3t1 2v2q0 1 2 3v1q0 1 2 3q0 4 4 4zM1590 787q-27 11 -51 26t-47 33h424q-23 -18 -47 -33t-51 -26q-26 -10 -55 -15.5t-59 -5.5q-31 0 -59.5 5.5t-54.5 15.5zM1528 880l412 416q78 -102 78 -214q0 -29 -4 -55.5t-14 -52.5
q-9 -26 -22 -48.5t-30 -45.5h-420zM1468 870q-20 23 -34.5 47t-23.5 51q-11 26 -15.5 55t-4.5 59q0 57 18 108q8 26 21 48.5t31 45.5h418zM1818 1378q54 -24 96 -60h-422q21 20 45.5 34.5t49.5 25.5q53 20 117 20q30 0 59 -4.5t55 -15.5zM136 116q-7 10 -10 21q-2 7 -3 13
t-1 12t1 12t3 12t4.5 12t5.5 12q3 5 6 9t8 9q8 8 20 14q11 7 22 10q6 2 12 3t12 1q11 0 20 -2.5t18 -5.5q8 -5 15 -9.5t13 -10.5q0 -2 -1 -2t-3 -2l-2 -2q-2 -2 -3 -2h-1h-6h-4t-4 2q-5 3 -9.5 5.5t-10.5 4.5q-5 2 -10.5 2h-11.5q-8 0 -15 -1t-14 -3q-12 -7 -21 -16
q-6 -5 -9.5 -10.5t-6.5 -13.5q-6 -12 -6 -28v-9t2 -9q2 -10 8 -18q3 -5 6 -8t6 -8q6 -6 14 -10q5 -3 9 -4.5t9 -3.5t9.5 -2h10.5h12t12 2t11 4.5l11 5.5v38h-14q-2 0 -4 1t-4 1q-2 2 -3 2t-3 2q0 2 -1 3t-1 3q-2 2 -2 6v2h50v-70q-3 -5 -6 -7t-8 -5q-3 -2 -6 -3t-8 -1
q-5 -2 -9 -3t-9 -1h-20h-12t-12 2q-11 3 -22 10q-12 6 -20 14t-14 20zM348 232v-58h72v-20h-72v-62h90v-20h-110v182h110v-22h-90zM518 72v160h-58v22h138v-22h-58v-160h-22zM732 232v-62h76v-20h-76v-78h-20v182h110v-22h-90zM878 254v-112q0 -6 0.5 -10.5t3.5 -9.5
q2 -6 4.5 -9.5t5.5 -8.5q5 -3 8.5 -5.5t9.5 -4.5q5 -3 9.5 -3.5t10.5 -0.5t10.5 0.5t9.5 3.5q11 4 16 10q5 5 7 8.5t5 9.5q2 5 3 9.5t1 10.5v112h20v-112q0 -16 -6 -28q-3 -8 -6 -13.5t-8 -10.5q-6 -5 -12 -9t-12 -7q-6 -2 -13 -3t-15 -1t-15 1t-13 3q-13 5 -24 16
q-5 5 -9 10.5t-6 13.5q-4 6 -4.5 13t-0.5 15v112h20zM1062 254v-162h80v-20h-102v182h22zM1186 254v-162h80v-20h-100v182h20zM1432 72l-78 182h10q3 0 5 -1t5 -3q2 -2 4 -3.5t2 -4.5l60 -136q0 -2 1 -3t1 -3v-6v6q2 2 2 6q8 17 15 34t15 34q8 18 15 34.5t15 33.5q2 4 6 8
q8 4 10 4h12q-11 -23 -21 -46t-19 -46q-11 -23 -20 -45t-20 -45h-20zM1568 232v-58h72v-20h-72v-62h90v-20h-112v182h112v-22h-90zM1794 156q-5 -2 -8 -3t-8 -3l58 -78h-12q-8 0 -11 2q-6 2 -9 8l-52 68h-30v-78h-22v182h66q5 0 10 -1t10 -3q5 -3 9 -6t7 -6t6 -7t6 -9
q2 -5 3 -10t1 -10t-1 -9t-3 -9q-2 -10 -8 -16zM1766 170q8 0 12 2q3 2 5 3t5 3q2 3 3 5t3 4q2 4 3 7t1 8q0 4 -4 12q-2 3 -3 5t-3 5q-3 2 -5 3t-5 3q-4 2 -12 2h-44v-62h44zM1932 98q7 3 10 10q4 10 4 14q0 9 -4 15q-3 6 -8 9q-4 4 -12 8q-4 0 -14 4q-6 2 -10.5 4t-9.5 4
q-9 3 -16 10q-3 2 -5.5 5.5t-3.5 5.5q-2 5 -3.5 10t-1.5 11q0 11 6 20q3 8 12 14q7 7 16 10q5 2 10.5 3t10.5 1q2 0 6 -1t7 -1q5 -2 8 -3t6 -3q3 -3 5.5 -4.5t4.5 -3.5l8 -8l-4 -4q-4 -4 -10 -4q-8 0 -10 2t-3 2t-3 2q-2 0 -2 1t-2 1t-3 1t-3 1h-5h-8t-7 -2q-3 0 -5 -1
t-5 -3q-2 -3 -4 -5t-2 -5q-4 -4 -4 -10q0 -8 2 -10q2 -4 6 -8q5 -4 12 -6q3 -2 7 -3t9 -3q3 -2 5 -2t5 -2q4 0 8 -4q3 0 5 -1t5 -3q2 0 6 -4l8 -8t7 -8q1 -7 2 -11.5t1 -12.5q0 -6 -1 -11t-2 -11q-4 -5 -7 -9.5t-8 -6.5q-7 -7 -20 -10q-5 -3 -10.5 -3.5t-11.5 -0.5
q-26 0 -40 14q-2 2 -5 4.5t-5 5.5q-4 4 -4 8l4 2l1 1q1 0 1.5 0.5t1.5 0.5h4q8 0 12 -4q3 -5 7 -6.5t7 -3.5q5 -2 8 -2h8h6t8 2q6 0 12 6zM2028 254v-182h-22v182h22zM2098 96q-6 6 -11.5 13.5t-8.5 16.5q-5 8 -6.5 17.5t-1.5 18.5q0 6 1 12t3 12t3.5 12t4.5 12q4 5 7.5 9
t8.5 9t9 8t9 6q10 7 21 10q7 2 13 3t14 1q6 0 12 -1t11 -3q12 -3 23 -10q12 -6 20 -14q5 -5 8 -9t6 -9q3 -6 5.5 -12t4.5 -12t2 -12v-12q0 -20 -6 -36q-8 -17 -20 -30q-16 -14 -30 -20q-20 -6 -36 -6q-22 0 -38 6t-28 20zM2096 190q-6 -12 -6 -28q0 -5 1 -9t3 -9
q2 -6 3 -9.5t3 -8.5q3 -5 6 -8t6 -8q6 -6 14 -10q7 -5 18 -8q5 -2 9.5 -2h10.5h9t9 2q4 2 8.5 3.5t9.5 4.5q5 2 8 4.5t6 5.5q5 5 7 8t5 8q6 8 8 18q2 5 2 9v9q0 16 -6 28q-3 8 -6.5 13.5t-9.5 10.5q-10 10 -22 16q-6 2 -13 3t-15 1t-15 -1t-15 -3q-12 -6 -22 -16
q-5 -5 -9 -10.5t-7 -13.5zM2310 72h-20v182h14q13 0 16 -8l94 -132q2 -1 2 -2.5t2 -3.5v-4v150h22v-182h-20l-106 150l-2 2v2q0 2 -2 4v-158zM2592 232v-62h76v-20h-76v-78h-20v182h112v-22h-92zM2810 168q-3 -6 -12 -12q-3 -2 -7.5 -3t-8.5 -3l60 -78h-12q-10 0 -14 2
q-2 2 -4 3.5t-4 4.5l-50 68h-32v-78h-20v182h64q6 0 10.5 -1t9.5 -3q6 -3 9.5 -6t6.5 -6q9 -6 12 -16q2 -5 3 -10t1 -10v-9t-2 -9q-3 -9 -10 -16zM2782 172q8 4 10 6q6 6 6 9q2 4 3 7t1 8q0 4 -4 12q0 4 -6 10q-2 2 -10 6q-4 2 -12 2h-44v-62h44q8 0 12 2zM3020 96
q-16 -14 -30 -20q-18 -6 -38 -6q-18 0 -36 6q-15 6 -29 20q-13 11 -19 30q-5 8 -6.5 17.5t-1.5 18.5q0 6 1 12t3 12t3.5 12t6.5 12q2 5 5.5 9t7.5 9t9 8l10 6l11 5.5t11 4.5t12 3t12 1q8 0 14 -1t12 -3q11 -3 22 -10q12 -6 20 -14q5 -5 8 -9t6 -9l4 -12l4 -12q3 -6 3.5 -12
t0.5 -12q0 -9 -2 -18.5t-7 -17.5q-4 -17 -17 -30zM2952 90h10.5t9.5 2t9 3.5t9 4.5q5 2 8 4.5t6 5.5q5 5 7 8t5 8q6 8 8 18q2 5 2 9v9q0 16 -6 28q-3 8 -6.5 13.5t-9.5 10.5q-10 10 -22 16q-8 2 -15 3t-15 1q-6 0 -13 -1t-15 -3q-12 -6 -22 -16q-5 -5 -9 -10.5t-7 -13.5
q-6 -12 -6 -28q0 -5 1 -9t1 -9q2 -6 4 -9.5t4 -8.5q3 -5 6 -8t6 -8q6 -6 14 -10q5 -3 9 -4.5t9 -3.5t9 -2h9zM3252 250q4 4 8 4h18v-182h-20v150h-2v-4v-2q0 -1 -1 -2h-1q-5 -11 -9 -21t-7 -19q-5 -11 -9 -19t-7 -18q-5 -8 -9 -16.5t-7 -16.5q-3 -9 -7 -16.5t-7 -15.5h-22
q-8 17 -15 34.5t-15 35.5q-9 18 -16.5 36t-15.5 36q-2 0 -2 4v4v-150h-20v182h16q4 0 8 -4q6 -3 6 -8l64 -140v-4q2 -2 2 -3v-1v4.5t2 5.5t2 5t1 5l59 128q0 5 6 8zM130 0h210v-24v-14q-2 -3 -3 -6t-3 -6l-142 -188q2 0 4 2q2 0 4 2h4h136v-50h-218v16q0 4 1 7.5t1 6.5
q2 3 2 6t2 6l6 12q4 3 8 10l126 170h-138v50zM376 0h182v-50h-130v-66h104v-50h-104v-68h130v-50h-182v284zM786 -50h-84v-234h-52v234h-82v50h218v-50zM914 0l122 -284h-32q-11 0 -20 6q-5 3 -8 7l-6 8l-16 39h-128l-18 -39q0 -3 -4 -7q-2 -3 -4 -4.5t-4 -3.5q-3 -2 -5 -3
t-5 -1q-3 -2 -5.5 -2h-4.5h-34l124 284h48zM932 -172l-38 86q-2 3 -2 5.5t-2 4.5v8q0 -4 -2 -8q0 -2 -1 -4.5t-1 -5.5l-38 -86h84zM1048 0h182v-50h-130v-72h108v-50h-108v-112h-52v284zM1516 -70q5 -8 8.5 -16.5t5.5 -17.5q6 -18 6 -38t-6 -38q-2 -9 -5.5 -18t-8.5 -18
q-9 -15 -22 -28q-6 -6 -13.5 -11.5t-16.5 -10.5q-8 -6 -16.5 -9.5t-17.5 -6.5q-9 -2 -18 -3t-20 -1q-15 0 -29.5 2.5t-26.5 7.5q-14 6 -25.5 13.5t-20.5 18.5q-21 21 -32 46q-6 14 -8 27t-2 29q0 9 0.5 19t3.5 19t6 17.5t8 16.5q5 9 10.5 15.5t13.5 14.5q13 13 28 22
q9 4 17 8.5t17 7.5q11 2 20 3t20 1t20 -1t18 -3q9 -3 17.5 -7.5t16.5 -8.5q9 -5 16.5 -10.5t13.5 -11.5q6 -8 11.5 -14.5t10.5 -15.5zM1478 -178q6 18 6 36t-6 36q-5 9 -9.5 15.5t-10.5 14.5q-8 6 -15.5 10t-14.5 8q-16 8 -36 8q-23 0 -36 -8q-9 -4 -16.5 -8t-13.5 -10
q-6 -8 -10.5 -14.5t-9.5 -15.5q-3 -9 -5.5 -18t-2.5 -18t2.5 -18t5.5 -18q10 -20 20 -30q6 -6 13.5 -10.5t16.5 -9.5q15 -6 36 -6q18 0 36 6q7 5 14.5 9.5t15.5 10.5q6 6 10.5 13.5t9.5 16.5zM1772 0h52v-284h-48l-134 190q-4 4 -4 6q-2 4 -6 8q0 2 -4 6q0 2 -1 3t-1 3v-216
h-52v284h46q8 0 16 -4t10 -9q15 -20 30 -41l30 -42t29.5 -41.5t28.5 -40.5q6 -6 6 -12q2 -3 2 -5.5v-4.5v200zM1848 0h218v-50h-82v-234h-52v234h-84v50zM2246 -146q9 -9 12 -22q6 -12 6 -28q0 -11 -2.5 -19.5t-5.5 -16.5q-5 -9 -10.5 -16.5t-11.5 -14.5q-15 -11 -34 -17
q-20 -6 -36 -6q-22 0 -40 6q-9 5 -16.5 9.5t-15.5 12.5q-5 5 -8 9t-6 9q-5 8 -8 16q2 0 6 4q4 0 8 4q2 0 4 1t4 1t4 0.5t4 0.5q6 0 12 -3q5 0 8 -1t6 -3q7 -7 16 -10q5 -2 10.5 -3t11.5 -1h7t9 2q3 2 7 3t7 3q9 6 12 13q6 7 6 17q0 5 -1 8t-3 6q-3 3 -6 5.5t-6 4.5
q-8 5 -16 8q-8 1 -18 8q-8 2 -15 4.5t-15 5.5t-14 7t-12 9q-10 10 -16 22q-8 13 -8 32q0 10 2.5 18t5.5 16q10 16 20 24q6 4 13 8.5t14 7.5q8 2 16.5 3t16.5 1q6 0 12 -1t12 -3q13 -3 22 -11q6 -2 10.5 -6t9.5 -9q5 -3 8 -7t6 -9l-10 -8l-6 -4t-8 -4t-8 -2.5t-6 -0.5h-4h-4
q-3 2 -5 2.5t-5 2.5q-2 2 -4.5 2t-3.5 2q-2 0 -3.5 1t-4.5 1q-2 2 -8 2h-6t-8 -2q-6 0 -10 -4q-3 -2 -6 -4.5t-4 -3.5q-2 -4 -2 -12t2 -10q1 -3 4 -5t6 -5q3 -2 7 -3t9 -3t10.5 -4t13.5 -4l8 -4q9 -3 15.5 -6t14.5 -8q14 -7 22 -18zM2332 -234q5 -3 5 -10q2 -2 3.5 -5.5
t1.5 -6.5q0 -5 -5 -12q0 -5 -5 -10q-2 -2 -10 -6q-4 -2 -12 -2t-12 2q-8 4 -11 6q-2 3 -3.5 5t-3.5 5q0 3 -1 6t-1 6t1 6.5t1 5.5q4 8 7 10q4 6 11 6q8 4 12 4t12 -4q7 0 10 -6zM2440 -76q-8 -8 -12.5 -14.5t-7.5 -15.5q-8 -16 -8 -36t8 -36q6 -19 20 -30q6 -6 13.5 -10.5
t16.5 -9.5q15 -6 34 -6q8 0 15 1t13 3q14 3 26 12q2 2 4 2t4 2q3 1 5.5 1h4.5q8 0 16 -3q8 -4 12 -8l12 -10q-6 -6 -12 -11.5t-12 -10.5t-13 -9t-13 -7q-8 -5 -15 -6.5t-15 -3.5q-8 -3 -15.5 -3.5t-16.5 -0.5q-14 0 -28 2.5t-28 7.5q-25 11 -46 32q-9 11 -16.5 21.5
t-13.5 24.5q-12 27 -12 56q0 20 6 38q2 9 5.5 17.5t8.5 16.5q5 9 10.5 15.5t11.5 14.5q8 6 14.5 11.5t15.5 10.5q8 4 16.5 8.5t17.5 7.5q11 2 20 3t18 1t16.5 -0.5t15.5 -3.5q13 -3 30 -11q12 -5 26 -15q6 -5 12 -10.5t12 -11.5l-12 -13q-4 -3 -12 -7q-5 -2 -16 -2
q-9 0 -18 6q-6 2 -12 5.5t-14 6.5q-6 2 -13 3t-15 1q-9 0 -17.5 -1.5t-16.5 -6.5q-9 -4 -16.5 -8t-13.5 -10zM2904 -70q5 -8 8.5 -16.5t5.5 -17.5q6 -18 6 -38t-6 -38q-2 -9 -5.5 -18t-8.5 -18q-9 -15 -22 -28q-8 -6 -14.5 -11.5t-15.5 -10.5q-8 -6 -16.5 -9.5t-17.5 -6.5
q-9 -2 -19 -3t-19 -1q-15 0 -29.5 2.5t-28.5 7.5q-12 6 -23.5 13.5t-20.5 18.5q-21 21 -32 46q-7 14 -9.5 27t-2.5 29q0 20 6 38q3 9 6 17.5t8 16.5q5 9 10.5 15.5t13.5 14.5q13 13 28 22q9 4 17 8.5t17 7.5q11 2 20 3t20 1q9 0 19 -1t19 -3q9 -3 17.5 -7.5t16.5 -8.5
q9 -5 15.5 -10.5t14.5 -11.5q6 -8 11.5 -14.5t10.5 -15.5zM2866 -178q6 18 6 36t-6 36q-5 9 -9.5 15.5t-10.5 14.5q-8 6 -15 10t-15 8q-16 8 -36 8q-23 0 -36 -8q-9 -4 -16.5 -8t-13.5 -10q-6 -8 -11.5 -14.5t-8.5 -15.5q-5 -9 -6.5 -18t-1.5 -18t1.5 -18t6.5 -18
q3 -9 8.5 -16.5t11.5 -13.5t13.5 -10.5t16.5 -9.5q15 -6 36 -6q18 0 36 6q8 5 15 9.5t15 10.5q6 6 10.5 13.5t9.5 16.5zM3216 -2q2 0 4.5 1t5.5 1h52v-284h-52v208q-2 -3 -3 -6t-1 -8q-2 -5 -3 -8t-3 -6l-36 -90q-9 -23 -18 -45t-20 -45h-46l-74 180q-2 3 -3 6t-3 8
q0 4 -4 12v-206h-52v284h52q3 0 6 -1t6 -1q2 -2 4 -2t4 -2q3 -2 4.5 -4.5t3.5 -3.5q2 -2 3 -4t3 -4q9 -23 17 -44t17 -42q9 -23 17.5 -44t16.5 -42q2 -2 2 -6q0 -2 1 -3t1 -3v-7v-1l2 1v7q0 4 2 6v6l10 20l60 152q0 5 6 8q3 5 8 8q2 2 5 2t5 2z" />
    <glyph glyph-name="colon" unicode=":" horiz-adv-x="516" 
d="M62 792q0 40 15.5 76t42 62t62 41.5t76.5 15.5q40 0 76 -15.5t62.5 -41.5t42 -62t15.5 -76q0 -41 -15.5 -76.5t-42 -62t-62.5 -42t-76 -15.5q-41 0 -76.5 15.5t-62 42t-42 62t-15.5 76.5zM62 176q0 40 15.5 76t42 62.5t62 42t76.5 15.5q40 0 76 -15.5t62.5 -42t42 -62.5
t15.5 -76q0 -41 -15.5 -76.5t-42 -62t-62.5 -42t-76 -15.5q-41 0 -76.5 15.5t-62 42t-42 62t-15.5 76.5z" />
    <glyph glyph-name="semicolon" unicode=";" horiz-adv-x="510" 
d="M58 796q0 40 15 75t41.5 61t62.5 40.5t77 14.5q40 0 76 -14.5t62.5 -40.5t42 -61t15.5 -75q0 -41 -15.5 -76.5t-42 -61t-62.5 -40t-76 -14.5q-41 0 -77 14.5t-62.5 40t-41.5 61t-15 76.5zM254 362q39 0 74.5 -14.5t62.5 -40t43 -60t16 -75.5q0 -62 -25.5 -121
t-66.5 -105.5t-92 -75.5t-102 -32q-41 0 -62.5 35.5t-31.5 88.5q-10 51 -11 108.5t-1 101.5q0 40 15 75t41.5 60.5t62.5 40t77 14.5z" />
    <glyph glyph-name="less" unicode="&#x3c;" horiz-adv-x="788" 
d="M532 98q-12 1 -24 1.5t-26 4.5q-23 7 -45 20t-41 32l-282 280q-29 28 -42.5 64.5t-13.5 74.5q0 37 15 74t41 63l282 279q30 29 63 44t73 15q37 0 72.5 -15t63.5 -42t45 -63.5t17 -79.5q0 -38 -14 -74t-44 -62l-181 -141l181 -139q30 -26 44 -62t14 -74q0 -69 -39 -120
q-28 -38 -70.5 -59t-88.5 -21z" />
    <glyph glyph-name="equal" unicode="=" horiz-adv-x="932" 
d="M860 322q0 -41 -15.5 -76.5t-42 -62t-62.5 -42t-76 -15.5h-396q-41 0 -77 15t-62.5 41.5t-41.5 62t-15 77.5q0 41 15 76.5t41.5 62t62.5 41.5t77 15h396q40 0 76 -15.5t62.5 -41.5t42 -62t15.5 -76zM860 777q0 -41 -15.5 -76.5t-42 -62t-62.5 -41.5t-76 -15h-396
q-41 0 -77 15t-62.5 41t-41.5 61.5t-15 77.5t15 77.5t41.5 61.5t62.5 41t77 15h396q40 0 76 -15t62.5 -41.5t42 -62t15.5 -76.5z" />
    <glyph glyph-name="greater" unicode="&#x3e;" horiz-adv-x="788" 
d="M298 102q-56 -11 -110 9.5t-90 68.5q-40 51 -40 118q0 38 14 74t44 62l182 139l-182 141q-30 26 -44 62t-14 74q0 15 2.5 30.5t7.5 29.5q9 30 27.5 55t43 43.5t54 29.5t61.5 12q81 0 140 -59l280 -279q28 -29 40.5 -63.5t15.5 -73.5q0 -38 -14 -74.5t-42 -64.5l-280 -280
q-22 -20 -46 -34t-50 -20z" />
    <glyph glyph-name="question" unicode="?" horiz-adv-x="1146" 
d="M391 414q0 36 3.5 63t16.5 52.5t38 52.5t69 63q18 15 47.5 31.5t57 39t48 51t20.5 67.5q0 24 -9 44t-24 34.5t-35 22.5t-42 8q-31 0 -51.5 -8.5t-35 -22t-23.5 -30t-16 -32.5q-11 -30 -33 -50t-49.5 -31.5t-58 -14.5t-57.5 2q-36 7 -69.5 27.5t-56 52.5t-29 75t13.5 94
q61 152 183 233t299 81q97 0 184 -37t152.5 -99t103.5 -143.5t38 -171.5q0 -44 -5.5 -81.5t-21 -75t-44.5 -77t-75 -86.5q-25 -25 -60.5 -43.5t-71 -40t-66 -49.5t-43.5 -72q-8 -26 -23.5 -43.5t-34 -28.5t-37 -15.5t-31.5 -4.5q-27 0 -57.5 7t-56 25.5t-42 50t-16.5 80.5z
M358 30q0 40 15.5 76t42 62.5t62 42t76.5 15.5q40 0 76 -15.5t62 -42t41.5 -62.5t15.5 -76q0 -41 -15.5 -76.5t-41.5 -62t-62 -42t-76 -15.5q-41 0 -76.5 15.5t-62 42t-42 62t-15.5 76.5z" />
    <glyph glyph-name="at" unicode="@" horiz-adv-x="13734" 
d="M13327 0q36 0 73 9.5t66.5 23t48.5 29t19 28.5q0 9 -5 15.5t-12 9t-14.5 1t-12.5 -6.5q-32 -32 -75 -48t-88 -16q-48 0 -90.5 17.5t-75 48t-52.5 71.5t-24 88h499q16 0 23.5 1t10.5 4t3 7.5v11.5q0 62 -21.5 115.5t-60 92.5t-90.5 61.5t-112 22.5q-61 0 -116 -20.5
t-96.5 -59t-66 -93t-24.5 -121.5q0 -60 23 -113.5t63 -93t93.5 -62.5t113.5 -23zM13337 541q49 0 90.5 -17.5t72.5 -48t49.5 -71.5t22.5 -88h-486q5 47 26.5 88t55 71.5t77 48t92.5 17.5zM12451 560q0 11 -6.5 18.5t-17.5 7.5q-14 0 -19 -9.5t-5 -16.5v-267q0 -60 21 -113.5
t58.5 -93t89 -62.5t111.5 -23q49 0 92.5 16t77 39t56.5 50t31 50v140q0 -49 -21.5 -94.5t-57 -80t-82 -55t-96.5 -20.5t-92.5 19.5t-73.5 53t-48.5 79t-17.5 96.5v266zM12988 561q0 11 -6.5 18t-17.5 7q-10 0 -17 -7t-7 -18v-355v-22v-111q0 -23 3.5 -37t9 -22t11.5 -11
t12 -3q12 0 12 12v549zM12074 0q36 0 73 9.5t66.5 23t48.5 29t19 28.5q0 9 -5 15.5t-11.5 9t-14 1t-12.5 -6.5q-32 -32 -75.5 -48t-88.5 -16q-48 0 -90.5 17.5t-75 48t-52.5 71.5t-24 88h499q16 0 23.5 1t10.5 4t3 7.5v11.5q0 62 -21.5 115.5t-60 92.5t-90.5 61.5t-112 22.5
q-61 0 -116 -20.5t-96.5 -59t-66 -93t-24.5 -121.5q0 -60 23 -113.5t63 -93t93.5 -62.5t113.5 -23zM12084 541q49 0 90.5 -17.5t72.5 -48t49.5 -71.5t22.5 -88h-485q5 47 26 88t54.5 71.5t77 48t92.5 17.5zM11699 25q0 -11 6.5 -18t17.5 -7q14 0 19.5 9.5t5.5 15.5v268
q0 60 -21.5 113t-59 92.5t-89 62.5t-111.5 23q-50 0 -93 -15.5t-77 -39t-56.5 -50.5t-30.5 -49v-141q0 49 21.5 94.5t57 80.5t82 55.5t96.5 20.5t92.5 -19.5t73.5 -53.5t48.5 -79t17.5 -96v-267zM11162 24q0 -10 6.5 -17t17.5 -7t17.5 7t6.5 17v356v22v111q0 44 -12 58.5
t-24 14.5t-12 -12v-550zM124 1112q0 41 15 77t41.5 62.5t62.5 41.5t77 15q40 0 76 -15t62.5 -41.5t42 -62.5t15.5 -77v-530l-50 -308l-86 -182q-23 -50 -58 -81t-89 -31q-55 0 -82 27.5t-27 80.5v1024zM228 484q0 103 36.5 195t98 160t141 108t166.5 40q104 0 189 -40
t146 -108t94 -160t33 -195q0 -104 -33 -196t-94 -160.5t-146 -108t-189 -39.5t-186 39.5t-139 108t-87 160.5t-30 196zM516 484q0 -24 8.5 -46.5t23.5 -39t35.5 -26.5t44.5 -10t45 10t36 26.5t23.5 39t8.5 46.5t-8.5 45.5t-23.5 38t-36 26.5t-45 10t-44.5 -10t-35.5 -26.5
t-23.5 -38t-8.5 -45.5zM1583 794q0 40 -16 75t-43 61t-63 41.5t-76 15.5t-75 -15.5t-61.5 -41.5t-42 -61t-15.5 -75v-310q0 -104 30 -196t87 -160.5t139 -108t186 -39.5q24 0 60.5 2t82 13t97.5 35t108 68l-171 386q0 -24 -9 -46.5t-25 -39t-37.5 -26.5t-45.5 -10t-44 10
t-35 26.5t-23 39t-8 46.5v310zM2201 792q0 41 -15 76.5t-41.5 62t-62 41.5t-77.5 15q-41 0 -76.5 -15t-61.5 -41.5t-41.5 -62t-15.5 -76.5v-527l50 9l85 -182q26 -56 60.5 -84t87.5 -28q55 0 81.5 27.5t26.5 80.5v704zM2289 1112q0 41 15 77t41.5 62.5t62.5 41.5t77 15
q40 0 76 -15t62.5 -41.5t42 -62.5t15.5 -77v-530l-50 -308l-86 -182q-23 -50 -58 -81t-89 -31q-55 0 -82 27.5t-27 80.5v1024zM2393 484q0 103 36.5 195t98 160t141 108t166.5 40q104 0 189 -40t146 -108t94 -160t33 -195q0 -104 -33 -196t-94 -160.5t-146 -108t-189 -39.5
t-186 39.5t-139 108t-87 160.5t-30 196zM2681 484q0 -24 8.5 -46.5t23.5 -39t35.5 -26.5t44.5 -10t45 10t36 26.5t23.5 39t8.5 46.5t-8.5 45.5t-23.5 38t-36 26.5t-45 10t-44.5 -10t-35.5 -26.5t-23.5 -38t-8.5 -45.5zM3352 1112q0 41 15 77t41.5 62.5t62.5 41.5t77 15
q40 0 76 -15t62.5 -41.5t42 -62.5t15.5 -77v-530l-50 -308l-86 -182q-23 -50 -58 -81t-89 -31q-55 0 -82 27.5t-27 80.5v1024zM3456 484q0 103 36.5 195t98 160t141 108t166.5 40q104 0 189 -40t146 -108t94 -160t33 -195q0 -104 -33 -196t-94 -160.5t-146 -108t-189 -39.5
t-186 39.5t-139 108t-87 160.5t-30 196zM3744 484q0 -24 8.5 -46.5t23.5 -39t35.5 -26.5t44.5 -10t45 10t36 26.5t23.5 39t8.5 46.5t-8.5 45.5t-23.5 38t-36 26.5t-45 10t-44.5 -10t-35.5 -26.5t-23.5 -38t-8.5 -45.5zM4409 176q0 -41 15 -77t41.5 -62.5t62.5 -41.5t77 -15
q40 0 76 15t62.5 41.5t42 62.5t15.5 77v934q0 40 -15.5 76t-42 62t-62.5 41.5t-76 15.5q-41 0 -77 -15.5t-62.5 -41.5t-41.5 -62t-15 -76v-934zM5354 -20q58 0 120 9.5t113.5 32.5t84.5 61t32 96q-1 35 -14.5 62t-36 46t-51 29.5t-58.5 14.5t-58.5 0t-50.5 -14
q-20 -9 -38 -15.5t-41 -6.5q-20 0 -38 8.5t-32.5 22t-24 28.5t-11.5 29h441q37 0 67.5 5.5t52.5 19.5t34.5 39t12.5 64q0 104 -40 191.5t-108.5 150.5t-160 98.5t-195.5 35.5t-195.5 -40t-160 -108t-108.5 -160t-40 -195q0 -104 40 -196t108.5 -160.5t160 -108t195.5 -39.5z
M5354 677q15 0 33 -5.5t34.5 -15t28.5 -23.5t14 -31h-220q4 17 15 31t26.5 23.5t33.5 15t35 5.5zM5905 1112q0 41 15 77t41.5 62.5t62.5 41.5t77 15q40 0 76 -15t62.5 -41.5t42 -62.5t15.5 -77v-530l-50 -308l-86 -182q-23 -50 -58 -81t-89 -31q-55 0 -82 27.5t-27 80.5
v1024zM6009 484q0 103 36.5 195t98 160t141 108t166.5 40q104 0 189 -40t146 -108t94 -160t33 -195q0 -104 -33 -196t-94 -160.5t-146 -108t-189 -39.5t-186 39.5t-139 108t-87 160.5t-30 196zM6297 484q0 -24 8.5 -46.5t23.5 -39t35.5 -26.5t44.5 -10t45 10t36 26.5
t23.5 39t8.5 46.5t-8.5 45.5t-23.5 38t-36 26.5t-45 10t-44.5 -10t-35.5 -26.5t-23.5 -38t-8.5 -45.5zM6957 484q0 -104 40 -196t108.5 -160.5t160 -108t195.5 -39.5t195.5 39.5t160 108t108.5 160.5t40 196q0 103 -40 195t-108.5 160t-160 108t-195.5 40t-195.5 -40
t-160 -108t-108.5 -160t-40 -195zM7349 484q0 24 8.5 45.5t23.5 38t35.5 26.5t44.5 10t44.5 -10t35.5 -26.5t23.5 -38t8.5 -45.5t-8.5 -46.5t-23.5 -39t-35.5 -26.5t-44.5 -10t-44.5 10t-35.5 26.5t-23.5 39t-8.5 46.5zM8628 1112v-847l50 9l86 -182q23 -50 58 -81t89 -31
q55 0 82 27.5t27 80.5v1024q0 41 -15 77t-41.5 62.5t-62.5 41.5t-77 15t-76.5 -15t-62 -41.5t-42 -62.5t-15.5 -77zM8895 484q0 69 -18 133t-49 120t-73 102t-88.5 79t-96 51t-96.5 18q-104 0 -189 -40t-145.5 -108t-94 -160t-33.5 -195q0 -104 33.5 -196t94 -160.5
t145.5 -108t189 -39.5t182.5 39.5t131.5 108t80 160.5t27 196zM8628 484q0 -24 -8.5 -46.5t-23.5 -39t-35.5 -26.5t-44.5 -10t-44.5 10t-35.5 26.5t-23.5 39t-8.5 46.5t8.5 45.5t23.5 38t35.5 26.5t44.5 10t44.5 -10t35.5 -26.5t23.5 -38t8.5 -45.5zM9679 1112v-847l50 9
l86 -182q23 -50 58 -81t89 -31q55 0 82 27.5t27 80.5v1024q0 41 -15 77t-41.5 62.5t-62.5 41.5t-77 15t-76.5 -15t-62 -41.5t-42 -62.5t-15.5 -77zM9946 484q0 69 -18 133t-49 120t-73 102t-88.5 79t-96 51t-96.5 18q-104 0 -189 -40t-145.5 -108t-94 -160t-33.5 -195
q0 -104 33.5 -196t94 -160.5t145.5 -108t189 -39.5t182.5 39.5t131.5 108t80 160.5t27 196zM9679 484q0 -24 -8.5 -46.5t-23.5 -39t-35.5 -26.5t-44.5 -10t-44.5 10t-35.5 26.5t-23.5 39t-8.5 46.5t8.5 45.5t23.5 38t35.5 26.5t44.5 10t44.5 -10t35.5 -26.5t23.5 -38
t8.5 -45.5zM10457 131q-1 1 -14 27t-34 67.5t-48 94t-54 106.5q-65 128 -146 289q-17 39 -18 78t11 74t37 63t61 45q37 17 78 19.5t77.5 -8.5t65.5 -36.5t42 -63.5l143 -423q34 96 57.5 168t40 123.5t27 84.5t18.5 51q17 37 46 62t65 36.5t75.5 8.5t77.5 -22
q18 -9 43.5 -30.5t43 -55t20.5 -79t-24 -102.5l-396 -833q-22 -46 -61 -79.5t-87 -55.5t-101.5 -33t-104.5 -11t-90.5 14.5t-67.5 40t-42.5 61t-14.5 78.5q0 58 25 89t61 44.5t75 15t66 1.5z" />
    <glyph glyph-name="A" unicode="A" horiz-adv-x="1235" 
d="M607 1291q35 0 63 -11.5t51 -31t40.5 -45.5t31.5 -56l371 -901q7 -17 9.5 -35t3.5 -35q0 -38 -14 -72.5t-41 -63.5q-36 -38 -83.5 -51.5t-94.5 -4.5t-87 40t-59 82l-25 55h-333l-25 -55q-25 -56 -71.5 -91.5t-110.5 -34.5q-48 0 -87 20t-65.5 52.5t-38 74t-3.5 84.5
q3 17 10 35l350 854q8 21 12.5 43t9.5 43q6 21 16 40.5t30 33.5t53.5 22.5t86.5 8.5zM511 458h190l-94 245z" />
    <glyph glyph-name="B" unicode="B" horiz-adv-x="1268" 
d="M133 1143q1 -3 1 -5.5t1 -5.5zM124 1210q0 18 5 33t17.5 25.5t34.5 16.5t57 6h504q67 0 130 -17t116.5 -51t94 -83.5t63.5 -115.5q11 -32 17 -68t6 -77q0 -46 -12 -81.5t-26 -61.5q-17 -30 -37 -52q35 -26 63 -64q24 -32 44 -80t20 -114q0 -70 -17 -130q-21 -75 -64 -134
t-101.5 -99.5t-128 -61.5t-143.5 -21h-430q-47 0 -83.5 17.5t-61 45.5t-37.5 63t-13 70v905q-1 13 -3 25.5t-4 25.5l-2 11q-4 17 -6.5 34t-2.5 33zM526 512v-174h218q13 0 29 4.5t29.5 14.5t22.5 26.5t9 40.5q0 25 -8.5 41.5t-21.5 27t-29 15t-31 4.5h-218zM526 954v-148
h204q13 0 25.5 6t22 16t15 24t5.5 29q0 33 -22.5 53t-47.5 20h-202z" />
    <glyph glyph-name="C" unicode="C" horiz-adv-x="1309" 
d="M913 809q-17 13 -34 29.5t-39 31t-51.5 24.5t-70.5 10q-55 0 -103 -22t-84 -59.5t-56.5 -87t-20.5 -103.5t21 -103t57 -86t84 -59t102 -22q45 0 75.5 12.5t56 31t50 40t57.5 40.5q25 14 56 21.5t62 6t61 -13.5t54 -36q56 -56 56 -136q0 -38 -13 -73t-43 -65
q-46 -56 -96.5 -95.5t-108 -65t-124 -37.5t-143.5 -12q-136 0 -255.5 51.5t-208.5 140.5t-140.5 208.5t-51.5 255.5q0 135 51.5 254t140.5 208.5t208.5 141t255.5 51.5q76 0 139.5 -11.5t118 -36t103 -63t95.5 -91.5q26 -30 40 -63.5t16 -73.5q2 -32 -12 -69t-44 -67
q-22 -22 -51 -37.5t-63 -18.5t-71 8t-76 41z" />
    <glyph glyph-name="D" unicode="D" horiz-adv-x="1357" 
d="M337 -20q-36 0 -68 11.5t-57 32.5t-42 49.5t-24 61.5q-2 10 -3 20t-1 21v905q-2 32 -10 65.5t-8 63.5q0 18 5.5 33t19 25.5t37.5 16.5t62 6h391q90 0 173.5 -23.5t156.5 -66.5t132.5 -102.5t102.5 -132.5t66.5 -156.5t23.5 -173.5q0 -136 -51.5 -255.5t-141 -208.5
t-208.5 -140.5t-254 -51.5h-302zM903 636q0 67 -21 119.5t-57 89t-84 57t-102 23.5h-107v-560h107q54 3 102 23.5t84 55.5t57 83.5t21 108.5z" />
    <glyph glyph-name="E" unicode="E" horiz-adv-x="1198" 
d="M1136 176q0 -41 -15 -77t-41.5 -62.5t-62.5 -41.5t-77 -15h-603q-42 0 -77.5 15t-61.5 41t-41 62t-15 78v905q-2 32 -10 65.5t-8 63.5q0 18 5.5 33t19 25.5t37.5 16.5t62 6h692q62 0 104 -27.5t63.5 -68.5t22 -89.5t-20 -89.5t-63 -68.5t-106.5 -27.5h-408v-106h283
q45 0 84 -22.5t63.5 -58.5t31 -80.5t-13.5 -88.5q-23 -51 -66 -79.5t-99 -28.5h-283v-84h408q41 0 77 -15t62.5 -41t41.5 -62t15 -78z" />
    <glyph glyph-name="F" unicode="F" horiz-adv-x="1165" 
d="M142 1081q-2 32 -10 65.5t-8 63.5q0 18 5.5 33t19 25.5t37.5 16.5t62 6h682q30 0 63.5 -9t62 -29t47.5 -53.5t21 -82.5q1 -36 -10 -71.5t-35 -63.5t-61 -45t-88 -17h-398v-127h250q42 0 77.5 -13t62 -37.5t41.5 -59t15 -76.5q0 -41 -15 -77t-41.5 -62t-62 -41t-77.5 -15
h-250v-236q0 -41 -15 -76.5t-41 -62t-61.5 -42t-77.5 -15.5t-77.5 15.5t-61.5 42t-41 62t-15 76.5v905v0z" />
    <glyph glyph-name="G" unicode="G" horiz-adv-x="1366" 
d="M730 356q12 0 31 1.5t39 7.5t38.5 16.5t29.5 28.5q66 42 120 51.5t93 -3.5t61 -42.5t23.5 -65.5t-19.5 -73t-68 -63q-28 -40 -62 -81.5t-77 -75.5t-97.5 -55.5t-123.5 -21.5q-136 0 -255.5 51.5t-208.5 140.5t-140.5 208.5t-51.5 255.5q0 135 51.5 254t140.5 208.5
t208.5 141t255.5 51.5q76 0 141 -13.5t121.5 -40t106.5 -66t97 -92.5q26 -31 41 -64t15 -74q0 -54 -26.5 -97.5t-71.5 -68.5q-41 -23 -88.5 -26.5t-92.5 19.5q-36 18 -59.5 41.5t-47.5 44.5t-55 35.5t-81 14.5q-55 0 -103 -22t-84 -59.5t-56.5 -87t-20.5 -103.5
q0 -62 21.5 -113t59 -87t87.5 -56t108 -20zM960 327h-119q-34 0 -62.5 14t-48.5 36t-31.5 48t-11.5 50q0 26 12.5 53.5t35.5 50t55 36.5t72 14h271q32 0 59.5 -8.5t47.5 -29.5t31 -55t11 -85v-319q0 -32 -11 -59t-31 -47t-48.5 -31t-63.5 -11q-73 0 -109 45.5t-36 120.5v177
h-23z" />
    <glyph glyph-name="H" unicode="H" horiz-adv-x="1408" 
d="M1297 176q0 -41 -15 -76.5t-41.5 -62t-62 -42t-77.5 -15.5q-41 0 -77 15.5t-62 42t-41 62t-15 76.5v241h-374v-241q0 -41 -15 -76.5t-41 -62t-61.5 -42t-77.5 -15.5t-77.5 15.5t-61.5 42t-41 62t-15 76.5v905q-2 32 -10 65.5t-8 63.5q0 18 5.5 33t19 25.5t37.5 16.5t62 6
q55 0 106 -7.5t90.5 -28.5t63.5 -59.5t24 -100.5v-287h374v273q-2 32 -9.5 65.5t-7.5 63.5q0 18 5 33t19 25.5t37.5 16.5t61.5 6q53 0 104 -7t91.5 -28t65 -59.5t24.5 -101.5v-919z" />
    <glyph glyph-name="I" unicode="I" horiz-adv-x="658" 
d="M532 176q0 -41 -15 -76.5t-41 -62t-61.5 -42t-77.5 -15.5t-77.5 15.5t-61.5 42t-41 62t-15 76.5v905q-2 32 -10 65.5t-8 63.5q0 18 5.5 33t19 25.5t37.5 16.5t62 6q57 0 107 -7.5t88 -29t61.5 -60t27.5 -101.5v-917z" />
    <glyph glyph-name="J" unicode="J" horiz-adv-x="642" 
d="M-118 -142q0 40 15 75.5t41.5 62t62.5 41.5t77 15q33 0 48.5 31.5t15.5 82.5v931q0 30 -8 56.5t-8 56.5q0 18 5.5 33t19 25.5t37.5 16.5t61 6q53 0 104 -7t91.5 -28t65 -59.5t24.5 -101.5v-929q0 -117 -34 -210.5t-94.5 -159t-144 -100t-183.5 -34.5q-41 0 -77 15
t-62.5 41.5t-41.5 62t-15 77.5z" />
    <glyph glyph-name="K" unicode="K" horiz-adv-x="1259" 
d="M248 1305q50 0 100.5 -5.5t91 -25.5t66.5 -59t26 -105l1 -193l351 326q38 35 90 44.5t103 -9.5q15 -5 31 -13.5t31 -20t27 -25.5t19 -30q13 -32 18 -65.5t0 -65.5t-20.5 -60.5t-42.5 -49.5l-265 -207l305 -463q31 -47 31 -96.5t-27 -97.5q-24 -44 -67.5 -74t-105.5 -30
q-49 0 -92 24t-72 72l-264 442l-53 -44l2 -298q0 -41 -15 -76.5t-41 -62t-61.5 -42t-77.5 -15.5t-77.5 15.5t-61.5 42t-41 62t-15 76.5v919q-2 33 -10 66.5t-8 62.5q0 18 5.5 33t19 25.5t37.5 16.5t62 6z" />
    <glyph glyph-name="L" unicode="L" horiz-adv-x="1112" 
d="M1063 196q0 -41 -13.5 -76.5t-37.5 -62t-57 -42t-73 -15.5h-554q-40 2 -74 17.5t-59 41.5t-39 61t-14 76v905q-2 32 -10 65.5t-8 63.5q0 18 5.5 33t19 25.5t37.5 16.5t62 6q55 0 106 -7.5t90.5 -28.5t63.5 -59.5t24 -100.5v-723h336q40 0 75.5 -15.5t62 -42t42 -62.5
t15.5 -76z" />
    <glyph glyph-name="M" unicode="M" horiz-adv-x="1555" 
d="M508 706q0 -104 0.5 -179t0.5 -134t0.5 -110t0.5 -107q0 -41 -15 -76.5t-41 -62t-61.5 -42t-77.5 -15.5t-77.5 15.5t-61.5 42t-41 62t-15 76.5q0 228 1.5 453.5t-1.5 451.5q0 32 -9 64t-9 65q0 18 5.5 33t19 25.5t37.5 16.5t62 6q50 0 84.5 -1t60 -7.5t46.5 -20t45 -38.5
l324 -357q89 91 146.5 156t92 107.5t49.5 66t20 31.5q8 13 18.5 24.5t28.5 20t45 13.5t68 5q57 0 94.5 -16.5t60 -43t32.5 -60t13.5 -67t2.5 -63.5t-1 -50v-815q0 -41 -15 -76.5t-41.5 -62t-62 -42t-76.5 -15.5q-27 0 -60.5 10.5t-63 34t-49 61t-19.5 90.5v530l-135 -172
q-40 -48 -72.5 -77t-69.5 -29q-20 0 -35.5 7t-31.5 20.5t-33.5 33t-41.5 45.5z" />
    <glyph glyph-name="N" unicode="N" horiz-adv-x="1413" 
d="M1288 198q0 -44 -13.5 -83.5t-38.5 -69.5t-61 -47.5t-81 -17.5q-39 0 -76.5 15.5t-66.5 48.5l-421 508q0 -94 -1 -188t-1 -188q0 -42 -14.5 -78t-40 -62t-60.5 -41t-76 -15q-42 0 -77.5 15t-61.5 41.5t-41 62.5t-15 77v905q-2 32 -10 65.5t-8 63.5q0 18 5.5 33t19 25.5
t37.5 16.5t62 6q45 0 78 -1.5t60.5 -9.5t52.5 -24t54 -46l406 -489l-2 353q0 36 -8.5 71t-8.5 65q0 23 5.5 38.5t23 25t49.5 13.5t86 4q49 0 93.5 -6.5t78 -27t53 -59t19.5 -103.5v-897z" />
    <glyph glyph-name="O" unicode="O" horiz-adv-x="1436" 
d="M62 636q0 135 51.5 254t140.5 208.5t208.5 141t255.5 51.5q90 0 173.5 -23.5t156.5 -66.5t132.5 -102.5t102.5 -132.5t66.5 -156.5t23.5 -173.5q0 -136 -51.5 -255.5t-141 -208.5t-208.5 -140.5t-254 -51.5q-136 0 -255.5 51.5t-208.5 140.5t-140.5 208.5t-51.5 255.5z
M454 632q0 -53 20.5 -102t56.5 -86.5t84 -59.5t103 -22q54 0 102 22.5t84 60t57 87t21 104.5q0 54 -21 102.5t-57 85t-84 58.5t-102 22q-55 0 -103 -22t-84 -59.5t-56.5 -87t-20.5 -103.5z" />
    <glyph glyph-name="P" unicode="P" horiz-adv-x="1233" 
d="M1181 820q0 -67 -19.5 -128t-54.5 -114t-83 -95.5t-105.5 -73t-122 -47t-132.5 -16.5h-132v-170q0 -41 -15 -77t-41.5 -62.5t-62 -41.5t-76.5 -15q-42 0 -77.5 15t-61.5 41.5t-41 62.5t-15 77v919q-2 33 -10 66.5t-8 62.5q0 18 5.5 33t19 25.5t37.5 16.5t62 6h416
q102 0 195.5 -37.5t165 -103t114 -154t42.5 -190.5zM798 808q0 28 -10.5 55t-28.5 48t-42.5 34t-52.5 13h-140v-281h140q28 0 52.5 10t42.5 27.5t28.5 41.5t10.5 52z" />
    <glyph glyph-name="Q" unicode="Q" horiz-adv-x="1436" 
d="M722 -330q-42 0 -72.5 14t-52 39t-34.5 59.5t-18 75.5l-19 150q-101 31 -186 91t-146.5 142t-96.5 182.5t-35 212.5q0 135 51.5 254t140.5 208.5t208.5 141t255.5 51.5q90 0 173.5 -23.5t156.5 -66.5t132.5 -102.5t102.5 -132.5t66.5 -156.5t23.5 -173.5
q0 -111 -34.5 -211t-95.5 -182t-146 -142t-185 -91l-17 -152q-10 -89 -51.5 -138.5t-121.5 -49.5zM464 636q0 -55 19 -104.5t53 -87t80.5 -60t101.5 -22.5t101.5 22.5t80.5 60t53 87t19 104.5q0 54 -19 102.5t-53 85t-80.5 58.5t-101.5 22q-54 0 -100.5 -22t-80.5 -58.5
t-53.5 -85t-19.5 -102.5z" />
    <glyph glyph-name="R" unicode="R" horiz-adv-x="1227" 
d="M892 585l258 -293q27 -30 38 -66t7 -72.5t-22 -70.5t-50 -59t-68 -35.5t-72 -6.5t-68.5 21.5t-57.5 48.5l-280 384zM1181 820q0 -67 -19.5 -128t-54.5 -114t-83 -95.5t-105.5 -73t-122 -47t-132.5 -16.5h-132v-170q0 -41 -15 -77t-41.5 -62.5t-62 -41.5t-76.5 -15
q-42 0 -77.5 15t-61.5 41.5t-41 62.5t-15 77v919q-2 33 -10 66.5t-8 62.5q0 18 5.5 33t19 25.5t37.5 16.5t62 6h416q102 0 195.5 -37.5t165 -103t114 -154t42.5 -190.5zM798 808q0 28 -10.5 55t-28.5 48t-42.5 34t-52.5 13h-140v-281h140q28 0 52.5 10t42.5 27.5t28.5 41.5
t10.5 52z" />
    <glyph glyph-name="S" unicode="S" horiz-adv-x="1059" 
d="M778 831q-20 0 -39 1.5t-39 8t-42 19t-48 35.5q-32 28 -57 47t-45 19q-11 0 -23.5 -2t-23 -6.5t-17 -11.5t-6.5 -16q0 -20 24.5 -39.5t64.5 -41t91 -45.5t104.5 -53.5t104.5 -65.5t91 -80.5t64.5 -98.5t24.5 -121q0 -70 -22.5 -127.5t-60.5 -102t-88 -77t-105 -54
t-110.5 -31.5t-105.5 -10q-130 0 -222 30t-150 76.5t-84.5 102.5t-26.5 107q0 37 12.5 69.5t35.5 55.5t54.5 36.5t69.5 13.5q42 0 84 -21.5t92 -59.5q14 -11 33 -19t38.5 -13t36.5 -7.5t28 -2.5q26 0 48.5 8t22.5 31q0 18 -38.5 36.5t-97 44t-126 60.5t-126 86t-97 121
t-38.5 165q0 88 31.5 160t92.5 124t150 80.5t203 28.5q39 0 86 -9.5t94.5 -27.5t92 -44t79 -60t55 -75t20.5 -88q0 -43 -13.5 -73t-38.5 -48.5t-60 -26.5t-78 -8z" />
    <glyph glyph-name="T" unicode="T" horiz-adv-x="1219" 
d="M1188 1095q0 -41 -15.5 -76.5t-42.5 -61.5t-62.5 -41.5t-75.5 -15.5h-184l-5 -724q0 -41 -14.5 -77t-40 -62.5t-60.5 -41.5t-76 -15q-42 0 -77.5 15.5t-61 42t-39.5 62t-14 76.5l-4 724h-190q-41 0 -76 15t-61.5 41t-41.5 62t-15 77q0 42 15 77.5t41.5 62t61.5 41.5
t76 15h766q40 0 75.5 -15.5t62.5 -42t42.5 -62t15.5 -76.5z" />
    <glyph glyph-name="U" unicode="U" horiz-adv-x="1277" 
d="M44 1081q-2 32 -10 65.5t-8 63.5q0 18 5.5 33t19 25.5t37.5 16.5t62 6q55 0 105.5 -6.5t89 -27.5t62.5 -59.5t27 -102.5v-577q0 -36 14.5 -69t41.5 -58t64.5 -39.5t83.5 -14.5q39 0 75.5 14.5t65 39.5t46 58t17.5 69l-2 563q-2 32 -9.5 65.5t-7.5 63.5q0 18 5.5 33
t19 25.5t37.5 16.5t61 6q51 0 101.5 -6.5t91.5 -27t66.5 -59t25.5 -103.5l2 -576q-2 -78 -25 -150.5t-63.5 -136t-95.5 -116t-120.5 -90t-139.5 -58.5t-151 -21q-79 0 -154 20.5t-141 57.5t-121 89t-95 115.5t-62 137t-22 152.5z" />
    <glyph glyph-name="V" unicode="V" horiz-adv-x="1213" 
d="M47 1022q-16 39 -15.5 78t15 73.5t41.5 62t65 42.5t77 14.5t73.5 -14.5t62 -41t43.5 -65l328 -900l50 -22q16 -39 15 -78.5t-16 -74t-42.5 -62t-64.5 -43.5q-38 -15 -76.5 -14.5t-73 15t-62.5 42t-44 65.5zM789 100q-16 -38 -43.5 -65.5t-62 -42t-73.5 -15t-77 14.5
q-38 16 -65 43.5t-42 62t-15.5 74t14.5 78.5l50 22l329 900q12 39 39 66t62.5 41t75.5 14t79 -15q37 -15 64.5 -42.5t42 -62t15 -73.5t-15.5 -78z" />
    <glyph glyph-name="W" unicode="W" horiz-adv-x="1769" 
d="M759 781q-14 32 -19 65.5t1 63.5t24 54t50 38q33 13 67 12.5t64 -13t53.5 -35.5t35.5 -56l237 -638l71 -22q16 -39 15 -78.5t-16 -74t-42.5 -62t-64.5 -43.5q-38 -15 -76.5 -14.5t-73 15t-62.5 42t-44 65.5zM1345 100q-16 -38 -43.5 -65.5t-62 -42t-73.5 -15t-77 14.5
q-38 16 -65 43.5t-42 62t-16 74t15 78.5l71 22l308 900q17 51 59 82t93 38q52 6 104 -14q37 -15 64.5 -42.5t42 -62t15 -74t-15.5 -77.5zM47 1022q-16 39 -15.5 78t15 73.5t41.5 62t65 42.5t78 15t75 -14t62.5 -41t40.5 -66l308 -900l70 -22q16 -39 15 -78.5t-16 -74
t-42.5 -62t-64.5 -43.5q-38 -15 -76.5 -14.5t-73 15t-62.5 42t-44 65.5zM789 100q-16 -38 -43.5 -65.5t-62 -42t-73.5 -15t-77 14.5q-38 16 -65 43.5t-42 62t-15.5 74t14.5 78.5l72 22l226 636q11 33 34.5 56.5t54 35.5t64.5 12.5t67 -12.5q32 -13 50 -37t24 -54t1 -63.5
t-18 -66.5z" />
    <glyph glyph-name="X" unicode="X" horiz-adv-x="1362" 
d="M963 1231q28 30 63.5 44.5t73 14.5t74 -15t65.5 -44q28 -29 43 -65t15 -73.5t-14.5 -73.5t-43.5 -65l-461 -454q-30 -30 -45 -29t-26.5 20t-25.5 49.5t-42 59.5q-30 29 -44 64t-13.5 72t15.5 72.5t45 65.5zM701 870q30 -30 46 -65t17 -71t-13 -70.5t-44 -63.5
q-28 -29 -42 -59.5t-26 -49.5t-27 -20t-45 29l-460 454q-29 28 -43 64.5t-14 74t14 73.5t43 65q29 30 66 45t75 15.5t73.5 -14.5t62.5 -46zM379 38q-26 -31 -61.5 -45.5t-73.5 -14.5t-75 15.5t-66 44.5t-43.5 65t-14.5 73t14.5 73t43.5 66l452 468q19 20 32.5 24.5t24 -1.5
t19 -21t18.5 -34.5t22.5 -41.5t31.5 -41q30 -29 43.5 -62.5t11.5 -68.5t-18.5 -69t-46.5 -64zM647 401q-30 30 -47 64.5t-19.5 70t11 69.5t43.5 63q27 29 42.5 60.5t29 52.5t30 23.5t45.5 -27.5l453 -462q28 -29 42.5 -65t14.5 -73.5t-14 -73.5t-43 -65t-66 -44.5t-75 -15.5
t-73.5 14.5t-61.5 45.5z" />
    <glyph glyph-name="Y" unicode="Y" horiz-adv-x="1262" 
d="M435 656q0 40 15 76t41 62t62 41.5t77 15.5t76.5 -15.5t62 -41.5t42 -62t15.5 -76v-481q0 -41 -15.5 -77t-42 -62.5t-62 -41.5t-76.5 -15t-77 15t-62 41.5t-41 62.5t-15 77v481zM911 1230q25 32 60.5 47t74 14t76 -16.5t66.5 -44.5q28 -29 42 -64.5t14 -72.5t-14.5 -73
t-41.5 -67l-437 -494q-20 -20 -34 -24t-25 2.5t-20 22.5t-19.5 36t-23.5 41.5t-31 41.5q-30 29 -43.5 63t-11.5 69.5t18.5 70t46.5 64.5zM656 846q30 -30 46 -64.5t18 -70t-11 -69.5t-43 -63q-28 -29 -45 -63t-31.5 -57t-32 -27.5t-47.5 25.5l-434 496q-27 31 -41.5 67
t-15 73t13.5 72t43 65q29 29 66 44.5t75.5 16.5t74 -14t60.5 -47z" />
    <glyph glyph-name="Z" unicode="Z" horiz-adv-x="1232" 
d="M1138 1095q0 -38 -14.5 -75.5t-39.5 -69.5l-454 -583h345q97 0 150.5 -51.5t53.5 -139.5q0 -41 -15.5 -76.5t-42.5 -62t-62.5 -42t-75.5 -15.5h-725q-52 0 -97 28t-71 72q-34 54 -26 117.5t48 122.5q112 145 226 289.5t226 290.5h-286q-41 0 -76.5 15t-62 41t-42 62
t-15.5 77q0 42 15.5 77.5t42 62t62 41.5t76.5 15h664q40 0 75.5 -15.5t62.5 -42t42.5 -62t15.5 -76.5z" />
    <glyph glyph-name="bracketleft" unicode="[" horiz-adv-x="769" 
d="M748 -160q0 -41 -15.5 -75t-42 -58.5t-62.5 -38.5t-76 -14h-252q-41 0 -76.5 14.5t-62 40t-42 59.5t-15.5 74v1269q0 37 15.5 69t42.5 55.5t62.5 36.5t75.5 13h252q40 0 75.5 -13.5t62.5 -37.5t42.5 -58t15.5 -76q0 -41 -15.5 -78t-42 -65.5t-62.5 -45.5t-76 -17h-56
v-848h56q40 0 76 -17t62.5 -45.5t42 -66t15.5 -77.5z" />
    <glyph glyph-name="backslash" unicode="\" horiz-adv-x="1202" 
d="M107 1221q30 31 66.5 46t73.5 15.5t71 -11t57 -33.5q14 -14 26.5 -28t20.5 -31q41 -74 88.5 -162.5t98.5 -184t103.5 -195.5t103 -196t97 -184.5t85.5 -162.5t69 -129.5t47 -85.5q34 -59 24.5 -121t-54.5 -106q-33 -32 -78 -46.5t-89.5 -10.5t-83 27t-60.5 67
q-174 340 -352 672t-340 644q-15 29 -23.5 54t-3.5 54q9 64 53 108z" />
    <glyph glyph-name="bracketright" unicode="]" horiz-adv-x="770" 
d="M2 -160q0 41 15.5 78.5t42 66t62 45t76.5 16.5h56v848h-56q-41 0 -76.5 17t-62 45.5t-42 65.5t-15.5 78q0 42 15.5 76t42 58t62 37.5t76.5 13.5h252q39 0 74.5 -13t62 -36t42.5 -55t16 -70v-1269q-2 -40 -17.5 -74t-41 -59.5t-60.5 -40t-76 -14.5h-252q-38 0 -73.5 14
t-62.5 38.5t-43.5 58.5t-16.5 75z" />
    <glyph glyph-name="asciicircum" unicode="^" horiz-adv-x="1134" 
d="M1009 844q0 -44 -20 -82t-55 -64q-45 -34 -106 -34q-36 0 -70 13t-59 39l-133 170l-129 -170q-25 -26 -59 -39t-70 -13q-15 0 -29.5 1.5t-28.5 6.5q-27 9 -50 26t-40 39.5t-26.5 49.5t-9.5 57q0 38 14 70.5t40 58.5l261 263q25 25 59 38.5t70 13.5t70 -13.5t59 -38.5
l258 -263q54 -54 54 -129z" />
    <glyph glyph-name="underscore" unicode="_" horiz-adv-x="1226" 
d="M1101 156q0 -41 -15.5 -76.5t-42.5 -62t-62.5 -42t-75.5 -15.5h-585q-41 0 -76.5 15t-62 41.5t-42 62.5t-15.5 77t15.5 77t42 62.5t62 41.5t76.5 15h585q40 0 75.5 -15.5t62.5 -42t42.5 -62.5t15.5 -76z" />
    <glyph glyph-name="grave" unicode="`" horiz-adv-x="474" 
d="M205 1423q39 0 82.5 -23t80.5 -56.5t61 -70.5t24 -65q0 -12 -1 -23.5t-6 -22.5q-14 -37 -50 -59q-33 -21 -71 -21q-36 0 -78 15.5t-79.5 39t-66 52t-35.5 55.5q-9 33 -0.5 65t28.5 57.5t49.5 41t61.5 15.5z" />
    <glyph glyph-name="a" unicode="a" horiz-adv-x="1197" 
d="M1073 88q0 -53 -27 -80.5t-81 -27.5t-89.5 31t-58.5 81l-86 182l-50 -9v219q0 41 15.5 76.5t42 62t62 41.5t76.5 15t77 -15t62.5 -41.5t41.5 -62t15 -76.5v-396zM973 484q0 -104 -24 -196t-74 -160.5t-126 -108t-180 -39.5t-195.5 39.5t-160 108t-108.5 160.5t-40 196
q0 103 40 195t108.5 160t160 108t195.5 40t180 -40t126 -108t74 -160t24 -195zM681 484q0 24 -8.5 45.5t-23.5 38t-35.5 26.5t-44.5 10t-44.5 -10t-35.5 -26.5t-23.5 -38t-8.5 -45.5t8.5 -46.5t23.5 -39t35.5 -26.5t44.5 -10t44.5 10t35.5 26.5t23.5 39t8.5 46.5zM1073 486
q0 -41 -15 -77t-41.5 -62.5t-62.5 -41.5t-77 -15t-76.5 15t-62 41.5t-42 62.5t-15.5 77v218l50 -8l86 181q24 51 59 81.5t89 30.5q108 0 108 -108v-395z" />
    <glyph glyph-name="b" unicode="b" horiz-adv-x="1194" 
d="M124 1112q0 41 15 77t41.5 62.5t62.5 41.5t77 15q40 0 76 -15t62.5 -41.5t42 -62.5t15.5 -77v-530l-50 -308l-86 -182q-23 -50 -58 -81t-89 -31q-55 0 -82 27.5t-27 80.5v1024zM228 484q0 103 36.5 195t98 160t141 108t166.5 40q104 0 189 -40t146 -108t94 -160t33 -195
q0 -104 -33 -196t-94 -160.5t-146 -108t-189 -39.5t-186 39.5t-139 108t-87 160.5t-30 196zM516 484q0 -24 8.5 -46.5t23.5 -39t35.5 -26.5t44.5 -10t45 10t36 26.5t23.5 39t8.5 46.5t-8.5 45.5t-23.5 38t-36 26.5t-45 10t-44.5 -10t-35.5 -26.5t-23.5 -38t-8.5 -45.5z" />
    <glyph glyph-name="c" unicode="c" horiz-adv-x="1070" 
d="M942 831q30 -32 47.5 -67.5t17.5 -71.5t-12.5 -68.5t-36 -56.5t-56.5 -38.5t-74 -14.5q-24 0 -45 6.5t-40.5 17t-38.5 22t-40 22.5q-33 14 -69.5 17.5t-68 -7t-52 -36.5t-20.5 -72q0 -45 19 -72t49.5 -38t68 -7t73.5 19q22 9 41 21.5t38 22.5q40 20 88.5 22.5t92.5 -20.5
q39 -23 61 -62.5t22 -93.5q0 -59 -31.5 -112.5t-89 -94t-139.5 -65t-183 -24.5q-104 0 -195 39.5t-159.5 108t-108 160.5t-39.5 196q0 103 39.5 195t108 160t159.5 108t195 40q58 0 113 -12t104.5 -33t90.5 -49.5t70 -61.5z" />
    <glyph glyph-name="d" unicode="d" horiz-adv-x="1194" 
d="M678 1112q0 41 15.5 77t42 62.5t62 41.5t76.5 15t77 -15t62.5 -41.5t41.5 -62.5t15 -77v-1024q0 -53 -27 -80.5t-82 -27.5q-54 0 -89 31t-58 81l-86 182l-50 -9v847zM945 484q0 -104 -27 -196t-80 -160.5t-131.5 -108t-182.5 -39.5t-189 39.5t-145.5 108t-94 160.5
t-33.5 196q0 103 33.5 195t94 160t145.5 108t189 40q47 0 96.5 -18t96 -51t88.5 -79t73 -102t49 -120t18 -133zM678 484q0 24 -8.5 45.5t-23.5 38t-35.5 26.5t-44.5 10t-44.5 -10t-35.5 -26.5t-23.5 -38t-8.5 -45.5t8.5 -46.5t23.5 -39t35.5 -26.5t44.5 -10t44.5 10
t35.5 26.5t23.5 39t8.5 46.5z" />
    <glyph glyph-name="e" unicode="e" 
d="M566 -20q-104 0 -195.5 39.5t-160 108t-108.5 160.5t-40 196q0 103 40 195t108.5 160t160 108t195.5 40t195.5 -35.5t160 -98.5t108.5 -150.5t40 -191.5q0 -39 -12.5 -64t-34.5 -39t-52.5 -19.5t-67.5 -5.5h-441q2 -14 11.5 -29t24 -28.5t32.5 -22t38 -8.5q23 0 41 6.5
t38 15.5q22 10 50.5 14t58.5 0t58.5 -14.5t51 -29.5t36 -46t14.5 -62q1 -58 -32 -96t-84.5 -61t-113.5 -32.5t-120 -9.5zM566 677q-17 0 -35 -5.5t-33.5 -15t-26.5 -23.5t-15 -31h220q-2 17 -14 31t-28.5 23.5t-34.5 15t-33 5.5z" />
    <glyph glyph-name="f" unicode="f" horiz-adv-x="922" 
d="M679 904q36 0 68 -13.5t55.5 -37t37.5 -55.5t14 -69q0 -36 -14 -67.5t-37.5 -55.5t-55.5 -38t-68 -14h-458q-37 0 -68.5 14t-55 38t-37 55.5t-13.5 67.5q0 37 13.5 69t37 55.5t55 37t68.5 13.5h458zM879 1168q0 -55 -26 -99t-70 -69q-18 -10 -36.5 -14t-37 -7.5t-35 -8.5
t-28.5 -17.5t-19.5 -34.5t-7.5 -58v-684q0 -40 -15.5 -75.5t-42 -62.5t-62.5 -42.5t-76 -15.5q-41 0 -76.5 15.5t-62 42.5t-42 62.5t-15.5 75.5v684q0 114 34 207t94.5 159t144 102t183.5 36q41 0 76.5 -15t62 -41.5t42 -62.5t15.5 -77z" />
    <glyph glyph-name="g" unicode="g" horiz-adv-x="1197" 
d="M609 -80q20 0 39 12t33.5 31t21.5 42t4 45q-8 -13 -25 -25.5t-41 -22.5t-53.5 -16t-60.5 -6q-104 0 -189 39.5t-145.5 108t-94 160.5t-33.5 196q0 103 33.5 195t94 160t145.5 108t189 40q75 0 152 -24t142 -71q7 18 21 35.5t33 30.5t40.5 21t42.5 8q29 0 50.5 -10t36 -28
t21.5 -42.5t7 -52.5v-760q0 -142 -42.5 -239.5t-109.5 -158t-149 -87.5t-161 -27q-166 0 -241.5 52.5t-75.5 157.5q0 32 12 59t33 46.5t49 30.5t59 11q18 0 34.5 -3t34.5 -6.5t40 -6.5t53 -3zM457 484q0 -24 8 -46.5t23 -39t35 -26.5t44 -10t45 10t36 26.5t24 39t9 46.5
t-9 45.5t-24 38t-36 26.5t-45 10t-44 -10t-35 -26.5t-23 -38t-8 -45.5z" />
    <glyph glyph-name="h" unicode="h" horiz-adv-x="1215" 
d="M723 278v212q0 24 -8 45.5t-23 38t-35.5 26.5t-44.5 10t-45 -10.5t-37 -28.5t-25 -40.5t-9 -46.5l-17 403q7 22 28 41.5t48.5 33.5t58.5 22.5t59 8.5q104 0 186 -40t138.5 -108t86.5 -160t30 -195v-282zM104 1110q0 40 15 76t41.5 62t62.5 41.5t77 15.5q40 0 76 -15.5
t62.5 -41.5t42 -62t15.5 -76v-934q0 -41 -15.5 -77t-42 -62.5t-62.5 -41.5t-76 -15q-41 0 -77 15t-62.5 41.5t-41.5 62.5t-15 77v934zM1114 301v-125q0 -39 -15.5 -74.5t-42 -62.5t-62 -43t-76.5 -16q-48 0 -84.5 18.5t-61 49.5t-37 71.5t-12.5 84.5v114z" />
    <glyph glyph-name="i" unicode="i" horiz-adv-x="599" 
d="M104 794q0 40 15 76t41 62t62 41.5t77 15.5q40 0 76 -15.5t62.5 -41.5t42 -62t15.5 -76v-618q0 -41 -15.5 -77t-42 -62.5t-62.5 -41.5t-76 -15q-41 0 -77 15t-62 41.5t-41 62.5t-15 77v618zM99 1264q0 40 15 75t41.5 61t62.5 40.5t77 14.5q40 0 76 -14.5t62.5 -40.5
t42 -61t15.5 -75q0 -41 -15.5 -76.5t-42 -61t-62.5 -40t-76 -14.5q-41 0 -77 14.5t-62.5 40t-41.5 61t-15 76.5z" />
    <glyph glyph-name="j" unicode="j" horiz-adv-x="600" 
d="M-156 -195q0 54 25.5 98.5t70.5 69.5q27 15 56 18.5t53 12t39.5 31.5t15.5 78v679q0 40 15.5 75.5t42 62t62 42t76.5 15.5q40 0 76 -15.5t62.5 -42t42 -62t15.5 -75.5v-679q0 -114 -33.5 -207t-93.5 -159t-144 -102t-185 -36q-41 0 -76.5 15t-62 41t-42 62t-15.5 78z
M104 1262q0 40 15 75t41.5 61t62.5 40.5t77 14.5q40 0 76 -14.5t62.5 -40.5t42 -61t15.5 -75q0 -41 -15.5 -76.5t-42 -61t-62.5 -40t-76 -14.5q-41 0 -77 14.5t-62.5 40t-41.5 61t-15 76.5z" />
    <glyph glyph-name="k" unicode="k" horiz-adv-x="1149" 
d="M496 738l285 208q43 30 97 38q23 3 45 -1t45 -13q34 -14 62 -39.5t44 -60.5q8 -17 12.5 -36.5t4.5 -39.5q0 -46 -21.5 -86t-57.5 -66l-123 -90l173 -256q27 -30 37.5 -64.5t8 -69.5t-17 -67.5t-39.5 -57.5t-58.5 -40t-72.5 -15q-42 0 -82 20t-70 58l-180 274
q-29 -21 -45.5 -33t-26 -18t-13.5 -8.5t-7 -4.5v468zM104 1110q0 40 15 76t41.5 62t62.5 41.5t77 15.5q40 0 76 -15.5t62.5 -41.5t42 -62t15.5 -76v-934q0 -41 -15.5 -77t-42 -62.5t-62.5 -41.5t-76 -15q-41 0 -77 15t-62.5 41.5t-41.5 62.5t-15 77v934z" />
    <glyph glyph-name="l" unicode="l" horiz-adv-x="600" 
d="M104 1110q0 40 15 76t41.5 62t62.5 41.5t77 15.5q40 0 76 -15.5t62.5 -41.5t42 -62t15.5 -76v-934q0 -41 -15.5 -77t-42 -62.5t-62.5 -41.5t-76 -15q-41 0 -77 15t-62.5 41.5t-41.5 62.5t-15 77v934z" />
    <glyph glyph-name="m" unicode="m" horiz-adv-x="1665" 
d="M1170 498q0 50 -19.5 76t-48.5 26q-30 0 -51.5 -26t-21.5 -76l-189 370q17 18 49.5 39t74 38.5t87.5 29.5t90 12q104 0 182.5 -40t131.5 -108t79.5 -160t26.5 -195v-310q0 -40 -15.5 -75t-41.5 -61.5t-61 -42t-75 -15.5q-41 0 -77 15.5t-63 42t-42.5 61.5t-15.5 75v324z
M104 879q0 108 109 108q54 0 89 -31t58 -81l86 -181l50 8v-526q0 -41 -15.5 -77t-42 -62.5t-62.5 -41.5t-76 -15q-41 0 -77 15t-62.5 41.5t-41.5 62.5t-15 77v703zM638 498q0 50 -20 76t-49 26t-51 -26t-22 -76l-190 370q17 18 50 39t74.5 38.5t87.5 29.5t90 12
q104 0 182.5 -36.5t131.5 -101t80 -153t27 -192.5v-330q0 -40 -15.5 -75t-42 -61.5t-61.5 -42t-75 -15.5q-41 0 -76.5 15.5t-62.5 42t-42.5 61.5t-15.5 75v324z" />
    <glyph glyph-name="n" unicode="n" horiz-adv-x="1218" 
d="M723 484q0 24 -8 45.5t-23 38t-35.5 26.5t-44.5 10t-45 -10t-37 -26.5t-25 -38t-9 -45.5l-170 384q55 45 107 69t97 35t82 13t61 2q104 0 186 -40t138.5 -108t86.5 -160t30 -195v-310q0 -40 -15.5 -75t-41.5 -61.5t-61.5 -42t-75.5 -15.5q-41 0 -76.5 15.5t-62.5 42
t-42.5 61.5t-15.5 75v310zM104 879q0 108 109 108q54 0 87.5 -27.5t59.5 -84.5l86 -181l50 8v-526q0 -41 -15.5 -77t-42 -62.5t-62.5 -41.5t-76 -15q-41 0 -77 15t-62.5 41.5t-41.5 62.5t-15 77v703z" />
    <glyph glyph-name="o" unicode="o" 
d="M62 484q0 103 40 195t108.5 160t160 108t195.5 40t195.5 -40t160 -108t108.5 -160t40 -195q0 -104 -40 -196t-108.5 -160.5t-160 -108t-195.5 -39.5t-195.5 39.5t-160 108t-108.5 160.5t-40 196zM454 484q0 -24 8.5 -46.5t23.5 -39t35.5 -26.5t44.5 -10t44.5 10
t35.5 26.5t23.5 39t8.5 46.5t-8.5 45.5t-23.5 38t-35.5 26.5t-44.5 10t-44.5 -10t-35.5 -26.5t-23.5 -38t-8.5 -45.5z" />
    <glyph glyph-name="p" unicode="p" horiz-adv-x="1174" 
d="M104 879q0 108 109 108q54 0 89 -31t58 -81l86 -181l50 8v-846q0 -42 -15.5 -78t-42 -62t-62.5 -41t-76 -15q-41 0 -77 15t-62.5 41t-41.5 62t-15 78v1023zM213 484q0 103 29.5 195t85.5 160t137 108t185 40t189 -40t146 -108t94 -160t33 -195q0 -104 -33 -196
t-94 -160.5t-146 -108t-189 -39.5q-80 0 -158 39.5t-140 108t-100.5 160.5t-38.5 196zM496 484q0 -24 8.5 -46.5t23.5 -39t35.5 -26.5t44.5 -10t45 10t36 26.5t23.5 39t8.5 46.5t-8.5 45.5t-23.5 38t-36 26.5t-45 10t-44.5 -10t-35.5 -26.5t-23.5 -38t-8.5 -45.5z" />
    <glyph glyph-name="q" unicode="q" horiz-adv-x="1174" 
d="M1070 -144q0 -42 -15 -78t-41.5 -62t-62.5 -41t-77 -15t-76.5 15t-62 41t-42 62t-15.5 78v846l50 -8l86 181q23 50 58 81t89 31q109 0 109 -108v-1023zM945 484q0 -104 -34.5 -196t-92.5 -160.5t-134 -108t-160 -39.5q-104 0 -189 39.5t-145.5 108t-94 160.5t-33.5 196
q0 103 33.5 195t94 160t145.5 108t189 40t182.5 -40t131.5 -108t80 -160t27 -195zM678 484q0 24 -8.5 45.5t-23.5 38t-35.5 26.5t-44.5 10t-44.5 -10t-35.5 -26.5t-23.5 -38t-8.5 -45.5t8.5 -46.5t23.5 -39t35.5 -26.5t44.5 -10t44.5 10t35.5 26.5t23.5 39t8.5 46.5z" />
    <glyph glyph-name="r" unicode="r" horiz-adv-x="931" 
d="M340 883q58 49 126 76.5t142 27.5q47 0 96.5 -11t90 -35.5t66.5 -64.5t26 -97q0 -38 -15.5 -72t-40.5 -59q-25 -26 -58 -40t-71 -14q-20 0 -40.5 3t-41 5.5t-41 2.5t-40.5 -6q-14 -6 -22.5 -17t-13 -26t-6 -33.5t-1.5 -38.5zM104 879q0 108 109 108q54 0 87.5 -27.5
t59.5 -84.5l86 -181l50 8v-526q0 -41 -15.5 -77t-42 -62.5t-62.5 -41.5t-76 -15q-41 0 -77 15t-62.5 41.5t-41.5 62.5t-15 77v703z" />
    <glyph glyph-name="s" unicode="s" horiz-adv-x="1032" 
d="M512 -20q-45 0 -95.5 9t-100.5 25.5t-96 41.5t-81 56.5t-56 70t-21 82.5q0 33 12.5 62.5t34 52t50.5 35.5t63 13q37 0 72 -13.5t66.5 -32.5t61 -39.5t56.5 -34.5q10 -5 26.5 -11.5t33 -9t28.5 3t12 24.5q0 13 -23 25.5t-59.5 26.5t-83 30.5t-92.5 38t-88 50t-70.5 66
t-39 85.5t6.5 109q12 43 39.5 87.5t74 81t114 59.5t159.5 23q84 0 160.5 -15.5t134.5 -46.5t92.5 -76t34.5 -103q0 -43 -16.5 -73.5t-41.5 -50t-54.5 -28.5t-55.5 -9q-24 0 -47.5 8.5t-45 20.5t-40 25.5t-33.5 24.5q-14 10 -29 14.5t-28.5 3t-22 -9t-8.5 -20.5
q0 -6 11.5 -13t30 -15t42.5 -16.5t49 -17.5t59 -21t69.5 -29t70 -41.5t62 -58t44 -78t16.5 -102.5q0 -77 -39 -132t-103 -90t-146.5 -51.5t-169.5 -16.5z" />
    <glyph glyph-name="t" unicode="t" horiz-adv-x="874" 
d="M652 989q40 0 74.5 -14.5t60.5 -40.5t41 -61t15 -75q0 -39 -15 -73.5t-41 -60.5t-60.5 -41t-74.5 -15h-430q-41 0 -75.5 15t-60 41t-40 60.5t-14.5 73.5q0 40 14.5 75t40 61t60 40.5t75.5 14.5h430zM240 1110q0 40 15 76t41 62t61.5 41.5t77.5 15.5q40 0 76 -15.5
t62 -41.5t41.5 -62t15.5 -76v-934q0 -41 -15.5 -77t-41.5 -62.5t-62 -41.5t-76 -15q-42 0 -77.5 15t-61.5 41.5t-41 62.5t-15 77v934z" />
    <glyph glyph-name="u" unicode="u" horiz-adv-x="1217" 
d="M496 484q0 -24 8 -46.5t23 -39t35 -26.5t44 -10t45.5 10t37.5 26.5t25 39t9 46.5l171 -386q-56 -44 -108 -68t-97.5 -35t-82 -13t-60.5 -2q-104 0 -186 39.5t-139 108t-87 160.5t-30 196v310q0 40 15.5 75t42 61t61.5 41.5t75 15.5t76 -15.5t63 -41.5t43 -61t16 -75v-310
zM1114 88q0 -53 -26.5 -80.5t-81.5 -27.5q-53 0 -87.5 28t-60.5 84l-85 182l-50 -9v527q0 41 15.5 76.5t41.5 62t61.5 41.5t76.5 15q42 0 77.5 -15t62 -41.5t41.5 -62t15 -76.5v-704z" />
    <glyph glyph-name="v" unicode="v" horiz-adv-x="1092" 
d="M728 90q-31 -60 -85.5 -88t-116.5 -22q-48 3 -90 31.5t-68 76.5l-314 618q-19 37 -21.5 76t9 75t36 65.5t60.5 47.5q37 19 76 21.5t74.5 -8.5t65 -36t48.5 -62l143 -357l143 353q15 37 44 62.5t65.5 37.5t76.5 9.5t77 -20.5q37 -16 62.5 -45t38 -64.5t10.5 -74.5t-20 -76
z" />
    <glyph glyph-name="w" unicode="w" horiz-adv-x="1673" 
d="M833 406l-124 -316q-12 -30 -34 -52.5t-49.5 -36.5t-58 -19.5t-60.5 -1.5q-50 5 -92 31t-66 77l-294 618q-25 53 -22 102q3 53 29.5 95.5t76.5 66.5q37 18 76 21t74.5 -8t65 -36t48.5 -62l124 -339l130 335q15 42 51.5 68.5t80.5 37.5q33 8 66 4.5t63 -17t55 -36
t41 -53.5l119 -339l135 335q15 37 43.5 62.5t64.5 37t76 9.5t78 -20q48 -23 77.5 -65t33.5 -93q2 -25 -2.5 -51t-16.5 -51l-314 -620q-20 -41 -52 -67t-71 -37q-32 -9 -68 -7.5t-69.5 14.5t-60.5 36.5t-39 58.5z" />
    <glyph glyph-name="x" unicode="x" horiz-adv-x="1072" 
d="M878 401q15 -14 32.5 -30t33.5 -30q18 -17 37 -32q32 -30 45.5 -60.5t15 -59.5t-6 -54t-17 -45t-19 -32.5t-12.5 -15.5q-17 -19 -47 -36.5t-67 -23.5t-78.5 5t-83.5 50q-20 22 -39 43q-17 18 -34.5 37.5t-29.5 33.5l-74 81l-77 -87q-14 -16 -29.5 -33t-27.5 -31
q-15 -17 -28 -33q-22 -24 -54 -43t-70 -24t-79.5 6.5t-80.5 48.5q-21 20 -37 53.5t-18.5 72.5t12 79.5t54.5 74.5l10 9.5t25 23.5t33 29.5t33 29.5l85 76l-104 92q-15 13 -30.5 27t-27.5 25q-15 13 -28 25q-35 33 -49.5 71t-14 75.5t15.5 71t39 56.5q26 24 60 41.5
t72.5 19.5t79 -15t79.5 -62q14 -17 29 -34q13 -15 28 -32t29 -32l71 -80l180 200q14 15 41.5 31t63.5 21t77 -5.5t82 -48.5q25 -24 41.5 -56.5t19 -69t-10.5 -75t-46 -72.5l-40 -36q-17 -15 -36.5 -32t-34.5 -30l-85 -76z" />
    <glyph glyph-name="y" unicode="y" horiz-adv-x="1121" 
d="M369 131q-1 1 -14 27t-34 67.5t-48 94t-54 106.5q-65 128 -146 289q-17 39 -18 78t11 74t37 63t61 45q37 17 78 19.5t77.5 -8.5t65.5 -36.5t42 -63.5l143 -423q34 96 57.5 168t40 123.5t27 84.5t18.5 51q17 37 46 62t65 36.5t75.5 8.5t77.5 -22q18 -9 43.5 -30.5t43 -55
t20.5 -79t-24 -102.5l-396 -833q-22 -46 -61 -79.5t-87 -55.5t-101.5 -33t-104.5 -11t-90.5 14.5t-67.5 40t-42.5 61t-14.5 78.5q0 58 25 89t61 44.5t75 15t66 1.5z" />
    <glyph glyph-name="z" unicode="z" horiz-adv-x="1129" 
d="M994 773q0 -38 -19.5 -78.5t-56.5 -76.5l-279 -272h191q97 0 155.5 -42t58.5 -129q0 -41 -15.5 -74.5t-42 -58.5t-62 -38.5t-75.5 -13.5h-603q-54 0 -98 28t-70 72q-15 24 -23 56.5t-6 66.5t14 65t37 52l345 287h-149q-41 0 -78 10.5t-65.5 31.5t-45.5 52t-17 72t15.5 75
t42 58.5t62 38t76.5 13.5h512q40 0 75.5 -15.5t62.5 -41.5t42.5 -62t15.5 -76z" />
    <glyph glyph-name="braceleft" unicode="{" horiz-adv-x="851" 
d="M579 467v-375v-5q2 -19 22 -19h2q40 0 75.5 -17.5t62 -47t41.5 -67t15 -76.5q0 -44 -16 -78.5t-44 -58.5t-65 -36.5t-79 -12.5q-3 0 -6.5 0.5t-6.5 0.5q-83 5 -154.5 39.5t-124.5 90.5t-83.5 129t-30.5 156v210q0 23 -10 38t-24.5 27t-32 22.5t-32 24t-24.5 32t-10 46.5
q0 26 10 42.5t24.5 28t32 20.5t32 22t24.5 31.5t10 49.5v89zM187 726v158q0 82 30.5 155.5t83.5 129.5t124.5 90.5t154.5 39.5q3 0 6.5 0.5t6.5 0.5q42 0 79 -13t65 -37t44 -58.5t16 -77.5q0 -39 -15 -76.5t-41.5 -67t-62 -47t-75.5 -17.5h-2q-22 0 -22 -19v-447z" />
    <glyph glyph-name="bar" unicode="|" horiz-adv-x="599" 
d="M298 1313q41 0 76.5 -15.5t62 -42t42 -62.5t15.5 -76v-1220q0 -41 -15.5 -76.5t-42 -61.5t-62 -41t-76.5 -15t-76.5 15t-61.5 41t-41 61.5t-15 76.5v1220q0 40 15 76t41 62.5t61.5 42t76.5 15.5z" />
    <glyph glyph-name="braceright" unicode="}" horiz-adv-x="851" 
d="M664 773v-89q0 -31 10 -49.5t24.5 -31.5t32 -22t32 -20.5t24.5 -28t10 -42.5q0 -28 -10 -46.5t-24.5 -32t-32 -24t-32 -22.5t-24.5 -27t-10 -38v-210q0 -83 -30.5 -156t-83.5 -129t-125 -90.5t-154 -39.5q-3 0 -6.5 -0.5t-6.5 -0.5q-42 0 -79 12.5t-65 36.5t-44 58.5
t-16 78.5q0 39 15 76.5t41.5 67t61.5 47t76 17.5h2q20 0 22 19v5v375zM272 440v447q0 19 -22 19h-2q-41 0 -76 17.5t-61.5 47t-41.5 67t-15 76.5q0 43 16 77.5t44 58.5t65 37t79 13q3 0 6.5 -0.5t6.5 -0.5q82 -5 154 -39.5t125 -90.5t83.5 -129.5t30.5 -155.5v-158z" />
    <glyph glyph-name="asciitilde" unicode="~" horiz-adv-x="1388" 
d="M74 452q0 86 35 154.5t94.5 116.5t137 74t163.5 26q49 0 104.5 -17t107 -48.5t93.5 -78t65 -104.5q5 -13 14.5 -22t27.5 -9q19 0 32 11t16 35q5 37 22.5 70.5t44.5 58.5t61 39.5t73 14.5q51 0 88 -24t56 -65q19 -44 19 -94q0 -84 -34 -152.5t-92 -117t-133.5 -74.5
t-159.5 -26q-57 0 -113.5 15.5t-107 46t-92 76t-68.5 104.5q-8 18 -18.5 27t-27.5 9q-18 0 -28 -13t-15 -33q-9 -37 -27.5 -69.5t-44.5 -57t-59 -39t-72 -14.5q-38 0 -68 14t-51 38t-32 57t-11 71z" />
    <glyph glyph-name="exclamdown" unicode="&#xa1;" horiz-adv-x="510" 
d="M263 777.047q-41 0 -76.5 -15.4971t-62 -42.4922t-42 -62.4883q-15.5 -35.4941 -15.5 -75.4863v-736.865q0 -39.9932 15 -75.9863t41.5 -62.4883t62.5 -41.9922t77 -15.4971t77 15.4971t62.5 41.9922t41.5 62.4883t15 75.9863v736.865q0 39.9922 -15.5 75.4863
q-15.5 35.4932 -42 62.4883t-62.5 42.4922t-76 15.4971zM459 1053q0 40.9932 -15.5 75.9863t-42 60.4893q-26.5 25.4951 -62.5 40.4922t-76 14.9971q-41 0 -77 -14.9971t-62.5 -40.4922q-26.5 -25.4961 -41.5 -60.4893t-15 -75.9863q0 -40.9922 15 -76.4854
q15 -35.4941 41.5 -60.9893t62.5 -39.9922q36 -14.498 77 -14.498q40 0 76 14.498q36 14.4971 62.5 39.9922t42 60.9893q15.5 35.4932 15.5 76.4854z" />
    <glyph glyph-name="cent" unicode="&#xa2;" horiz-adv-x="1070" 
d="M358 867v239q0 36 13 68t36.5 56t55 38t68.5 14q36 0 68 -13.5t56.5 -37.5t38.5 -56t14 -69v-189v-141zM708 125v-248q0 -37 -14 -68.5t-38 -55t-56 -37t-69 -13.5t-68.5 13.5t-55 37t-36.5 55t-13 68.5v248h350zM902 831q30 -32 47.5 -67.5t17.5 -71.5t-12.5 -68.5
t-36 -56.5t-56.5 -38.5t-74 -14.5q-24 0 -45 6.5t-40.5 17t-38.5 22t-40 22.5q-33 14 -69.5 17.5t-68 -7t-52 -36.5t-20.5 -72q0 -45 19 -72t49.5 -38t68 -7t73.5 19q22 9 41 21.5t38 22.5q40 20 88.5 22.5t92.5 -20.5q39 -23 61 -62.5t22 -93.5q0 -59 -31.5 -112.5t-89 -94
t-139.5 -65t-183 -24.5q-104 0 -195 39.5t-159.5 108t-108 160.5t-39.5 196q0 103 39.5 195t108 160t159.5 108t195 40q58 0 113 -12t104.5 -33t90.5 -49.5t70 -61.5z" />
    <glyph glyph-name="sterling" unicode="&#xa3;" horiz-adv-x="1080" 
d="M490 902v-532h336q40 0 75.5 -15.5t62.5 -42t42.5 -62t15.5 -76.5t-13.5 -76.5t-37.5 -62t-57.5 -42t-73.5 -15.5h-556q-39 2 -73.5 17.5t-59.5 41t-39.5 60.5t-14.5 77v637zM549 834q36 0 68 -13.5t55.5 -37t37.5 -55.5t14 -69q0 -36 -14 -67.5t-37.5 -55.5t-55.5 -38
t-68 -14h-458q-37 0 -68.5 14t-55 38t-37 55.5t-13.5 67.5q0 37 13.5 69t37 55.5t55 37t68.5 13.5h458zM97 715v115q0 114 34 207t94.5 159t144 102t183.5 36q41 0 76.5 -15t62 -41.5t42 -62.5t15.5 -77q0 -55 -26 -99t-70 -69q-18 -10 -36.5 -14t-37 -7.5t-35 -8.5
t-28.5 -17.5t-19.5 -34.5t-7.5 -58v-179z" />
    <glyph glyph-name="currency" unicode="&#xa4;" 
d="M905 647l142 -140q30 -30 40 -70t1 -79t-37.5 -71t-76.5 -45q-40 -11 -80.5 0t-71.5 42l-141 140zM393 715l-143 144q-30 29 -40 69t-1 79t37 70.5t76 44.5q39 11 79 0.5t71 -41.5l142 -143zM663 913l163 163q29 30 69.5 40.5t80.5 2t72.5 -37t45.5 -77.5
q11 -40 0.5 -80.5t-42.5 -72.5l-165 -164zM625 434l-151 -152q-36 -36 -77 -43.5t-78.5 5t-67 41.5t-42.5 66t-5.5 78.5t44.5 78.5l155 152zM244 673q0 85 32.5 159.5t88 130.5t130 88.5t159.5 32.5q84 0 159 -32.5t130.5 -88.5t88 -130.5t32.5 -159.5q0 -84 -32.5 -159
t-88 -130.5t-130.5 -88t-159 -32.5q-85 0 -159.5 32.5t-130 88t-88 130.5t-32.5 159zM562 673q0 -20 7 -37.5t19.5 -31t29 -21.5t36.5 -8t36.5 8t28.5 21.5t19 31t7 37.5q0 40 -25.5 69.5t-65.5 29.5q-20 0 -36.5 -8t-29 -21.5t-19.5 -31.5t-7 -38z" />
    <glyph glyph-name="yen" unicode="&#xa5;" horiz-adv-x="1371" 
d="M946 696q27 0 50 -9.5t40 -26.5t27 -40t10 -50t-10 -50t-27 -40t-40 -27t-50 -10h-508q-27 0 -50 10t-40 27t-26.5 40t-9.5 50t9.5 50t26.5 40t40 26.5t50 9.5h508zM946 392q27 0 50 -9.5t40 -26.5t27 -40t10 -50t-10 -50t-27 -40t-40 -27t-50 -10h-508q-27 0 -50 10
t-40 27t-26.5 40t-9.5 50t9.5 50t26.5 40t40 26.5t50 9.5h508zM489 657q0 40 15 76t41 62t62 41.5t77 15.5t76.5 -15.5t62 -41.5t42 -62t15.5 -76v-501q0 -41 -15.5 -77t-42 -62.5t-62 -41.5t-76.5 -15t-77 15t-62 41.5t-41 62.5t-15 77v501zM1005 1211q29 29 65 43.5
t73.5 14.5t73.5 -14.5t65 -43.5q28 -29 43 -65t15 -73.5t-14.5 -73.5t-43.5 -65l-477 -474q-20 -20 -34 -24t-25 3t-20 22.5t-19.5 35.5t-23.5 41.5t-31 41.5q-30 29 -45 64.5t-15 73t15 73.5t45 66zM720 857q30 -30 44.5 -66t14.5 -73.5t-14.5 -73t-44.5 -64.5
q-28 -29 -45 -63t-31.5 -57t-32 -27.5t-47.5 25.5l-474 476q-29 29 -44 65t-15 73t15 73t44 66q29 29 65 43.5t73 14.5t73 -14.5t65 -43.5z" />
    <glyph glyph-name="brokenbar" unicode="&#xa6;" horiz-adv-x="597" 
d="M297 1305q40 0 75.5 -15.5t62.5 -42t42.5 -62t15.5 -75.5v-387q0 -41 -15.5 -76.5t-42 -62t-62 -41.5t-76.5 -15t-76.5 15t-61.5 41t-41 61.5t-15 77.5v387q0 40 15 76t41.5 62t61.5 41.5t76 15.5zM297 442q40 0 75.5 -15.5t62.5 -42.5t42.5 -62.5t15.5 -75.5v-376
q0 -41 -15.5 -76.5t-42 -62t-62 -42t-76.5 -15.5t-76.5 15t-61.5 41.5t-41 62.5t-15 77v376q0 40 15 76t41.5 62.5t61.5 42t76 15.5z" />
    <glyph glyph-name="section" unicode="&#xa7;" horiz-adv-x="1032" 
d="M512 -20q-45 0 -95.5 9t-100.5 25.5t-96 41.5t-81 56.5t-56 70t-21 82.5q0 33 12.5 62.5t34 52t50.5 35.5t63 13q37 0 72 -13.5t66.5 -32.5t61 -39.5t56.5 -34.5q10 -5 26.5 -11.5t33 -9t28.5 3t12 24.5q0 8 -23 18t-59.5 22.5t-83 29.5t-92.5 39.5t-88 52.5t-70.5 69
t-39 88t6.5 110q12 43 39.5 86t74 78t114 57t159.5 22q60 0 116 -7.5t105 -23.5q52 -17 94 -52t69 -78.5t36.5 -89.5t-2.5 -84t-48 -62.5t-100 -24.5q-13 0 -16 7t-1.5 18.5t4.5 25.5t1.5 27.5t-10.5 25t-31 17.5q-33 9 -58 16.5t-45.5 12.5t-37 7t-31.5 1q-45 -4 -57 -18
t-12 -32q0 -10 4.5 -19.5t20 -17.5t45.5 -14t80 -9q28 -2 63 -11.5t71.5 -28.5t71 -47t62 -65.5t44 -85t16.5 -105.5q0 -77 -39 -132t-103 -90t-146.5 -51.5t-169.5 -16.5zM521 369q-26 0 -49 8t-45.5 20t-46.5 26t-53 26q-52 21 -91.5 49t-62.5 58.5t-27.5 62.5t12.5 61.5
t57.5 54.5t108.5 42q21 -8 28.5 -26t15 -39t21 -42.5t46.5 -36.5q27 -12 66.5 -20.5t75.5 -7t61 15.5t25 46q0 22 -26.5 40t-69 35t-95.5 35.5t-106.5 40.5t-102 50.5t-82 66t-46.5 86.5t4 112q12 43 39.5 86t74 78t113.5 57t159 22q84 0 161 -15.5t135 -46.5t92.5 -76
t34.5 -103q0 -43 -16.5 -75t-41.5 -53t-54.5 -31t-56.5 -10q-24 0 -47.5 9.5t-44.5 23t-40 29t-34 26.5q-14 10 -29 15.5t-28.5 6t-22 -5t-8.5 -18.5q0 -6 11.5 -13.5t30.5 -15.5t43 -16.5t49 -17.5q26 -9 59.5 -20.5t69 -29t70 -41.5t61.5 -58t43.5 -79t16.5 -103
q0 -77 -39 -132t-103 -90t-146.5 -51t-169.5 -16z" />
    <glyph glyph-name="dieresis" unicode="&#xa8;" horiz-adv-x="997" 
d="M30 1470q0 33 12.5 61.5t33.5 50t50 34t62 12.5q32 0 61 -12.5t50.5 -34t34 -50t12.5 -61.5t-12.5 -62t-34 -50t-50.5 -33.5t-61 -12.5q-33 0 -62 12.5t-50 33.5t-33.5 50t-12.5 62zM416 1470q0 33 12.5 61.5t34 50t50 34t60.5 12.5q33 0 62 -12.5t50 -34t33.5 -50
t12.5 -61.5t-12.5 -62t-33.5 -50t-50 -33.5t-62 -12.5q-32 0 -60.5 12.5t-50 33.5t-34 50t-12.5 62z" />
    <glyph glyph-name="copyright" unicode="&#xa9;" horiz-adv-x="1432" 
d="M36 636q0 90 25 173.5t70 156.5t108 132.5t138 102.5t160 66.5t175 23.5t175 -23.5t160 -66.5t138 -102.5t108 -132.5t70 -156.5t25 -173.5t-25 -174t-70 -157t-108 -133t-138 -102.5t-160 -66t-175 -23.5t-175 23.5t-160 66t-138 102.5t-108 133t-70 156.5t-25 174.5z
M284 632q0 -79 36 -151t96 -127.5t137 -88.5t159 -33t159 33t137 89t96 129t36 154q0 80 -36 152t-96 126.5t-137 86.5t-159 32t-159 -32.5t-137 -88t-96 -128.5t-36 -153zM813 724q-9 7 -17.5 16t-20 16.5t-26.5 12.5t-36 5q-29 0 -53 -11.5t-42 -30.5t-28 -44.5t-10 -53.5
q0 -25 10.5 -49t28.5 -43t42 -30.5t52 -11.5q23 0 39 6.5t28.5 16t25.5 20.5t30 21q26 14 59.5 14t59.5 -23q28 -32 28 -70q0 -17 -7 -36.5t-21 -36.5q-48 -55 -106 -79t-136 -24q-69 0 -130 26t-106.5 70.5t-71.5 104t-26 126.5q0 69 26 130t71.5 106t106.5 71t130 26
q77 0 131.5 -23t103.5 -79q26 -28 26 -70q1 -14 -5.5 -33.5t-20.5 -35.5q-12 -10 -27.5 -17.5t-32.5 -9.5t-36.5 3t-38.5 20z" />
    <glyph glyph-name="ordfeminine" unicode="&#xaa;" horiz-adv-x="1149" 
d="M1139 68q0 -53 -27 -80.5t-81 -27.5t-89.5 31t-58.5 81l-86 182l-50 -9v219q0 41 15.5 76.5t42 62t62 41.5t76.5 15t77 -15t62.5 -41.5t41.5 -62t15 -76.5v-396zM1039 464q0 -104 -24 -196t-74 -160.5t-126 -108t-180 -39.5t-195.5 39.5t-160 108t-108.5 160.5t-40 196
q0 103 40 195t108.5 160t160 108t195.5 40t180 -40t126 -108t74 -160t24 -195zM747 464q0 24 -8.5 45.5t-23.5 38t-35.5 26.5t-44.5 10t-44.5 -10t-35.5 -26.5t-23.5 -38t-8.5 -45.5t8.5 -46.5t23.5 -39t35.5 -26.5t44.5 -10t44.5 10t35.5 26.5t23.5 39t8.5 46.5zM1139 466
q0 -41 -15 -77t-41.5 -62.5t-62.5 -41.5t-77 -15t-76.5 15t-62 41.5t-42 62.5t-15.5 77v218l50 -8l86 181q24 51 59 81.5t89 30.5q108 0 108 -108v-395z" />
    </font>
</defs>
</svg>
